<?xml version="1.0" encoding="utf-8"?>
<!-- Generator: Adobe Illustrator 17.0.0, SVG Export Plug-In . SVG Version: 6.00 Build 0)  -->
<!DOCTYPE svg PUBLIC "-//W3C//DTD SVG 1.1//EN" "http://www.w3.org/Graphics/SVG/1.1/DTD/svg11.dtd">
<svg version="1.1" xmlns="http://www.w3.org/2000/svg" xmlns:xlink="http://www.w3.org/1999/xlink" x="0px" y="0px" width="1280px"
	 height="677.397px" viewBox="0 0 1280 677.397" enable-background="new 0 0 1280 677.397" xml:space="preserve">
<g id="图层_2">
	<linearGradient id="SVGID_1_" gradientUnits="userSpaceOnUse" x1="-0.0012" y1="337.5594" x2="1281.0577" y2="337.5594">
		<stop  offset="0" style="stop-color:#119E95"/>
		<stop  offset="0.2203" style="stop-color:#17A1A3"/>
		<stop  offset="0.6384" style="stop-color:#28AAC9"/>
		<stop  offset="1" style="stop-color:#39B3EF"/>
	</linearGradient>
	<polyline fill="url(#SVGID_1_)" points="-0.001,677.795 -0.001,-2.676 1281.058,-2.676 1281.058,677.795 	"/>
</g>
<g id="图层_3">
	<g opacity="0.8">
		<polyline opacity="0.1" fill="#5D5D5D" enable-background="new    " points="304.14,1033.693 304.14,-114.568 304.708,-114.568 
			304.708,1033.693 		"/>
		<polyline opacity="0.1" fill="#5D5D5D" enable-background="new    " points="326.28,1033.693 326.28,-114.568 326.848,-114.568 
			326.848,1033.693 		"/>
		<polyline opacity="0.1" fill="#5D5D5D" enable-background="new    " points="348.42,1033.693 348.42,-114.568 348.988,-114.568 
			348.988,1033.693 		"/>
		<polyline opacity="0.1" fill="#5D5D5D" enable-background="new    " points="370.56,1033.693 370.56,-114.568 371.128,-114.568 
			371.128,1033.693 		"/>
		<polyline opacity="0.1" fill="#5D5D5D" enable-background="new    " points="392.7,1033.693 392.7,-114.568 393.268,-114.568 
			393.268,1033.693 		"/>
		<polyline opacity="0.1" fill="#5D5D5D" enable-background="new    " points="414.84,1033.693 414.84,-114.568 415.408,-114.568 
			415.408,1033.693 		"/>
		<polyline opacity="0.1" fill="#5D5D5D" enable-background="new    " points="436.98,1033.693 436.98,-114.568 437.548,-114.568 
			437.548,1033.693 		"/>
		<polyline opacity="0.1" fill="#5D5D5D" enable-background="new    " points="459.121,1033.693 459.121,-114.568 459.688,-114.568 
			459.688,1033.693 		"/>
		<polyline opacity="0.1" fill="#5D5D5D" enable-background="new    " points="481.261,1033.693 481.261,-114.568 481.828,-114.568 
			481.828,1033.693 		"/>
		<polyline opacity="0.1" fill="#5D5D5D" enable-background="new    " points="503.401,1033.693 503.401,-114.568 503.968,-114.568 
			503.968,1033.693 		"/>
		<polyline opacity="0.1" fill="#5D5D5D" enable-background="new    " points="525.541,1033.693 525.541,-114.568 526.108,-114.568 
			526.108,1033.693 		"/>
		<polyline opacity="0.1" fill="#5D5D5D" enable-background="new    " points="547.681,1033.693 547.681,-114.568 548.248,-114.568 
			548.248,1033.693 		"/>
		<polyline opacity="0.1" fill="#5D5D5D" enable-background="new    " points="569.821,1033.693 569.821,-114.568 570.388,-114.568 
			570.388,1033.693 		"/>
		<polyline opacity="0.1" fill="#5D5D5D" enable-background="new    " points="591.961,1033.693 591.961,-114.568 592.528,-114.568 
			592.528,1033.693 		"/>
		<polyline opacity="0.1" fill="#5D5D5D" enable-background="new    " points="16.28,1033.693 16.28,-114.568 16.848,-114.568 
			16.848,1033.693 		"/>
		<polyline opacity="0.1" fill="#5D5D5D" enable-background="new    " points="38.42,1033.693 38.42,-114.568 38.988,-114.568 
			38.988,1033.693 		"/>
		<polyline opacity="0.1" fill="#5D5D5D" enable-background="new    " points="60.56,1033.693 60.56,-114.568 61.128,-114.568 
			61.128,1033.693 		"/>
		<polyline opacity="0.1" fill="#5D5D5D" enable-background="new    " points="82.7,1033.693 82.7,-114.568 83.268,-114.568 
			83.268,1033.693 		"/>
		<polyline opacity="0.1" fill="#5D5D5D" enable-background="new    " points="104.84,1033.693 104.84,-114.568 105.408,-114.568 
			105.408,1033.693 		"/>
		<polyline opacity="0.1" fill="#5D5D5D" enable-background="new    " points="126.98,1033.693 126.98,-114.568 127.548,-114.568 
			127.548,1033.693 		"/>
		<polyline opacity="0.1" fill="#5D5D5D" enable-background="new    " points="149.121,1033.693 149.121,-114.568 149.688,-114.568 
			149.688,1033.693 		"/>
		<polyline opacity="0.1" fill="#5D5D5D" enable-background="new    " points="171.261,1033.693 171.261,-114.568 171.828,-114.568 
			171.828,1033.693 		"/>
		<polyline opacity="0.1" fill="#5D5D5D" enable-background="new    " points="193.401,1033.693 193.401,-114.568 193.968,-114.568 
			193.968,1033.693 		"/>
		<polyline opacity="0.1" fill="#5D5D5D" enable-background="new    " points="215.541,1033.693 215.541,-114.568 216.108,-114.568 
			216.108,1033.693 		"/>
		<polyline opacity="0.1" fill="#5D5D5D" enable-background="new    " points="237.681,1033.693 237.681,-114.568 238.248,-114.568 
			238.248,1033.693 		"/>
		<polyline opacity="0.1" fill="#5D5D5D" enable-background="new    " points="259.821,1033.693 259.821,-114.568 260.388,-114.568 
			260.388,1033.693 		"/>
		<polyline opacity="0.1" fill="#5D5D5D" enable-background="new    " points="281.961,1033.693 281.961,-114.568 282.528,-114.568 
			282.528,1033.693 		"/>
		<polyline opacity="0.1" fill="#5D5D5D" enable-background="new    " points="614.101,1033.693 614.101,-114.568 614.668,-114.568 
			614.668,1033.693 		"/>
		<polyline opacity="0.1" fill="#5D5D5D" enable-background="new    " points="636.241,1033.693 636.241,-114.568 636.808,-114.568 
			636.808,1033.693 		"/>
		<polyline opacity="0.1" fill="#5D5D5D" enable-background="new    " points="658.381,1033.693 658.381,-114.568 658.948,-114.568 
			658.948,1033.693 		"/>
		<polyline opacity="0.1" fill="#5D5D5D" enable-background="new    " points="680.521,1033.693 680.521,-114.568 681.088,-114.568 
			681.088,1033.693 		"/>
		<polyline opacity="0.1" fill="#5D5D5D" enable-background="new    " points="702.661,1033.693 702.661,-114.568 703.228,-114.568 
			703.228,1033.693 		"/>
		<polyline opacity="0.1" fill="#5D5D5D" enable-background="new    " points="724.801,1033.693 724.801,-114.568 725.368,-114.568 
			725.368,1033.693 		"/>
		<polyline opacity="0.1" fill="#5D5D5D" enable-background="new    " points="746.941,1033.693 746.941,-114.568 747.508,-114.568 
			747.508,1033.693 		"/>
		<polyline opacity="0.1" fill="#5D5D5D" enable-background="new    " points="769.081,1033.693 769.081,-114.568 769.648,-114.568 
			769.648,1033.693 		"/>
		<polyline opacity="0.1" fill="#5D5D5D" enable-background="new    " points="791.221,1033.693 791.221,-114.568 791.788,-114.568 
			791.788,1033.693 		"/>
		<polyline opacity="0.1" fill="#5D5D5D" enable-background="new    " points="813.361,1033.693 813.361,-114.568 813.928,-114.568 
			813.928,1033.693 		"/>
		<polyline opacity="0.1" fill="#5D5D5D" enable-background="new    " points="835.501,1033.693 835.501,-114.568 836.068,-114.568 
			836.068,1033.693 		"/>
		<polyline opacity="0.1" fill="#5D5D5D" enable-background="new    " points="857.641,1033.693 857.641,-114.568 858.208,-114.568 
			858.208,1033.693 		"/>
		<polyline opacity="0.1" fill="#5D5D5D" enable-background="new    " points="879.781,1033.693 879.781,-114.568 880.348,-114.568 
			880.348,1033.693 		"/>
		<polyline opacity="0.1" fill="#5D5D5D" enable-background="new    " points="901.921,1033.693 901.921,-114.568 902.488,-114.568 
			902.488,1033.693 		"/>
		<polyline opacity="0.1" fill="#5D5D5D" enable-background="new    " points="924.061,1033.693 924.061,-114.568 924.628,-114.568 
			924.628,1033.693 		"/>
		<polyline opacity="0.1" fill="#5D5D5D" enable-background="new    " points="946.201,1033.693 946.201,-114.568 946.768,-114.568 
			946.768,1033.693 		"/>
		<polyline opacity="0.1" fill="#5D5D5D" enable-background="new    " points="968.341,1033.693 968.341,-114.568 968.908,-114.568 
			968.908,1033.693 		"/>
		<polyline opacity="0.1" fill="#5D5D5D" enable-background="new    " points="990.481,1033.693 990.481,-114.568 991.048,-114.568 
			991.048,1033.693 		"/>
		<polyline opacity="0.1" fill="#5D5D5D" enable-background="new    " points="1012.499,1033.693 1012.499,-114.568 
			1013.066,-114.568 1013.066,1033.693 		"/>
		<polyline opacity="0.1" fill="#5D5D5D" enable-background="new    " points="1034.639,1033.693 1034.639,-114.568 
			1035.207,-114.568 1035.207,1033.693 		"/>
		<polyline opacity="0.1" fill="#5D5D5D" enable-background="new    " points="1056.779,1033.693 1056.779,-114.568 
			1057.347,-114.568 1057.347,1033.693 		"/>
		<polyline opacity="0.1" fill="#5D5D5D" enable-background="new    " points="1078.919,1033.693 1078.919,-114.568 
			1079.487,-114.568 1079.487,1033.693 		"/>
		<polyline opacity="0.1" fill="#5D5D5D" enable-background="new    " points="1101.059,1033.693 1101.059,-114.568 
			1101.627,-114.568 1101.627,1033.693 		"/>
		<polyline opacity="0.1" fill="#5D5D5D" enable-background="new    " points="1123.199,1033.693 1123.199,-114.568 
			1123.767,-114.568 1123.767,1033.693 		"/>
		<polyline opacity="0.1" fill="#5D5D5D" enable-background="new    " points="1145.339,1033.693 1145.339,-114.568 
			1145.907,-114.568 1145.907,1033.693 		"/>
		<polyline opacity="0.1" fill="#5D5D5D" enable-background="new    " points="1167.479,1033.693 1167.479,-114.568 
			1168.047,-114.568 1168.047,1033.693 		"/>
		<polyline opacity="0.1" fill="#5D5D5D" enable-background="new    " points="1189.619,1033.693 1189.619,-114.568 
			1190.187,-114.568 1190.187,1033.693 		"/>
		<polyline opacity="0.1" fill="#5D5D5D" enable-background="new    " points="1211.759,1033.693 1211.759,-114.568 
			1212.327,-114.568 1212.327,1033.693 		"/>
		<polyline opacity="0.1" fill="#5D5D5D" enable-background="new    " points="1233.899,1033.693 1233.899,-114.568 
			1234.467,-114.568 1234.467,1033.693 		"/>
		<polyline opacity="0.1" fill="#5D5D5D" enable-background="new    " points="1256.039,1033.693 1256.039,-114.568 
			1256.607,-114.568 1256.607,1033.693 		"/>
		<polyline opacity="0.1" fill="#5D5D5D" enable-background="new    " points="1278.179,1033.693 1278.179,-114.568 
			1278.747,-114.568 1278.747,1033.693 		"/>
		<polyline opacity="0.1" fill="#5D5D5D" enable-background="new    " points="1766.49,825.67 294.458,-24.233 294.671,-24.602 
			1766.703,825.301 		"/>
		<polyline opacity="0.1" fill="#5D5D5D" enable-background="new    " points="1722.212,825.67 250.179,-24.233 250.392,-24.602 
			1722.424,825.301 		"/>
		<line opacity="0.1" fill="#5D5D5D" enable-background="new    " x1="297.334" y1="828.729" x2="1769.366" y2="-21.174"/>
		<line opacity="0.1" fill="#5D5D5D" enable-background="new    " x1="1769.579" y1="-20.805" x2="297.547" y2="829.098"/>
		<line opacity="0.1" fill="#5D5D5D" enable-background="new    " x1="253.053" y1="828.729" x2="1725.085" y2="-21.174"/>
		<line opacity="0.1" fill="#5D5D5D" enable-background="new    " x1="1725.298" y1="-20.805" x2="253.266" y2="829.098"/>
		<line opacity="0.1" fill="#5D5D5D" enable-background="new    " x1="208.772" y1="828.729" x2="1680.804" y2="-21.174"/>
		<line opacity="0.1" fill="#5D5D5D" enable-background="new    " x1="1681.017" y1="-20.805" x2="208.984" y2="829.098"/>
		<line opacity="0.1" fill="#5D5D5D" enable-background="new    " x1="164.49" y1="828.729" x2="1636.523" y2="-21.174"/>
		<line opacity="0.1" fill="#5D5D5D" enable-background="new    " x1="1636.735" y1="-20.805" x2="164.703" y2="829.098"/>
		<line opacity="0.1" fill="#5D5D5D" enable-background="new    " x1="120.209" y1="828.729" x2="1592.241" y2="-21.174"/>
		<line opacity="0.1" fill="#5D5D5D" enable-background="new    " x1="1592.454" y1="-20.805" x2="120.422" y2="829.098"/>
		<line opacity="0.1" fill="#5D5D5D" enable-background="new    " x1="75.928" y1="828.729" x2="1547.96" y2="-21.174"/>
		<line opacity="0.1" fill="#5D5D5D" enable-background="new    " x1="1548.173" y1="-20.805" x2="76.141" y2="829.098"/>
		<line opacity="0.1" fill="#5D5D5D" enable-background="new    " x1="31.647" y1="828.729" x2="1503.679" y2="-21.174"/>
		<line opacity="0.1" fill="#5D5D5D" enable-background="new    " x1="1503.892" y1="-20.805" x2="31.86" y2="829.098"/>
		<line opacity="0.1" fill="#5D5D5D" enable-background="new    " x1="-12.634" y1="828.729" x2="1459.398" y2="-21.174"/>
		<line opacity="0.1" fill="#5D5D5D" enable-background="new    " x1="1459.611" y1="-20.805" x2="-12.421" y2="829.098"/>
		<line opacity="0.1" fill="#5D5D5D" enable-background="new    " x1="-56.915" y1="828.729" x2="1415.117" y2="-21.174"/>
		<line opacity="0.1" fill="#5D5D5D" enable-background="new    " x1="1415.33" y1="-20.805" x2="-56.702" y2="829.098"/>
		<line opacity="0.1" fill="#5D5D5D" enable-background="new    " x1="-101.196" y1="828.729" x2="1370.836" y2="-21.174"/>
		<line opacity="0.1" fill="#5D5D5D" enable-background="new    " x1="1371.049" y1="-20.805" x2="-100.984" y2="829.098"/>
		<line opacity="0.1" fill="#5D5D5D" enable-background="new    " x1="-145.478" y1="828.729" x2="1326.555" y2="-21.174"/>
		<line opacity="0.1" fill="#5D5D5D" enable-background="new    " x1="1326.767" y1="-20.805" x2="-145.265" y2="829.098"/>
		<polyline opacity="0.1" fill="#5D5D5D" enable-background="new    " points="-189.759,828.729 1282.273,-21.174 1282.486,-20.805 
			-189.546,829.098 		"/>
		<polyline opacity="0.1" fill="#5D5D5D" enable-background="new    " points="-234.04,828.729 1237.992,-21.174 1238.205,-20.805 
			-233.827,829.098 		"/>
		<polyline opacity="0.1" fill="#5D5D5D" enable-background="new    " points="-278.321,828.729 1193.711,-21.174 1193.924,-20.805 
			-278.108,829.098 		"/>
		<polyline opacity="0.1" fill="#5D5D5D" enable-background="new    " points="-322.602,828.729 1149.43,-21.174 1149.643,-20.805 
			-322.389,829.098 		"/>
		<polyline opacity="0.1" fill="#5D5D5D" enable-background="new    " points="-366.883,828.729 1105.149,-21.174 1105.362,-20.805 
			-366.67,829.098 		"/>
		<line opacity="0.1" fill="#5D5D5D" enable-background="new    " x1="2030.079" y1="237.695" x2="558.047" y2="1087.598"/>
		<line opacity="0.1" fill="#5D5D5D" enable-background="new    " x1="1897.235" y1="237.695" x2="425.203" y2="1087.598"/>
		<polyline opacity="0.1" fill="#5D5D5D" enable-background="new    " points="70.741,1087.229 1542.773,237.326 1542.986,237.695 
			70.954,1087.598 		"/>
		<polyline opacity="0.1" fill="#5D5D5D" enable-background="new    " points="114.741,1087.229 1586.773,237.326 1586.986,237.695 
			114.954,1087.598 		"/>
		<polyline opacity="0.1" fill="#5D5D5D" enable-background="new    " points="159.741,1087.229 1631.773,237.326 1631.986,237.695 
			159.954,1087.598 		"/>
		<polyline opacity="0.1" fill="#5D5D5D" enable-background="new    " points="203.741,1087.229 1675.773,237.326 1675.986,237.695 
			203.954,1087.598 		"/>
		<polyline opacity="0.1" fill="#5D5D5D" enable-background="new    " points="219.991,1103.479 1692.023,253.576 1692.236,253.945 
			220.204,1103.848 		"/>
		<polyline opacity="0.1" fill="#5D5D5D" enable-background="new    " points="236.075,1119.563 1708.107,269.66 1708.32,270.028 
			236.287,1119.932 		"/>
		<polyline opacity="0.1" fill="#5D5D5D" enable-background="new    " points="252.325,1135.813 1724.357,285.91 1724.57,286.278 
			252.537,1136.182 		"/>
		<polyline opacity="0.1" fill="#5D5D5D" enable-background="new    " points="268.491,1151.979 1740.523,302.076 1740.736,302.445 
			268.704,1152.348 		"/>
		<polyline opacity="0.1" fill="#5D5D5D" enable-background="new    " points="284.908,1168.396 1756.94,318.493 1757.153,318.862 
			285.121,1168.765 		"/>
		<polyline opacity="0.1" fill="#5D5D5D" enable-background="new    " points="300.991,1184.479 1773.023,334.576 1773.236,334.945 
			301.204,1184.848 		"/>
		<polyline opacity="0.1" fill="#5D5D5D" enable-background="new    " points="317.241,1200.729 1789.273,350.826 1789.486,351.195 
			317.454,1201.098 		"/>
		<polyline opacity="0.1" fill="#5D5D5D" enable-background="new    " points="332.991,1217.104 1805.023,367.201 1805.236,367.57 
			333.204,1217.473 		"/>
		<polyline opacity="0.1" fill="#5D5D5D" enable-background="new    " points="26.46,1087.229 1498.492,237.326 1498.705,237.695 
			26.673,1087.598 		"/>
		<polyline opacity="0.1" fill="#5D5D5D" enable-background="new    " points="-17.821,1087.229 1454.211,237.326 1454.424,237.695 
			-17.608,1087.598 		"/>
		<polyline opacity="0.1" fill="#5D5D5D" enable-background="new    " points="-62.102,1087.229 1409.93,237.326 1410.143,237.695 
			-61.889,1087.598 		"/>
		<polyline opacity="0.1" fill="#5D5D5D" enable-background="new    " points="-106.383,1087.229 1365.649,237.326 
			1365.862,237.695 -106.17,1087.598 		"/>
		<polyline opacity="0.1" fill="#5D5D5D" enable-background="new    " points="-411.164,828.729 1060.868,-21.174 1061.081,-20.805 
			-410.952,829.098 		"/>
		<polyline opacity="0.1" fill="#5D5D5D" enable-background="new    " points="-455.446,828.729 1016.587,-21.174 1016.799,-20.805 
			-455.233,829.098 		"/>
		<polyline opacity="0.1" fill="#5D5D5D" enable-background="new    " points="-499.727,828.729 972.305,-21.174 972.518,-20.805 
			-499.514,829.098 		"/>
		<polyline opacity="0.1" fill="#5D5D5D" enable-background="new    " points="-544.008,828.729 928.024,-21.174 928.237,-20.805 
			-543.795,829.098 		"/>
		<polyline opacity="0.1" fill="#5D5D5D" enable-background="new    " points="-588.289,828.729 883.743,-21.174 883.956,-20.805 
			-588.076,829.098 		"/>
		<polyline opacity="0.1" fill="#5D5D5D" enable-background="new    " points="-632.57,828.729 839.462,-21.174 839.675,-20.805 
			-632.357,829.098 		"/>
		<polyline opacity="0.1" fill="#5D5D5D" enable-background="new    " points="1677.933,825.67 205.9,-24.233 206.113,-24.602 
			1678.146,825.301 		"/>
		<polyline opacity="0.1" fill="#5D5D5D" enable-background="new    " points="1633.654,825.67 161.622,-24.233 161.834,-24.602 
			1633.867,825.301 		"/>
		<polyline opacity="0.1" fill="#5D5D5D" enable-background="new    " points="1589.375,825.67 117.343,-24.233 117.556,-24.602 
			1589.588,825.301 		"/>
		<polyline opacity="0.1" fill="#5D5D5D" enable-background="new    " points="1545.096,825.67 73.064,-24.233 73.277,-24.602 
			1545.309,825.301 		"/>
		<polyline opacity="0.1" fill="#5D5D5D" enable-background="new    " points="1500.817,825.67 28.785,-24.233 28.998,-24.602 
			1501.03,825.301 		"/>
		<polyline opacity="0.1" fill="#5D5D5D" enable-background="new    " points="1456.538,825.67 -15.494,-24.233 -15.281,-24.602 
			1456.751,825.301 		"/>
		<polyline opacity="0.1" fill="#5D5D5D" enable-background="new    " points="1412.259,825.67 -59.773,-24.233 -59.56,-24.602 
			1412.472,825.301 		"/>
		<polyline opacity="0.1" fill="#5D5D5D" enable-background="new    " points="1356.161,818.788 -115.871,-31.115 -115.658,-31.483 
			1356.374,818.42 		"/>
		<polyline opacity="0.1" fill="#5D5D5D" enable-background="new    " points="1323.701,825.67 -148.331,-24.233 -148.118,-24.602 
			1323.914,825.301 		"/>
		<polyline opacity="0.1" fill="#5D5D5D" enable-background="new    " points="1279.423,825.67 -192.61,-24.233 -192.397,-24.602 
			1279.635,825.301 		"/>
		<line opacity="0.1" fill="#5D5D5D" enable-background="new    " x1="1235.144" y1="825.67" x2="-236.888" y2="-24.233"/>
		<line opacity="0.1" fill="#5D5D5D" enable-background="new    " x1="-236.676" y1="-24.602" x2="1235.357" y2="825.301"/>
		<line opacity="0.1" fill="#5D5D5D" enable-background="new    " x1="1190.865" y1="825.67" x2="-281.167" y2="-24.233"/>
		<line opacity="0.1" fill="#5D5D5D" enable-background="new    " x1="-280.954" y1="-24.602" x2="1191.078" y2="825.301"/>
		<line opacity="0.1" fill="#5D5D5D" enable-background="new    " x1="1146.586" y1="825.67" x2="-325.446" y2="-24.233"/>
		<line opacity="0.1" fill="#5D5D5D" enable-background="new    " x1="-325.233" y1="-24.602" x2="1146.799" y2="825.301"/>
		<line opacity="0.1" fill="#5D5D5D" enable-background="new    " x1="1102.307" y1="825.67" x2="-369.725" y2="-24.233"/>
		<line opacity="0.1" fill="#5D5D5D" enable-background="new    " x1="-369.512" y1="-24.602" x2="1102.52" y2="825.301"/>
		<line opacity="0.1" fill="#5D5D5D" enable-background="new    " x1="1058.028" y1="825.67" x2="-414.004" y2="-24.233"/>
		<line opacity="0.1" fill="#5D5D5D" enable-background="new    " x1="-413.791" y1="-24.602" x2="1058.241" y2="825.301"/>
		<line opacity="0.1" fill="#5D5D5D" enable-background="new    " x1="1013.749" y1="825.67" x2="-458.283" y2="-24.233"/>
		<line opacity="0.1" fill="#5D5D5D" enable-background="new    " x1="-458.07" y1="-24.602" x2="1013.962" y2="825.301"/>
		<line opacity="0.1" fill="#5D5D5D" enable-background="new    " x1="969.47" y1="825.67" x2="-502.562" y2="-24.233"/>
		<line opacity="0.1" fill="#5D5D5D" enable-background="new    " x1="-502.349" y1="-24.602" x2="969.683" y2="825.301"/>
		<line opacity="0.1" fill="#5D5D5D" enable-background="new    " x1="925.191" y1="825.67" x2="-546.841" y2="-24.233"/>
		<line opacity="0.1" fill="#5D5D5D" enable-background="new    " x1="-546.628" y1="-24.602" x2="925.404" y2="825.301"/>
		<line opacity="0.1" fill="#5D5D5D" enable-background="new    " x1="880.912" y1="825.67" x2="-591.12" y2="-24.233"/>
		<line opacity="0.1" fill="#5D5D5D" enable-background="new    " x1="-590.907" y1="-24.602" x2="881.125" y2="825.301"/>
		<line opacity="0.1" fill="#5D5D5D" enable-background="new    " x1="836.634" y1="825.67" x2="-635.399" y2="-24.233"/>
		<line opacity="0.1" fill="#5D5D5D" enable-background="new    " x1="-635.186" y1="-24.602" x2="836.846" y2="825.301"/>
		<polyline opacity="0.1" fill="#5D5D5D" enable-background="new    " points="791.646,825.67 -680.386,-24.233 -680.173,-24.602 
			791.859,825.301 		"/>
		<polyline opacity="0.1" fill="#5D5D5D" enable-background="new    " points="747.367,825.67 -724.665,-24.233 -724.452,-24.602 
			747.58,825.301 		"/>
		<polyline opacity="0.1" fill="#5D5D5D" enable-background="new    " points="731.367,841.67 -740.665,-8.233 -740.452,-8.602 
			731.58,841.301 		"/>
		<polyline opacity="0.1" fill="#5D5D5D" enable-background="new    " points="715.117,857.92 -756.915,8.017 -756.702,7.648 
			715.33,857.551 		"/>
		<polyline opacity="0.1" fill="#5D5D5D" enable-background="new    " points="698.93,874.108 -773.102,24.205 -772.889,23.836 
			699.143,873.739 		"/>
		<polyline opacity="0.1" fill="#5D5D5D" enable-background="new    " points="682.867,890.17 -789.165,40.267 -788.952,39.898 
			683.08,889.801 		"/>
		<polyline opacity="0.1" fill="#5D5D5D" enable-background="new    " points="666.451,906.587 -805.581,56.684 -805.369,56.315 
			666.664,906.218 		"/>
		<polyline opacity="0.1" fill="#5D5D5D" enable-background="new    " points="666.451,932.212 -805.581,82.309 -805.369,81.94 
			666.664,931.843 		"/>
		<polyline opacity="0.1" fill="#5D5D5D" enable-background="new    " points="666.451,957.587 -805.581,107.684 -805.369,107.315 
			666.664,957.218 		"/>
		<polyline opacity="0.1" fill="#5D5D5D" enable-background="new    " points="666.451,982.587 -805.581,132.684 -805.369,132.315 
			666.664,982.218 		"/>
		<polyline opacity="0.1" fill="#5D5D5D" enable-background="new    " points="666.451,1008.587 -805.581,158.684 -805.369,158.315 
			666.664,1008.218 		"/>
		<polyline opacity="0.1" fill="#5D5D5D" enable-background="new    " points="650.117,1024.587 -821.915,174.684 -821.702,174.315 
			650.33,1024.218 		"/>
		<polyline opacity="0.1" fill="#5D5D5D" enable-background="new    " points="1810.769,825.67 338.737,-24.233 338.95,-24.602 
			1810.982,825.301 		"/>
		<polyline opacity="0.1" fill="#5D5D5D" enable-background="new    " points="1855.048,825.67 383.016,-24.233 383.229,-24.602 
			1855.261,825.301 		"/>
		<polyline opacity="0.1" fill="#5D5D5D" enable-background="new    " points="1899.327,825.67 427.295,-24.233 427.508,-24.602 
			1899.54,825.301 		"/>
		<polyline opacity="0.1" fill="#5D5D5D" enable-background="new    " points="1943.606,825.67 471.574,-24.233 471.787,-24.602 
			1943.819,825.301 		"/>
		<polyline opacity="0.1" fill="#5D5D5D" enable-background="new    " points="1987.885,825.67 515.853,-24.233 516.066,-24.602 
			1988.098,825.301 		"/>
		<polyline opacity="0.1" fill="#5D5D5D" enable-background="new    " points="2032.164,825.67 560.132,-24.233 560.345,-24.602 
			2032.377,825.301 		"/>
		<polyline opacity="0.1" fill="#5D5D5D" enable-background="new    " points="2076.443,825.67 604.411,-24.233 604.623,-24.602 
			2076.656,825.301 		"/>
		<polyline opacity="0.1" fill="#5D5D5D" enable-background="new    " points="-676.851,828.729 795.181,-21.174 795.394,-20.805 
			-676.638,829.098 		"/>
		<polyline opacity="0.1" fill="#5D5D5D" enable-background="new    " points="-721.133,828.729 750.9,-21.174 751.112,-20.805 
			-720.92,829.098 		"/>
		<polyline opacity="0.1" fill="#5D5D5D" enable-background="new    " points="-765.414,828.729 706.619,-21.174 706.831,-20.805 
			-765.201,829.098 		"/>
		<polyline opacity="0.1" fill="#5D5D5D" enable-background="new    " points="2120.722,825.67 648.689,-24.233 648.902,-24.602 
			2120.935,825.301 		"/>
		<polyline opacity="0.1" fill="#5D5D5D" enable-background="new    " points="2165,825.67 692.968,-24.233 693.181,-24.602 
			2165.213,825.301 		"/>
		<polyline opacity="0.1" fill="#5D5D5D" enable-background="new    " points="2209.28,825.67 737.247,-24.233 737.46,-24.602 
			2209.492,825.301 		"/>
		<polyline opacity="0.1" fill="#5D5D5D" enable-background="new    " points="2253.558,825.67 781.526,-24.233 781.739,-24.602 
			2253.771,825.301 		"/>
		<polyline opacity="0.1" fill="#5D5D5D" enable-background="new    " points="2297.837,825.67 825.805,-24.233 826.018,-24.602 
			2298.05,825.301 		"/>
		<polyline opacity="0.1" fill="#5D5D5D" enable-background="new    " points="2342.116,825.67 870.084,-24.233 870.297,-24.602 
			2342.329,825.301 		"/>
		<polyline opacity="0.1" fill="#5D5D5D" enable-background="new    " points="2386.395,825.67 914.363,-24.233 914.576,-24.602 
			2386.608,825.301 		"/>
		<polyline opacity="0.1" fill="#5D5D5D" enable-background="new    " points="-809.695,828.729 662.337,-21.174 662.55,-20.805 
			-809.482,829.098 		"/>
		<polyline opacity="0.1" fill="#5D5D5D" enable-background="new    " points="-853.976,828.729 618.056,-21.174 618.269,-20.805 
			-853.763,829.098 		"/>
		<polyline opacity="0.1" fill="#5D5D5D" enable-background="new    " points="-898.257,828.729 573.775,-21.174 573.988,-20.805 
			-898.044,829.098 		"/>
		<polyline opacity="0.1" fill="#5D5D5D" enable-background="new    " points="-942.538,828.729 529.494,-21.174 529.707,-20.805 
			-942.325,829.098 		"/>
		<polyline opacity="0.1" fill="#5D5D5D" enable-background="new    " points="-986.819,828.729 485.213,-21.174 485.426,-20.805 
			-986.607,829.098 		"/>
		<polyline opacity="0.1" fill="#5D5D5D" enable-background="new    " points="-1031.101,828.729 440.932,-21.174 441.144,-20.805 
			-1030.888,829.098 		"/>
		<polyline opacity="0.1" fill="#5D5D5D" enable-background="new    " points="-1075.382,828.729 396.65,-21.174 396.863,-20.805 
			-1075.169,829.098 		"/>
		<polyline opacity="0.1" fill="#5D5D5D" enable-background="new    " points="-1119.663,828.729 352.369,-21.174 352.582,-20.805 
			-1119.45,829.098 		"/>
		<polyline opacity="0.1" fill="#5D5D5D" enable-background="new    " points="-1163.944,828.729 308.088,-21.174 308.301,-20.805 
			-1163.731,829.098 		"/>
		<polyline opacity="0.1" fill="#5D5D5D" enable-background="new    " points="-1067.819,747.729 404.213,-102.174 
			404.426,-101.805 -1067.606,748.098 		"/>
		<polyline opacity="0.1" fill="#5D5D5D" enable-background="new    " points="-1112.101,747.729 359.932,-102.174 
			360.144,-101.805 -1111.888,748.098 		"/>
		<polyline opacity="0.1" fill="#5D5D5D" enable-background="new    " points="-1156.382,747.729 315.65,-102.174 315.863,-101.805 
			-1156.169,748.098 		"/>
		<polyline opacity="0.1" fill="#5D5D5D" enable-background="new    " points="-1200.663,747.729 271.369,-102.174 
			271.582,-101.805 -1200.45,748.098 		"/>
		<polyline opacity="0.1" fill="#5D5D5D" enable-background="new    " points="-1244.944,747.729 227.088,-102.174 
			227.301,-101.805 -1244.731,748.098 		"/>
		<polyline opacity="0.1" fill="#5D5D5D" enable-background="new    " points="2430.674,825.67 958.642,-24.233 958.855,-24.602 
			2430.887,825.301 		"/>
		<polyline opacity="0.1" fill="#5D5D5D" enable-background="new    " points="2474.953,825.67 1002.921,-24.233 1003.133,-24.602 
			2475.166,825.301 		"/>
		<polyline opacity="0.1" fill="#5D5D5D" enable-background="new    " points="2491.078,809.545 1019.046,-40.358 1019.258,-40.727 
			2491.291,809.176 		"/>
		<polyline opacity="0.1" fill="#5D5D5D" enable-background="new    " points="2507.328,793.295 1035.296,-56.608 1035.509,-56.977 
			2507.541,792.926 		"/>
		<polyline opacity="0.1" fill="#5D5D5D" enable-background="new    " points="2523.578,777.045 1051.546,-72.858 1051.759,-73.227 
			2523.791,776.676 		"/>
		<polyline opacity="0.1" fill="#5D5D5D" enable-background="new    " points="2539.703,760.92 1067.671,-88.983 1067.884,-89.352 
			2539.916,760.551 		"/>
		<polyline opacity="0.1" fill="#5D5D5D" enable-background="new    " points="2539.703,735.67 1067.671,-114.233 
			1067.884,-114.602 2539.916,735.301 		"/>
	</g>
</g>
<g id="图层_1">
	<path fill="none" stroke="#9DF1B3" stroke-miterlimit="10" stroke-dasharray="1,1" d="M71.481,321.11"/>
</g>
<g id="图层_4">
</g>
</svg>
