<?xml version="1.0" standalone="no"?>
<!DOCTYPE svg PUBLIC "-//W3C//DTD SVG 1.1//EN" "http://www.w3.org/Graphics/SVG/1.1/DTD/svg11.dtd" >
<!--
2013-9-30: Created.
-->
<svg>
<metadata>
Created by iconfont
</metadata>
<defs>

<font id="iconfont" horiz-adv-x="1024" >
  <font-face
    font-family="iconfont"
    font-weight="500"
    font-stretch="normal"
    units-per-em="1024"
    ascent="896"
    descent="-128"
  />
    <missing-glyph />
    
    <glyph glyph-name="x" unicode="x" horiz-adv-x="1001"
d="M281 543q-27 -1 -53 -1h-83q-18 0 -36.5 -6t-32.5 -18.5t-23 -32t-9 -45.5v-76h912v41q0 16 -0.5 30t-0.5 18q0 13 -5 29t-17 29.5t-31.5 22.5t-49.5 9h-133v-97h-438v97zM955 310v-52q0 -23 0.5 -52t0.5 -58t-10.5 -47.5t-26 -30t-33 -16t-31.5 -4.5q-14 -1 -29.5 -0.5
t-29.5 0.5h-32l-45 128h-439l-44 -128h-29h-34q-20 0 -45 1q-25 0 -41 9.5t-25.5 23t-13.5 29.5t-4 30v167h911zM163 247q-12 0 -21 -8.5t-9 -21.5t9 -21.5t21 -8.5q13 0 22 8.5t9 21.5t-9 21.5t-22 8.5zM316 123q-8 -26 -14 -48q-5 -19 -10.5 -37t-7.5 -25t-3 -15t1 -14.5
t9.5 -10.5t21.5 -4h37h67h81h80h64h36q23 0 34 12t2 38q-5 13 -9.5 30.5t-9.5 34.5q-5 19 -11 39h-368zM336 498v228q0 11 2.5 23t10 21.5t20.5 15.5t34 6h188q31 0 51.5 -14.5t20.5 -52.5v-227h-327z" />
    

    
    <glyph glyph-name="pdf" unicode="&#59202;" d="M483.555556 669.777778l355.555556 0 0-28.444444-355.555556 0 0 28.444444ZM483.555556 598.666667l355.555556 0 0-14.222222-355.555556 0 0 14.222222ZM284.444444 129.333333l298.666667 0 0-28.444444-298.666667 0 0 28.444444ZM284.444444 58.222222l298.666667 0 0-14.222222-298.666667 0 0 14.222222ZM483.555556 541.777778l355.555556 0 0-14.222222-355.555556 0 0 14.222222ZM483.555556 484.888889l355.555556 0 0-14.222222-355.555556 0 0 14.222222ZM483.555556 428l355.555556 0 0-14.222222-355.555556 0 0 14.222222ZM483.555556 371.111111l355.555556 0 0-14.222222-355.555556 0 0 14.222222ZM284.444444 314.222222l554.666667 0 0-14.222222-554.666667 0 0 14.222222ZM284.444444 257.333333l554.666667 0 0-14.222222-554.666667 0 0 14.222222ZM284.444444 200.444444l554.666667 0 0-14.222222-554.666667 0 0 14.222222ZM284.444444 1.333333l298.666667 0 0-14.222222-298.666667 0 0 14.222222ZM284.444444-55.555556l298.666667 0 0-14.222222-298.666667 0 0 14.222222ZM199.111111 797.777778l0-85.333333L99.555556 712.444444l0-298.666667 99.555556 0 0-611.555556 398.222222 0 71.111111 0 28.444444 0 14.222222 0 1.720889 0L924.444444 13.834667 924.444444 15.555556 924.444444 797.777778 199.111111 797.777778zM183.879111 464.536889c-34.403556-49.550222-79.715556-3.854222-43.264 30.520889 10.410667 9.813333 28.046222 19.470222 52.423111 28.700444 11.022222 21.788444 21.987556 45.824 30.620444 67.157333-7.296 15.203556-11.989333 31.260444-13.980444 47.758222-7.495111 61.994667 62.677333 57.386667 52.010667-0.355556-2.048-11.064889-6.926222-26.595556-14.535111-46.222222 11.064889-19.683556 25.543111-34.474667 37.091556-44.273778 15.786667 2.517333 38.257778 5.12 54.058667 2.787556 42.026667-6.172444 36.693333-52.437333-0.64-52.437333-19.541333 0-43.989333 15.217778-59.306667 26.922667-23.452444-4.309333-48.526222-10.951111-70.101333-18.574222C201.358222 493.28 192.113778 476.412444 183.879111 464.536889zM711.111111-139.168 711.111111 15.555556l154.723556 0L711.111111-139.168zM881.777778 58.222222 668.444444 58.222222l0-213.333333L241.777778-155.111111 241.777778 413.777778l156.444444 0L398.222222 712.444444 241.777778 712.444444 241.777778 755.111111l640 0L881.777778 58.222222z"  horiz-adv-x="1024" />

    
    <glyph glyph-name="record" unicode="&#58993;" d="M887.65 591.886c0 75.666-61.339 137.006-137.006 137.006-0.335 0-0.668-0.011-1.002-0.014v0.014l-476.842-0.005c-75.225-0.3-136.145-61.218-136.443-136.443h-0.005v-590.188c0-0.013 0-0.023 0-0.036 0-75.666 61.339-137.006 137.006-137.006 4.283 0 8.517 0.207 12.7 0.591h465.142v0.512c75.056 0.298 135.867 60.946 136.437 135.938h0.014v588.629h-0.014c0.001 0.334 0.013 0.668 0.013 1.003zM816.586 536.874v-480.436h-0.012c-0.027-3.419-0.214-6.798-0.541-10.138 0.313-3.093 0.475-6.23 0.475-9.407 0-50.847-41.219-92.067-92.067-92.067-4.29 0-8.502 0.317-12.637 0.886-2.181-0.135-4.375-0.217-6.589-0.224v-0.417h-379.647c-3.414-0.313-6.87-0.481-10.365-0.481-3.999 0-7.949 0.214-11.839 0.624-2.706-0.239-5.438-0.383-8.207-0.383-50.847 0-92.067 41.219-92.067 92.067 0 3.615 0.233 7.172 0.636 10.679-0.228 2.915-0.346 5.863-0.346 8.836 0 0.011 0 0.019 0 0.030v0 481.707h0.005c0.018 4.814 0.343 9.557 0.953 14.211-0.095 1.708-0.151 3.425-0.151 5.156 0 50.847 41.219 92.067 92.067 92.067 3.18 0 6.321-0.161 9.418-0.476 2.993 0.254 6.021 0.393 9.078 0.405v0.005l389.194-0.012c0.273 0.002 0.545 0.012 0.818 0.012 3.362 0 6.686-0.157 9.971-0.447 3.19 0.334 6.429 0.513 9.708 0.513 50.847 0 92.067-41.219 92.067-92.067 0-3.043-0.157-6.049-0.445-9.018 0.341-3.555 0.523-7.156 0.523-10.801 0-0.274-0.007-0.545-0.012-0.818h0.013zM279.815 526.825h74.277v-76.724h-74.277v76.724zM391.083 526.825h349.070v-76.724h-349.070v76.724zM279.815 335.412h74.354v-76.724h-74.354v76.724zM391.158 335.412h348.994v-76.724h-348.994v76.724zM280.547 147.41h73.623v-76.724h-73.623v76.724zM391.158 147.41h349.725v-76.724h-349.725v76.724z"  horiz-adv-x="1024" />

    
    <glyph glyph-name="system" unicode="&#58907;" d="M563.86781 703.651316l0-58.115606 0-27.069519 26.215058-6.776334c29.6636-7.66354 57.961086-19.575848 84.10963-35.449373l23.449062-14.234189 19.389606 19.404955 41.574884 41.559535 74.142627-74.141604-42.976814-42.976814-18.926048-18.910699 13.328563-23.212678c14.780635-25.738198 25.840528-53.609988 32.836873-82.82845l6.436596-26.796296 27.563776 0 62.400189 0 0-104.863303-65.3688 0-26.609031 0-7.083326-25.65224c-7.647167-27.66713-19.116383-54.205553-34.099632-78.888721L766.014786 121.234547l19.408025-19.386536 47.326888-47.329958-74.142627-74.139557-48.745191 48.728818-18.927071 18.925025-23.195282-13.326517c-24.065092-13.84431-50.195216-24.427342-77.641311-31.508621l-26.230408-6.758937 0-27.085892 0-69.65236L459.003484-100.299989l0 69.65236 0 27.085892-26.232454 6.758937c-27.445072 7.081279-53.575196 17.664312-77.641311 31.508621l-23.211654 13.326517-18.910699-18.925025-48.745191-48.747237-74.142627 74.157977 47.328935 47.329958 19.405979 19.386536-14.234189 23.468504c-14.985296 24.683169-26.454512 51.221592-34.100656 78.888721l-7.082302 25.65224-26.609031 0-65.3688 0L109.459482 354.106292l62.399165 0 27.564799 0 6.433526 26.796296c6.998391 29.218462 18.058284 57.090253 32.838919 82.82845l13.329587 23.212678-18.929118 18.910699-42.976814 42.976814 74.142627 74.141604 41.576931-41.559535 19.389606-19.404955 23.450085 14.234189c26.148543 15.873526 54.44603 27.785833 84.108606 35.449373l26.217105 6.776334L459.004507 645.535711 459.004507 703.651316 563.86781 703.651316M511.435647 144.344894c86.73748 0 157.294442 70.576405 157.294442 157.330258 0 86.738503-70.556962 157.311839-157.294442 157.311839-86.738503 0-157.295466-70.574359-157.295466-157.311839C354.140181 214.920276 424.697143 144.344894 511.435647 144.344894M598.820879 738.60541 424.049391 738.60541l0-93.069699c-33.385365-8.619308-64.75584-21.965268-93.497441-39.409568L264.262174 672.417965 140.691811 548.830205l67.691705-67.689658c-16.334014-28.435633-28.674063-59.344596-36.525891-92.080162L74.504366 389.060385l0-174.773536 100.323916 0c8.635681-31.248701 21.471011-60.639079 37.906332-87.727017l-72.042803-72.042803L264.262174-69.085056l73.458035 73.476455c26.76355-15.377222 55.726186-27.155477 86.329181-35.040051l0-104.607476 174.771489 0L598.820879-30.648652c30.602995 7.884574 59.566654 19.662829 86.328158 35.040051l73.458035-73.458035 123.571387 123.58469-72.042803 72.042803c16.437367 27.087938 29.27065 56.477292 37.908378 87.727017l100.322893 0L948.366927 389.060385l-97.354282 0c-7.850805 32.736589-20.189831 63.645552-36.524868 92.080162l67.690682 67.689658L758.607072 672.417965l-66.288752-66.290799c-28.740578 17.443277-60.112076 30.789237-93.497441 39.409568L598.820879 738.60541 598.820879 738.60541zM511.435647 179.301034c-67.588351 0-122.341373 54.784744-122.341373 122.373095 0 67.588351 54.751998 122.357745 122.341373 122.357745 67.587328 0 122.340349-54.769394 122.340349-122.357745C633.775996 234.085778 579.022974 179.301034 511.435647 179.301034L511.435647 179.301034z"  horiz-adv-x="1024" />

    
    <glyph glyph-name="all-list" unicode="&#58921;" d="M399.686517 831.766047L121.50789 831.766047c-40.929178 0-74.161047-33.443693-74.161047-74.704422l0-261.425058c0-41.261753 33.231869-74.706469 74.161047-74.706469l352.371396 0L473.879286 757.060601C473.879286 798.322353 440.677093 831.766047 399.686517 831.766047zM418.250314 476.950995L158.634462 476.950995c-30.726815 0-55.659671 25.112957-55.659671 56.021921L102.974791 719.722204c0 30.93864 24.931832 56.021921 55.659671 56.021921l203.984834 0c30.727839 0 55.629995-25.082258 55.629995-56.021921L418.249291 476.950995zM900.443451 831.766047L622.265848 831.766047c-40.990576 0-74.193793-33.443693-74.193793-74.704422l0-336.13255 352.371396 0c40.930201 0 74.16207 33.444716 74.16207 74.706469L974.605521 757.060601C974.604498 798.322353 941.373653 831.766047 900.443451 831.766047zM918.97655 532.9729159999999c0-30.908964-24.932856-56.021921-55.660694-56.021921L603.700003 476.950995 603.700003 719.722204c0 30.93864 24.90318 56.021921 55.629995 56.021921L863.315856 775.7441249999999c30.726815 0 55.660694-25.082258 55.660694-56.021921L918.97655 532.9729159999999zM47.347866 271.547859l0-261.426081c0-41.261753 33.231869-74.706469 74.161047-74.706469L399.686517-64.58469200000002c40.990576 0 74.192769 33.444716 74.192769 74.706469L473.879286 346.25330399999996 121.50789 346.25330399999996C80.578712 346.25330399999996 47.347866 312.81063400000005 47.347866 271.547859zM418.250314 290.23240599999997l0-242.772232c0-30.937616-24.902156-56.021921-55.629995-56.021921L158.634462-8.561746999999968c-30.726815 0-55.659671 25.084305-55.659671 56.021921L102.974791 234.21048499999995c0 30.906917 24.931832 56.021921 55.659671 56.021921L418.250314 290.23240599999997zM900.443451 346.25330399999996L548.072055 346.25330399999996l0-336.131527c0-41.261753 33.203216-74.706469 74.193793-74.706469l278.177604 0c40.930201 0 74.16207 33.444716 74.16207 74.706469L974.605521 271.547859C974.604498 312.81063400000005 941.373653 346.25330399999996 900.443451 346.25330399999996zM918.97655 47.46017400000005c0-30.937616-24.932856-56.021921-55.660694-56.021921L659.329998-8.561746999999968c-30.726815 0-55.629995 25.084305-55.629995 56.021921L603.700003 290.23240599999997 863.315856 290.23240599999997c30.726815 0 55.660694-25.115004 55.660694-56.021921L918.97655 47.46017400000005z"  horiz-adv-x="1024" />

    
    <glyph glyph-name="trash" unicode="&#59467;" d="M682 640L682 698c0 38.2-29 70-69 70L410.8 768C371 768 342 736.2 342 698l0-58L160 640l0-64 18.4 0c0 0 10.8-1.2 16.4-6.8 5.6-5.6 7.8-18 7.8-18l38-483.4c3-58.8 3-67.8 72-67.8l398.8 0c69 0 69 8.8 72 67.6l38 483.2c0 0 2.2 12.6 7.8 18.2 5.6 5.6 16.4 6.8 16.4 6.8l18.4 0 0 64-182 0L682 640zM384 698c0 19.2 15.6 30 35.4 30l183.4 0c19.8 0 37.2-11 37.2-30l0-58L384 640 384 698zM367 128l-20.6 384 40.6 0L408 128 367 128zM534.2 128l-44 0L490.2 512l44 0L534.2 128zM657.4 128l-40.8 0 21 384 40.6 0L657.4 128z"  horiz-adv-x="1024" />

    
    <glyph glyph-name="plus" unicode="&#59439;" d="M185.89696 279.7248l286.72 0 0-286.72c0-11.32544 9.17504-20.48 20.48-20.48s20.48 9.15456 20.48 20.48l0 286.72 286.72 0c11.30496 0 20.48 9.15456 20.48 20.48s-9.17504 20.48-20.48 20.48l-286.72 0 0 286.72c0 11.32544-9.17504 20.48-20.48 20.48s-20.48-9.15456-20.48-20.48l0-286.72-286.72 0c-11.30496 0-20.48-9.15456-20.48-20.48S174.592 279.7248 185.89696 279.7248z"  horiz-adv-x="1024" />

    
    <glyph glyph-name="home" unicode="&#59194;" d="M1017.395271 189.152l-452.0448 499.6096c-14.0288 15.5136-32.9728 24.064-53.3504 24.064 0 0 0 0 0 0-20.3264 0-39.2704-8.5504-53.3504-24.064l-452.0448-499.6096c-9.472-10.496-8.6528-26.6752 1.792-36.1472 4.9152-4.4544 11.0592-6.6048 17.152-6.6048 6.9632 0 13.9264 2.816 18.9952 8.448l109.0048 120.4736 0-410.5216c0-42.3424 34.4576-76.8 76.8-76.8l563.2 0c42.3424 0 76.8 34.4576 76.8 76.8l0 410.5216 109.0048-120.4736c9.472-10.496 25.6512-11.3152 36.1472-1.792s11.3152 25.6512 1.792 36.1472zM614.400071-160.8l-204.8 0 0 230.4c0 14.1312 11.4688 25.6 25.6 25.6l153.6 0c14.1312 0 25.6-11.4688 25.6-25.6l0-230.4zM819.200071-135.2c0-14.1312-11.4688-25.6-25.6-25.6l-128 0 0 230.4c0 42.3424-34.4576 76.8-76.8 76.8l-153.6 0c-42.3424 0-76.8-34.4576-76.8-76.8l0-230.4-128 0c-14.1312 0-25.6 11.4688-25.6 25.6l0 467.0976 291.84 322.56c4.1984 4.6592 9.6768 7.2192 15.36 7.2192s11.1616-2.56 15.36-7.2192l291.84-322.56 0-467.0976z"  horiz-adv-x="1025" />

    
    <glyph glyph-name="info" unicode="&#58980;" d="M571.781036 116.521199c-12.456706 0-21.218254 1.967818-26.304086 5.960759-5.046946 3.992941-7.589862 11.463076-7.589862 22.449291 0 4.370541 0.794086 10.809183 2.384303 19.311835 1.529843 8.503675 3.298116 16.093537 5.244444 22.728654l24.060999 82.689281c2.323928 7.569396 3.953032 15.893992 4.827959 24.984021 0.873903 9.109472 1.310855 15.437597 1.310855 19.052938 0 17.414625-6.317892 31.579229-18.87386 42.487673-12.596899 10.887978-30.497595 16.330944-53.722552 16.330944-12.874215 0-26.542516-2.24411-40.987506-6.685259-14.442944-4.440126-29.54285-9.804297-45.358047-16.053628l-6.436596-25.569352c4.688789 1.708921 10.29139 3.486404 16.847713 5.40408 6.556323 1.89721 12.954033 2.831488 19.192108 2.831488 12.715603 0 21.298072-2.095731 25.808806-6.248308 4.50971-4.172019 6.755868-11.562337 6.755868-22.182208 0-5.851265-0.735757-12.338003-2.205225-19.440771-1.470491-7.082302-3.25923-14.632255-5.424546-22.579251l-24.13877-82.966597c-2.146896-8.702196-3.715625-16.530488-4.688789-23.443945-0.954745-6.874571-1.430582-13.688767-1.430582-20.305465 0-17.066701 6.458085-31.112602 19.411095-42.198078 12.974499-11.086499 31.152511-16.609283 54.537104-16.609283 15.21861 0 28.54922 1.946328 40.053228 5.820566 11.523451 3.874237 26.900673 9.516748 46.212508 16.907065l6.417153 25.569352c-3.318582-1.529843-8.68173-3.27765-16.053628-5.26491C584.2183 117.495386 577.622068 116.521199 571.781036 116.521199M556.523541 523.949538c-15.795754 0-29.345352-5.106298-40.649815-15.338337-11.305487-10.221806-16.96744-22.539342-16.96744-36.944424s5.661953-26.65201 16.96744-36.784788c11.304464-10.131755 24.854061-15.199167 40.649815-15.199167 15.774265 0 29.283953 5.066389 40.489156 15.199167 11.205203 10.132778 16.808828 22.38073 16.808828 36.784788s-5.603625 26.721595-16.808828 36.944424C585.807495 518.842217 572.297806 523.949538 556.523541 523.949538M511.999488 747.579805c-247.174496 0-447.579805-200.424752-447.579805-447.579805 0-247.193939 200.405309-447.579805 447.579805-447.579805s447.579805 200.384843 447.579805 447.579805C959.579293 547.15403 759.173984 747.579805 511.999488 747.579805M511.999488-106.890081c-224.723158 0-406.891104 182.166923-406.891104 406.890081S287.275307 706.890081 511.999488 706.890081s406.890081-182.166923 406.890081-406.890081S736.722646-106.890081 511.999488-106.890081"  horiz-adv-x="1024" />

    
    <glyph glyph-name="project" unicode="&#58925;" d="M816.123 722.813c1.132 0 1.631-0.621 2.178-1.18 0.43-0.237 0.891-0.511 1.347-0.754 0.142-0.004 0.287-0.080 0.48-0.080 0 0-2.006 2.006-4.026 2.006v0zM794.080 728.829v0c-5.474 1.81-12.622 1.983-19.899 2.006 6.96-0.004 12.622-0.195 19.899-2.006v0zM699.886 620.617c-16.043-2.006-28.051-14.032-28.051-30.060v-1.984c2.006-16.043 14.032-28.051 30.060-28.051 16.012 2.006 28.045 14.032 28.045 30.060v2.006c-2.006 16.012-14.047 28.045-30.054 28.045v0zM180.844 618.603h402.805v-54.115h-402.805v54.115zM918.124 78.685c-0.677-0.288-1.299-0.663-1.81-1.181 0.512 0.479 1.133 0.857 1.81 1.181v0zM970.434 831.026c-20.053 16.043-46.094 24.046-72.155 24.046h-627.261c-28.051 0-54.115-8.007-72.139-24.046-20.053-18.021-32.059-42.096-32.059-66.133v-32.059h-20.053c-28.051 0-54.099-8.007-72.155-24.046-22.034-20.053-34.064-44.097-34.064-70.151v-651.311c0-26.063 12.034-50.1 32.059-66.133 20.053-16.044 46.087-24.069 72.139-24.069h625.251c28.051 0 54.115 8.007 72.155 24.069 20.053 18.020 34.071 42.070 34.071 66.133v32.059h18.021c28.051 0 54.115 8.007 72.139 24.046 20.053 18.064 32.059 42.096 32.059 66.133v653.341c4.022 26.032-8.027 50.092-28.051 68.116v0zM94.653 638.642c0 20.053 24.065 36.063 52.116 36.063h625.279c28.051 0 52.1-16.043 52.1-36.063v-122.26h-729.466l-0.002 122.26zM894.286 73.486h-18.064v565.141c0 8.007 0 14.032-1.984 22.041 0 2.006 0 2.006-2.006 4.016 0 2.006 0 2.006-2.006 4.022 0 1.984 0 1.984-1.984 4.016 0 2.006-2.006 2.006-2.006 4.016-2.006 2.006-2.006 4.022-4.016 6.014-2.006 2.006-4.026 6.011-6.028 8.007-1.983 4.016-6.011 6.011-8.004 10.020-1.984 2.006-4.022 4.022-8.007 6.014l-4.022 4.016-1.984 2.006c-2.006 0-2.006 2.006-4.022 2.006-2.939 1.468-6.977 4.026-10.503 6.061-0.605 0.103-0.996 0.422-1.347 0.754-0.753 0.423-1.526 0.854-2.178 1.181-1.983 0-1.983 1.984-4.016 1.984s-4.016 2.006-6.011 2.006h-2.006c-4.016 0-6.011 2.006-10.020 2.006v0 0 0h-6.011c-7.955 1.983-13.948 2.006-21.868 2.006h5.834c0.707 0 1.433 0 2.14 0-0.706 0-1.431 0-2.14 0h-553.107v32.059c0 4.016 0 8.007 1.984 12.034s4.022 6.014 8.004 10.020c10.020 10.020 24.065 16.043 42.096 16.043h625.251c28.045 0 52.1-16.043 52.1-36.063v-651.316c0-4.016-6.859-19.813-19.886-28.81-13.023-8.982-32.211-11.232-34.238-11.232v0z"  horiz-adv-x="1024" />

    
    <glyph glyph-name="todo-list" unicode="&#59297;" d="M128 832C128 746.666669 128 661.333331 128 576 213.333331 576 298.666669 576 384 576 384 661.333331 384 746.666669 384 832 298.666669 832 213.333331 832 128 832ZM448 832C448 810.666669 448 789.333331 448 768 618.666669 768 789.333312 768 960 768 960 789.333331 960 810.666669 960 832 789.333312 832 618.666669 832 448 832ZM164.624998 795.375002c60.916666 0 121.833338 0 182.750003 0 0-60.916666 0-121.833338 0-182.750003-60.916666 0-121.833338 0-182.750003 0 0 60.916666 0 121.833338 0 182.750003z m156-26.750003C294.791667 742.749997 268.95833 716.875002 243.124998 691 225.875002 708.250003 208.624998 725.5 191.375002 742.750003 185.5808 731.860454 156.89783 720.998611 172.416736 710.083258 195.986157 686.513837 219.555571 662.944416 243.124998 639.375002 277.583341 673.833331 312.041664 708.291667 346.5 742.750003 337.875002 751.375002 329.249997 760 320.624998 768.624998ZM448 704C448 682.666669 448 661.333331 448 640 533.333331 640 618.666669 640 704 640 704 661.333331 704 682.666669 704 704 618.666669 704 533.333331 704 448 704ZM128 512c0-85.333331 0-170.666669 0-256 85.333331 0 170.666669 0 256 0C384 341.33333100000004 384 426.666669 384 512 298.666669 512 213.333331 512 128 512ZM448 512C448 490.666669 448 469.333331 448 448 618.666669 448 789.333312 448 960 448 960 469.333331 960 490.666669 960 512 789.333312 512 618.666669 512 448 512ZM164.624998 475.375002c60.916666 0 121.833338 0 182.750003 0 0-60.916666 0-121.833338 0-182.750003-60.916666 0-121.833338 0-182.750003 0 0 60.916666 0 121.833338 0 182.750003z m156-26.750003C294.791667 422.749997 268.95833 396.875002 243.124998 371 225.875002 388.250003 208.624998 405.5 191.375002 422.750003 185.5808 411.860454 156.89783 400.998611 172.416736 390.083258 195.986157 366.51383699999997 219.555571 342.94441600000005 243.124998 319.375002 277.583341 353.83333100000004 312.041664 388.291667 346.5 422.750003 337.875002 431.375002 329.249997 440 320.624998 448.624998ZM448 391.624998C448 367.749997 448 343.875002 448 320c95.583341 0 191.166675 0 286.750016 0 0 23.875002 0 47.749997 0 71.624998-95.583341 0-191.166675 0-286.750016 0zM128 192c0-85.333312 0-170.666688 0-256 85.333331 0 170.666669 0 256 0 0 85.333312 0 170.666688 0 256-85.333331 0-170.666669 0-256 0z m320 0c0-21.333312 0-42.666688 0-64 170.666669 0 341.333312 0 512 0 0 21.333312 0 42.666688 0 64-170.666688 0-341.333331 0-512 0z m-283.375002-36.625024c60.916666 0 121.833338 0 182.750003 0 0-60.916672 0-121.83328 0-182.749952-60.916666 0-121.833338 0-182.750003 0 0 60.916672 0 121.83328 0 182.749952zM448 64c0-21.333312 0-42.666688 0-64 85.333331 0 170.666669 0 256 0 0 21.333312 0 42.666688 0 64-85.333331 0-170.666669 0-256 0z"  horiz-adv-x="1024" />

    
    <glyph glyph-name="approve" unicode="&#59397;" d="M338.881151 359.647359c-3.718695-4.64888-18.594497-21.199835-21.568225-25.291013-14.690584-20.264533-18.594497-52.064796-12.833283-71.584362 7.999185-27.519774 35.518958-30.498618 55.782467-32.540114 47.230698-4.64888 95.205339-1.489934 142.807497-1.489934 46.485731 0 92.971461 0.558725 139.457192-0.186242 27.519774-0.557702 50.574862 7.063883 62.101383 32.911574 12.275581 27.519774 5.951549 53.735855-14.875802 75.866898-7.250124 7.806803-14.871709 15.429411-22.499433 23.057135-17.477047 17.477047-17.105586 34.955116-1.670036 53.734832 14.3181 17.477047 29.003568 34.95921 41.091884 53.921074 65.080228 102.45444 42.396599 235.9652-52.251038 311.826981-95.205339 76.423577-233.731322 69.355601-319.448566-16.174378-93.157703-92.971461-78.094636-246.37427 4.834098-350.132402C359.149776 389.022387 350.407672 373.964436 338.881151 359.647359L338.881151 359.647359 338.881151 359.647359zM894.476041 110.294245c-0.186242 50.022277-21.568225 75.493391-70.6552 75.679633-213.46679 0.373507-426.742221 0.373507-640.203894-0.186242-48.900733-0.186242-69.542866-23.801079-70.28681-71.957869-0.373507-22.502503 0-58.016345 0-82.933851L894.476041 30.895917 894.476041 110.294245 894.476041 110.294245 894.476041 110.294245zM157.028383-60.585611l691.893136 0L848.921519 10.632407 157.028383 10.632407 157.028383-60.585611 157.028383-60.585611 157.028383-60.585611zM157.028383-60.585611"  horiz-adv-x="1024" />

    
    <glyph glyph-name="paste" unicode="&#59309;" d="M438.857143-54.857143l512 0 0 365.714286-237.714286 0q-22.857143 0-38.857143 16t-16 38.857143l0 237.714286-219.428571 0 0-658.285714zm146.285714 822.857143l0 36.571429q0 7.428571-5.428571 12.857143t-12.857143 5.428571l-402.285714 0q-7.428571 0-12.857143-5.428571t-5.428571-12.857143l0-36.571429q0-7.428571 5.428571-12.857143t12.857143-5.428571l402.285714 0q7.428571 0 12.857143 5.428571t5.428571 12.857143zm146.285714-384l170.857143 0-170.857143 170.857143 0-170.857143zm292.571429-73.142857l0-384q0-22.857143-16-38.857143t-38.857143-16l-548.571429 0q-22.857143 0-38.857143 16t-16 38.857143l0 91.428571-310.857143 0q-22.857143 0-38.857143 16t-16 38.857143l0 768q0 22.857143 16 38.857143t38.857143 16l621.714286 0q22.857143 0 38.857143-16t16-38.857143l0-187.428571q12-7.428571 20.571429-16l233.142857-233.142857q16-16 27.428571-43.428571t11.428571-50.285714z"  horiz-adv-x="1024" />

    
    <glyph glyph-name="edit" unicode="&#59132;" d="M290.965861 162.965861l171.506119 29.41596 462.161918 462.161918c18.189268 18.189268 29.434379 43.306318 29.434379 71.054289 0 55.493895-44.977377 100.470249-100.470249 100.470249-27.747971 0-52.866045-11.244089-71.036893-29.433356L320.399217 334.47198 290.965861 162.965861zM810.976302 768.219755c10.911514 10.911514 25.981744 17.660218 42.621726 17.660218 33.280987 0 60.281945-26.999934 60.281945-60.281945 0-16.639982-6.749728-31.730679-17.661242-42.641169l-25.981744-25.961278-85.24243 85.24243L810.976302 768.219755zM756.581438 713.824891l85.24243-85.24243L471.811696 258.5488l0 85.262896L386.568243 343.811696 756.581438 713.824891zM356.703051 303.624415l74.921363 0 0-74.92034-90.423429-15.502066L356.703051 303.624415zM933.973614 524.658554c-11.105942 0-20.093641-9.006118-20.093641-20.093641l0-442.068278c0-44.387953-35.988656-80.375585-80.375585-80.375585L190.495612-17.87895c-44.387953 0-80.375585 35.988656-80.375585 80.375585L110.120027 705.504388c0 44.387953 35.988656 80.375585 80.375585 80.375585l442.068278 0c11.105942 0 20.093641 8.987698 20.093641 20.093641 0 11.087523-8.988722 20.093641-20.093641 20.093641l-442.068278 0c-66.582441 0-120.56389-53.982472-120.56389-120.56389l0-643.008776c0-66.601884 53.982472-120.56389 120.56389-120.56389l643.008776 0c66.600861 0 120.56389 53.962006 120.56389 120.56389l0 442.068278C954.068278 515.652436 945.079556 524.658554 933.973614 524.658554z"  horiz-adv-x="1024" />

    
    <glyph glyph-name="result" unicode="&#58900;" d="M774.4 768L160 768C121.6 768 83.2 736 83.2 697.6l0-748.8c0-38.4 32-76.8 76.8-76.8l614.4 0c44.8 0 76.8 32 76.8 76.8L851.2 697.6C851.2 736 819.2 768 774.4 768zM787.2-32c0-19.2-12.8-32-32-32l-576 0c-19.2 0-32 12.8-32 32l0 704C147.2 691.2 166.4 704 179.2 704l576 0c19.2 0 32-12.8 32-32L787.2-32zM627.2 512l-320 0C294.4 512 275.2 524.8 275.2 544l0 0C275.2 563.2 294.4 576 307.2 576l320 0c19.2 0 32-12.8 32-32l0 0C659.2 524.8 646.4 512 627.2 512zM563.2 819.2l-192 0C358.4 819.2 339.2 832 339.2 851.2l0 0c0 19.2 12.8 32 32 32l192 0c19.2 0 32-12.8 32-32l0 0C595.2 832 582.4 819.2 563.2 819.2zM627.2 288l-320 0C294.4 288 275.2 307.20000000000005 275.2 320l0 0c0 19.2 12.8 32 32 32l320 0c19.2 0 32-12.8 32-32l0 0C659.2 307.20000000000005 646.4 288 627.2 288zM627.2 70.39999999999998l-320 0c-19.2 0-32 12.8-32 32l0 0c0 19.2 12.8 32 32 32l320 0c19.2 0 32-12.8 32-32l0 0C659.2 83.20000000000005 646.4 70.39999999999998 627.2 70.39999999999998z"  horiz-adv-x="1024" />

    
    <glyph glyph-name="clone" unicode="&#60171;" d="M125.629255 233.355001l0 569.087183c0.055259 0.484024 0.923022 1.351787 1.388627 1.407046l569.08616 0c0.485047-0.055259 1.351787-0.923022 1.407046-1.38965l0-83.692121 30.699186 0L728.210273 802.45958c0 17.394159-14.694677 32.087812-32.087812 32.087812L127.016859 834.547393c-17.393135 0-32.087812-14.694677-32.087812-32.087812L94.929046 233.355001c0-17.393135 14.694677-32.086789 32.087812-32.086789l83.692121 0 0 30.699186-83.673701-0.001023C126.551254 232.021633 125.683491 232.888374 125.629255 233.355001zM896.982118 700.640614 327.877539 700.640614c-54.611805 0-99.041714-44.429909-99.041714-99.041714l0-569.104579c0-54.611805 44.429909-99.041714 99.041714-99.041714l569.104579 0c54.611805 0 99.041714 44.429909 99.041714 99.041714L996.023832 601.5989C996.023832 656.210705 951.593923 700.640614 896.982118 700.640614zM965.324646 32.494321c0-37.684274-30.658254-68.342528-68.342528-68.342528L327.877539-35.848207c-37.684274 0-68.342528 30.658254-68.342528 68.342528L259.535011 601.5989c0 37.684274 30.658254 68.342528 68.342528 68.342528l569.104579 0c37.684274 0 68.342528-30.658254 68.342528-68.342528L965.324646 32.494321z"  horiz-adv-x="1024" />

    
    <glyph glyph-name="export" unicode="&#58961;" d="M844.73722 305.756985 723.304544 151.653211c-3.168156-3.717671-10.603499-11.234879-20.255323-11.234879-7.515161 0-14.160511 4.665253-17.797341 12.421914-2.533706 5.298679-3.717671 12.022825-3.717671 21.043269l0 87.573521c-35.048237 0.949628-137.179312-6.964622-196.826807-126.814244-3.87833-7.752568-9.969049-12.258185-16.691147-12.258185l-6.331195 0-5.14109 5.375427c-5.221932 6.012947-4.985548 13.843286-4.904707 16.375969 1.50426 45.805232 20.094664 270.320659 236.144278 280.20989l0 72.225975c-0.316202 4.193509-0.23536 13.371542 5.616928 20.648272 6.64535 8.390088 17.405415 10.366092 29.744441 4.429893l2.927679-1.423419 121.276111-145.403624c2.449795-3.165086 12.737092-17.406438 12.737092-34.017768C860.084767 323.401854 847.267856 308.530145 844.73722 305.756985L844.73722 305.756985zM824.87894 353.066477 717.525933 481.782024l0.080841-89.948615-14.950504 0c-153.872506 0-201.019293-115.500571-215.340463-194.217377 64.633043 86.388533 151.181211 96.828302 189.154058 96.828302 13.368472 0 21.75549-1.342578 22.070668-1.342578l12.81691-2.056845 0-104.425328L822.982754 328.307583c3.953032 4.427846 7.197936 10.281157 7.278777 12.498662C830.261531 344.207715 827.174216 350.136751 824.87894 353.066477L824.87894 353.066477zM732.243123 581.459211l-36.866652 0c-0.632403 15.426341-4.90266 29.824259-11.864212 42.168402l-0.080841 0c-9.492188 16.84976-24.209378 29.903054-41.533952 36.386722-0.079818 0-0.079818 0-0.079818 0-1.423419 0.556679-2.847861 1.030469-4.351098 1.423419-0.156566 0.082888-0.39295 0.161682-0.554632 0.23843-0.709151 0.157589-1.342578 0.318248-2.056845 0.558725-0.312108 0.074701-0.709151 0.155543-1.107217 0.23536-0.945535 0.23843-1.896186 0.473791-2.847861 0.633427-0.633427 0.152473-1.187035 0.23536-1.738597 0.314155-0.474814 0.078795-1.027399 0.157589-1.50426 0.314155-0.789992 0.080841-1.50426 0.161682-2.294252 0.23843-0.39295 0.078795-0.86981 0.157589-1.342578 0.157589-0.949628 0.157589-1.90028 0.23843-2.771113 0.23843-0.39295 0-0.789992 0.080841-1.107217 0.080841-1.106194 0.080841-2.213411 0.080841-3.319605 0.080841-0.001023 0-0.079818 0-0.161682 0L279.415804 664.528138c-43.509956 0-78.715783-38.844703-78.715783-86.785575l0-390.014738c0-47.937802 35.205826-84.329641 78.715783-84.329641l337.327772 0c7.91118 0 15.582907 1.26583 22.780843 3.559059l67.403133 0c-20.170388-27.056216-50.789757-44.222177-85.042885-44.222177L274.194896 62.735066c-60.916395 0-110.280686 54.428633-110.280686 121.67213L163.91421 583.596897c0 67.243497 49.365314 121.670084 110.280686 121.670084l348.240309 0c0.316202 0 0.635473 0 0.950651 0 0.63445 0 1.266853 0 1.977028-0.080841 46.912449-1.342578 86.548168-34.965349 101.262288-81.559551l-0.553609 0c3.954055-12.500709 6.170536-26.031886 6.170536-40.030715L732.2421 581.459211 732.243123 581.459211zM256.31262 468.965114l0 40.585347 319.368748 0 0-40.585347L256.31262 468.965114 256.31262 468.965114zM256.31262 361.766626 256.31262 402.35402l233.774301 0 0-40.587394L256.31262 361.766626 256.31262 361.766626zM256.31262 258.373815l0 40.583301 166.607552 0 0-40.583301L256.31262 258.373815 256.31262 258.373815z"  horiz-adv-x="1024" />

    
    <glyph glyph-name="business" unicode="&#58990;" d="M186.972369 214.73389799999995c17.685801-30.628578 57.379848-46.814212 114.788349-46.814212 0 0 0 0 0.028653 0 25.814945 0 54.208623 3.632737 83.829244 9.858532 28.509311-87.35965 74.026994-143.211702 126.404921-143.211702 52.378951 0 97.895611 55.852052 126.405945 143.211702 29.633924-6.211469 58.042951-9.858532 83.84357-9.858532l0 0c57.379848 0 97.088222 16.185634 114.759697 46.814212 22.88829 39.666418 2.63706 106.299001-66.791196 180.168406 69.429279 73.868381 89.680509 140.501988 66.791196 180.168406-17.684778 30.628578-57.379848 46.814212-114.788349 46.814212-25.814945 0-54.223972-3.632737-83.84357-9.858532-28.494984 87.35965-73.998341 143.211702-126.391618 143.211702s-97.895611-55.852052-126.405945-143.211702c-29.633924 6.241145-58.057277 9.858532-83.84357 9.858532-57.408501 0-97.116875-16.185634-114.788349-46.814212-22.873963-39.666418-2.638083-106.299001 66.792219-180.168406C184.335309 321.03290000000004 164.069753 254.40031699999997 186.972369 214.73389799999995L186.972369 214.73389799999995zM512.024559 57.080276000000026c-41.409109 0-79.187527 49.52495-104.208387 125.641535 33.842783 8.576329 69.054749 20.726044 104.208387 36.005029 35.154661-15.292288 70.352301-27.427676 104.20941-36.005029C591.212086 106.60420199999999 553.449018 57.080276000000026 512.024559 57.080276000000026L512.024559 57.080276000000026zM376.897999 394.902304c0 26.218128 1.397836 51.729152 3.777023 76.420507 20.10592 14.010085 41.36613 27.659967 63.779605 40.602743 22.167882 12.784164 44.840254 24.257473 67.569932 34.519188 22.730701-10.248412 45.403073-21.706371 67.569932-34.519188 22.413476-12.929474 43.644009-26.578332 63.780629-40.602743 2.391467-24.690332 3.776-50.201355 3.776-76.420507 0-26.217105-1.397836-51.730175-3.776-76.420507-20.106943-14.010085-41.36613-27.659967-63.780629-40.602743-22.166859-12.784164-44.839231-24.257473-67.569932-34.519188-22.729677 10.248412-45.402049 21.706371-67.569932 34.519188-22.412452 12.929474-43.644009 26.578332-63.779605 40.602743C378.282532 343.17212900000004 376.897999 368.68315299999995 376.897999 394.902304L376.897999 394.902304zM356.576161 335.836047c-25.814945 19.386536-49.178049 39.306214-69.501934 59.066257 20.308535 19.775392 43.686988 39.679721 69.501934 59.066257-1.326205-19.227923-2.205225-38.844703-2.205225-59.066257S355.248933 355.06397100000004 356.576161 335.836047L356.576161 335.836047zM384.120494 501.072369c4.136204 30.195719 9.959839 58.647725 17.20894 84.548628 26.909883-6.774287 54.843072-16.142655 82.920548-27.457352-17.165961-8.316409-34.274618-17.051351-51.052746-26.737968C415.785681 521.365554 399.686005 511.21845 384.120494 501.072369L384.120494 501.072369 384.120494 501.072369zM539.756157 558.163645c28.077475 11.30037 56.010665 20.668739 82.920548 27.457352 7.250124-25.900903 13.05841-54.338582 17.209964-84.548628-15.537881 10.160407-31.66621 20.293185-49.077765 30.354332C574.060451 541.111271 556.936445 549.8462119999999 539.756157 558.163645L539.756157 558.163645zM667.458631 453.968561c25.829272-19.386536 49.193399-39.277562 69.501934-59.066257-20.308535-19.775392-43.686988-39.679721-69.501934-59.066257 1.326205 19.227923 2.205225 38.844703 2.205225 59.066257S668.785859 434.740638 667.458631 453.968561L667.458631 453.968561zM639.914298 288.73224000000005c-4.15053-30.195719-9.959839-58.647725-17.20894-84.548628-26.909883 6.774287-54.843072 16.142655-82.920548 27.457352 17.180288 8.287757 34.304294 17.051351 51.081399 26.737968C608.249111 268.43905400000006 624.348788 278.58513500000004 639.914298 288.73224000000005L639.914298 288.73224000000005zM433.197236 258.37790800000005c16.777105-9.685593 33.900088-18.449187 51.081399-26.737968-28.077475-11.30037-56.010665-20.668739-82.920548-27.457352-7.250124 25.900903-13.05841 54.338582-17.209964 84.548628C399.686005 278.571832 415.785681 268.43905400000006 433.197236 258.37790800000005L433.197236 258.37790800000005zM817.560254 225.99129000000005c-13.245675-22.945595-47.074132-35.557844-95.258551-35.557844-23.781636 0-49.956785 3.285836-77.285201 8.893554 8.922207 32.069393 15.609513 67.74287 19.74674 106.024755 34.82311 24.417109 64.212464 48.818869 88.728834 72.716138 57.019645-60.406788 83.915201-117.700679 64.068178-152.09093L817.560254 225.99129000000005 817.560254 225.99129000000005zM722.273051 599.371162c48.198745 0 82.040505-12.639878 95.257527-35.557844 19.862373-34.390251-7.04751-91.684142-64.067154-152.09093-24.531719 23.868617-53.921074 48.313356-88.728834 72.715115-4.151553 38.281885-10.838859 73.955362-19.74674 106.025779 27.341718 5.606695 53.531194 8.893554 77.285201 8.893554L722.273051 599.371162 722.273051 599.371162zM512.024559 732.710007c41.409109 0 79.187527-49.52495 104.20941-125.642558-33.842783-8.575306-69.054749-20.726044-104.20941-36.005029-35.153638 15.293311-70.351278 27.428699-104.208387 36.005029C432.837032 683.185057 470.601124 732.710007 512.024559 732.710007L512.024559 732.710007zM206.474538 563.813319c13.245675 22.945595 47.074132 35.557844 95.258551 35.557844 23.781636 0 49.956785-3.285836 77.298504-8.893554-8.922207-32.069393-15.609513-67.74287-19.74674-106.024755-34.82311-24.417109-64.212464-48.818869-88.728834-72.715115-57.019645 60.406788-83.915201 117.699656-64.067154 152.089907L206.474538 563.813319 206.474538 563.813319zM270.541693 378.08222c24.530696-23.868617 53.92005-48.313356 88.728834-72.715115 4.136204-38.281885 10.837836-73.956386 19.74674-106.025779-27.314089-5.607718-53.488215-8.893554-77.270874-8.893554l-0.028653 0c-48.198745 0-82.041528 12.640901-95.258551 35.557844-19.847024 34.390251 7.048533 91.684142 64.067154 152.09093L270.541693 378.08222 270.541693 378.08222zM512.024559 338.603067c31.032784 0 56.299237 25.252127 56.299237 56.299237 0 31.046087-25.266453 56.299237-56.299237 56.299237s-56.299237-25.252127-56.299237-56.299237C455.725322 363.856217 480.991776 338.603067 512.024559 338.603067L512.024559 338.603067zM512.024559 428.686758c18.622126 0 33.785477-15.163351 33.785477-33.785477s-15.163351-33.785477-33.785477-33.785477-33.785477 15.163351-33.785477 33.785477S493.402433 428.686758 512.024559 428.686758L512.024559 428.686758z"  horiz-adv-x="1024" />

    
    <glyph glyph-name="distribute" unicode="&#58942;" d="M854.393263 153.11494700000003H765.844211v-88.98021c0-32.229053-18.162526-53.894737-32.87579-53.894737H165.025684c-14.767158 0-32.875789 21.557895-32.875789 54.379789V738.896842c0 32.875789 18.108632 54.433684 32.875789 54.433684h568.050527c14.767158 0 32.821895-21.450105 32.821894-54.056421V631.915789h88.549053V739.274105c0 79.764211-54.433684 144.437895-121.370947 144.437895H164.917895C97.926737 883.658105 43.654737 818.661053 43.654737 738.842947v-674.277052c0-79.925895 54.433684-144.707368 121.370947-144.707369h568.050527c67.045053 0 121.370947 65.104842 121.370947 144.222316v88.926316zM679.989895 564.709053c15.629474 0 28.348632 20.210526 28.348631 45.163789 0 24.953263-12.719158 45.163789-28.348631 45.16379h-415.528421c-15.629474 0-28.348632-20.210526-28.348632-45.16379 0-24.953263 12.665263-45.163789 28.348632-45.163789h415.528421zM901.928421 384c23.498105 0 42.522947 20.210526 42.522947 45.163789 0 24.953263-19.024842 45.163789-42.522947 45.16379H278.635789c-23.498105 0-42.522947-20.210526-42.522947-45.16379 0-24.953263 19.024842-45.163789 42.522947-45.163789h623.292632zM516.473263 384h649.32379a44.732632 44.732632 0 0 1 44.247579 45.163789 44.732632 44.732632 0 0 1-44.247579 45.16379H516.473263a44.732632 44.732632 0 0 1-44.247579-45.16379 44.732632 44.732632 0 0 1 44.247579-45.163789zM957.386105 577.9132629999999l177.098106-180.655158a43.654737 43.654737 0 0 1 62.625684 0 45.810526 45.810526 0 0 1 0 63.865263l-177.098106 180.709053a43.654737 43.654737 0 0 1-62.625684 0 45.810526 45.810526 0 0 1 0-63.919158zM1020.011789 216.54905299999996l177.098106 180.709052a45.810526 45.810526 0 0 1 0 63.865263 43.654737 43.654737 0 0 1-62.625684 0l-177.098106-180.709052a45.810526 45.810526 0 0 1 0-63.865263 43.654737 43.654737 0 0 1 62.625684 0zM679.989895 203.29094699999996c15.629474 0 28.348632 20.210526 28.348631 45.16379 0 24.953263-12.719158 45.217684-28.348631 45.217684h-415.528421c-15.629474 0-28.348632-20.264421-28.348632-45.217684 0-24.953263 12.665263-45.163789 28.348632-45.16379h415.528421z"  horiz-adv-x="1239" />

    
    <glyph glyph-name="change-role" unicode="&#58899;" d="M537.6 155.56923099999995c-59.076923 23.630769-68.923077 45.292308-68.923077 68.923077 0 23.630769 15.753846 45.292308 35.446154 63.015384 35.446154 29.538462 51.2 76.8 51.2 126.03077 0 92.553846-57.107692 167.384615-163.446154 167.384615s-163.446154-74.830769-163.446154-167.384615c0-49.230769 15.753846-96.492308 51.2-126.03077 19.692308-17.723077 35.446154-39.384615 35.446154-63.015384 0-23.630769-9.846154-45.292308-68.923077-68.923077-86.646154-35.446154-169.353846-74.830769-171.323077-149.661539C78.769231-45.29230800000005 118.153846-88.61538499999995 167.384615-88.61538499999995h452.923077c49.230769 0 88.615385 43.323077 88.615385 92.553847-1.969231 74.830769-84.676923 116.184615-171.323077 151.630769zM876.307692 521.8461540000001c0 145.723077-120.123077 265.846154-265.846154 265.846154V856.6153850000001l-133.907692-108.307693c-5.907692-5.907692-3.938462-15.753846 1.969231-21.661538L610.461538 620.307692v68.923077c92.553846 0 167.384615-74.830769 167.384616-167.384615H708.923077l108.307692-133.907692c5.907692-5.907692 15.753846-5.907692 21.661539 0L945.230769 521.8461540000001h-68.923077z"  horiz-adv-x="1024" />

    
    <glyph glyph-name="filecenter" unicode="&#58947;" d="M1013.810945 325.412935l-142.646766 315.860697v208.875622c0 25.472637-20.378109 40.756219-40.756219 40.756219h-647.004975c-20.378109 0-35.661692-15.283582-35.661691-40.756219v-208.875622l-147.741294-326.049751V-87.243781c0-25.472637 15.283582-40.756219 40.756219-40.756219h932.298507c20.378109 0 35.661692 15.283582 45.850747 40.756219v387.18408c0 15.283582-5.094527 20.378109-5.094528 25.472636z m-96.79602 20.37811h-45.850746v106.985074l45.850746-106.985074z m-122.268656 473.791045v-473.791045h-91.701493c-25.472637 0-40.756219-20.378109-40.756219-40.756219 0-86.606965-66.228856-152.835821-152.835821-152.835821s-152.835821 66.228856-152.835821 152.835821c0 25.472637-20.378109 40.756219-40.756218 40.756219h-91.701493v473.791045h570.587065z m-647.004975-356.616916v-117.174129h-50.945274l50.945274 117.174129z m784.557213-509.452736h-850.786069v310.766169h203.781094c15.283582-112.079602 112.079602-193.59204 224.159204-193.59204s203.781095 86.606965 224.159204 193.59204h208.875622v-310.766169zM692.855721 636.179104h-371.900497c-20.378109 0-40.756219 15.283582-40.756219 40.756219s15.283582 40.756219 40.756219 40.756219h371.900497c20.378109 0 40.756219-15.283582 40.756219-40.756219s-20.378109-40.756219-40.756219-40.756219zM692.855721 447.681592h-371.900497c-20.378109 0-40.756219 15.283582-40.756219 40.756219s15.283582 40.756219 40.756219 40.756219h371.900497c20.378109 0 40.756219-15.283582 40.756219-40.756219s-20.378109-40.756219-40.756219-40.756219z"  horiz-adv-x="1024" />

    
    <glyph glyph-name="inspection" unicode="&#58906;" d="M680.807 684.902H204.898c-11.534 0-20.891-8.344-20.891-18.636 0-10.293 9.357-18.628 20.891-18.628h475.933c11.529 0 20.886 8.336 20.886 18.628 0.001 10.293-9.373 18.636-20.91 18.636z m20.874-152.17c0 10.292-9.357 18.636-20.89 18.636H204.874c-11.509 0-20.866-8.344-20.866-18.636 0-10.293 9.357-18.632 20.866-18.632h475.957c11.493 0 20.85 8.34 20.85 18.632zM204.858 417.81c-11.538 0-20.891-8.34-20.891-18.632 0-10.292 9.353-18.632 20.891-18.632h305.436c11.509 0 20.866 8.34 20.866 18.632 0 10.293-9.357 18.632-20.866 18.632H204.858z m239.286-133.554h-239.27c-11.529 0-20.891-8.36-20.891-18.628 0-10.297 9.361-18.636 20.891-18.636h239.27c11.534 0 20.891 8.34 20.891 18.636 0 10.268-9.357 18.628-20.891 18.628z m466.947-190.249h-53.457l-104.33 130.288c42.94 13.482 73.941 49.668 73.941 92.523 0 54.31-49.47 98.491-110.331 98.491-60.857 0-110.343-44.18-110.343-98.491 0-42.854 31.037-79.041 73.957-92.523L576.175 94.00699999999995h-53.432c-26.871 0-48.717-19.482-48.717-43.464v-70.054c0-23.978 21.847-43.485 48.717-43.485h388.303c26.871 0.016 48.738 19.507 48.738 43.505v70.054c0.02 23.962-21.823 43.444-48.693 43.444z m-262.745 222.81c0 33.75 30.736 61.23 68.566 61.23 37.839 0 68.57-27.46 68.57-61.23 0-33.538-30.386-60.815-67.94-61.141h-1.281c-37.484 0.326-67.915 27.579-67.915 61.141z m62.163-119.234l12.282 0.692 83.505-104.268H627.537l82.972 103.576z m207.579-217.115h-0.045v0.02c0-3.377-3.169-6.204-6.953-6.204H522.759c-3.783 0-6.957 2.827-6.957 6.204v70.03c0 3.381 3.173 6.208 6.957 6.208h388.352c3.779 0 6.977-2.827 6.977-6.208v-70.05z m-811.54 78.17V788.515c0 3.372 3.173 6.2 6.957 6.2h664.741c3.8 0 6.977-2.827 6.977-6.2v-350.567c15.659-7.058 29.755-16.456 41.757-27.704V788.515c0 23.982-21.867 43.489-48.734 43.489H113.505c-26.871 0-48.721-19.507-48.721-43.489v-729.877c0-23.982 21.851-43.489 48.721-43.489h318.74v35.393c0 0.651 0.207 1.241 0.224 1.896H113.505c-3.763 0.001-6.957 2.824-6.957 6.2z"  horiz-adv-x="1024" />

    
    <glyph glyph-name="report" unicode="&#59253;" d="M184 760v-759.2h664v759.2h-664z m612-704.8h-559.2v652h559.2v-652zM306.4 179.2h419.2v-52.8h-419.2zM306.4 276.8h419.2v-52.8h-419.2zM423.2 414.4l76.8-67.2 139.2 154.4 29.6-30.4 27.2 129.6-127.2-29.6 30.4-29.6-106.4-118.4-35.2 31.2-38.4 35.2-112-132 38.4-34.4z"  horiz-adv-x="1024" />

    
    <glyph glyph-name="finished-list" unicode="&#59036;" d="M426.8672 875.87584h0.49792a139.76192 139.76192 0 0 0 100.42496-42.96832 144.72832 144.72832 0 0 0 37.47584-67.64032h116.06528a22.20416 22.20416 0 0 0 21.85216-22.25792v-20.46848h99.64416c19.76704 0 35.9552-16.4992 35.9552-36.67712v-124.76928a201.99296 201.99296 0 0 0 109.88288-58.21056l1.06624-1.3056a213.248 213.248 0 0 0-1.06624-295.69408l-0.49792-0.512a208.07424 208.07424 0 0 0-109.38496-58.71744v-217.54368c0-20.46848-16.18816-36.96768-35.9552-36.96768H51.40736c-20.00512 0-36.18816 16.4992-36.18816 36.96768v756.7488a36.48 36.48 0 0 0 36.19328 36.67712h99.14624v20.46848a22.25152 22.25152 0 0 0 22.08384 22.26176h115.808a147.50592 147.50592 0 0 0 37.76 67.64416 139.40864 139.40864 0 0 0 100.65664 42.96448z m-68.30592-791.61216c-11.80416 0-21.56928 10.24-21.56928 22.28224a21.55776 21.55776 0 0 0 21.56928 21.77408h229.056a21.34528 21.34528 0 0 0 21.3312-21.77408c0-12.04864-9.504-22.28224-21.3312-22.28224h-229.056z m0 177.72544a21.7664 21.7664 0 0 0-21.56928 22.016c0 12.31488 9.76512 22.54848 21.56928 22.54848h112.72192c12.06528 0 21.8304-10.24 21.8304-22.54848a21.82016 21.82016 0 0 0-21.8304-22.016h-112.72192z m0 176.95104a21.68576 21.68576 0 0 0-21.56928 21.72672c0 12.60416 9.76512 22.54848 21.56928 22.54848h141.76128c12.3008 0 21.82912-9.94432 21.82912-22.54848a21.59232 21.59232 0 0 0-21.82912-21.72672H358.56128z m407.79264 122.39616v87.2896h-63.16672v-20.20096c0-12.31488-9.76512-22.49984-21.85216-22.49984H172.64256a22.28864 22.28864 0 0 0-22.09024 22.49984v20.20096H87.38688v-682.33472h678.96704V146.65855999999997a209.0816 209.0816 0 0 0-109.38496 58.71744 213.51296 213.51296 0 0 0 0 297.50784 201.67424 201.67424 0 0 0 109.38496 58.45248z m151.52128-89.90336a160.70528 160.70528 0 0 1-115.04896 49.01632c-45.20064 0-85.77792-18.87104-115.31008-49.01632a167.84128 167.84128 0 0 1 0-234.58048 160.384 160.384 0 0 1 230.35904 0c29.0112 29.32224 47.2384 71.54048 47.2384 116.87936a168.50304 168.50304 0 0 1-46.2144 116.66048l-1.024 1.04064zM157.7344 181.25567999999998h102.74816c12.3008 0 21.54496-9.96736 21.54496-22.54848v-104.29824c0-12.09728-9.24416-22.28224-21.54496-22.28224H157.7344c-11.80416 0-21.56928 10.18496-21.56928 22.28224V158.70719999999994c0 12.58112 9.76512 22.54848 21.56928 22.54848z m81.152-44.29824h-59.55968v-60.82304h59.56224v60.82304z m-81.152 221.78176h102.74816c12.3008 0 21.54496-10.24 21.54496-22.30656v-105.12c0-12.04864-9.24416-22.28352-21.54496-22.28352H157.7344c-11.80416 0-21.56928 10.24-21.56928 22.28352v105.12c0 12.06656 9.76512 22.30656 21.56928 22.30656z m81.152-44.5888h-59.55968v-60.53248h59.56224V314.1504z m-81.152 221.75744h102.74816a21.35808 21.35808 0 0 0 21.54496-21.74976v-105.09568c0-12.07296-9.24416-22.30656-21.54496-22.30656H157.7344c-11.80416 0-21.56928 10.24-21.56928 22.30656v105.09568a21.69088 21.69088 0 0 0 21.56928 21.74976z m81.152-44.29824h-59.55968v-60.82176h59.56224v60.81536z m648.1792-52.16128a21.51424 21.51424 0 0 0 30.81216 0 22.83776 22.83776 0 0 0 0-31.18464L780.74112 268.81152c-8.22528-8.9024-22.09024-8.9024-30.81344 0l-0.75776 0.768-61.90976 63.45984c-8.20096 8.10496-8.20096 22.28224 0 30.91968a21.55904 21.55904 0 0 0 30.81216 0l47.75936-48.24192 121.23648 123.7248zM520.3264 765.2672a104.28672 104.28672 0 0 1-23.34592 36.6976 97.248 97.248 0 0 1-69.6128 29.63712h-0.50048a97.024 97.024 0 0 1-69.87008-29.63712 101.08032 101.08032 0 0 1-23.08608-36.6976h186.41536z m-93.4592-44.544H194.21184v-70.25792h465.83808v70.25792H426.8672z"  horiz-adv-x="1024" />

    
    <glyph glyph-name="launch" unicode="&#59037;" d="M868.315429 201.14285700000005l-144.457143 144.457143a36.571429 36.571429 0 0 0 51.712 51.712l206.884571-206.884571a36.571429 36.571429 0 0 0 0-51.712l-206.884571-206.884572a36.571429 36.571429 0 0 0-51.712 51.712l144.457143 144.457143H475.428571a36.571429 36.571429 0 0 0 0 73.142857h392.886858zM236.909714 430.445714a256 256 0 1 0 292.425143-1.206857c8.411429-3.584 16.566857-7.424 24.429714-11.593143 29.037714-15.250286 48.822857-31.012571 59.721143-42.678857a36.571429 36.571429 0 1 0-53.504-49.883428c-5.558857 5.961143-19.017143 16.676571-40.228571 27.830857-36.827429 19.382857-81.773714 31.085714-135.424 31.085714a336.274286 336.274286 0 0 1-144.566857-31.780571c-14.592-6.875429-27.282286-14.226286-37.961143-21.430858a137.508571 137.508571 0 0 1-11.776-8.704 229.668571 229.668571 0 0 1-14.774857-14.189714c-11.849143-12.214857-23.771429-26.258286-34.816-41.801143C109.604571 222.72000000000003 91.428571 176.78628600000002 91.428571 130.55999999999995v-183.625143h495.286858a36.571429 36.571429 0 0 0 0-73.142857H54.857143a36.571429 36.571429 0 0 0-36.571429 36.571429V130.55999999999995c0 63.451429 23.661714 123.245714 62.537143 177.956571 22.966857 32.182857 45.933714 55.881143 61.659429 69.12 12.544 10.898286 34.816 25.965714 66.084571 40.740572 9.216 4.352 18.651429 8.374857 28.342857 12.068571zM384 457.142857a182.857143 182.857143 0 1 1 0 365.714286 182.857143 182.857143 0 0 1 0-365.714286z m-73.142857-329.142857a36.571429 36.571429 0 0 0 0 73.142857h36.571428a36.571429 36.571429 0 0 0 0-73.142857H310.857143z"  horiz-adv-x="1024" />

    


  </font>
</defs>
</svg>
