<?xml version="1.0" encoding="utf-8"?>
<!-- Generator: Adobe Illustrator 17.0.0, SVG Export Plug-In . SVG Version: 6.00 Build 0)  -->
<!DOCTYPE svg PUBLIC "-//W3C//DTD SVG 1.1//EN" "http://www.w3.org/Graphics/SVG/1.1/DTD/svg11.dtd">
<svg version="1.1" id="图层_1" xmlns="http://www.w3.org/2000/svg" xmlns:xlink="http://www.w3.org/1999/xlink" x="0px" y="0px"
	 width="206px" height="399px" viewBox="-546.5 1200 206 399" enable-background="new -546.5 1200 206 399" xml:space="preserve">
<g id="图层_2_1_">
</g>
<g>
	<path fill="#39B3EF" d="M-540.5,1388v12c0,1.657,1.343,3,3,3h12c1.657,0,3-1.343,3-3v-12c0-1.657-1.343-3-3-3h-12
		C-539.157,1385-540.5,1386.343-540.5,1388z M-527.5,1394.578V1391h1v3.625c0,0.492-0.064,0.811-0.035,0.957
		c0.049,0.234,0.128,0.422,0.314,0.564c0.186,0.142,0.421,0.213,0.744,0.213c0.328,0,0.566-0.067,0.732-0.201
		s0.213-0.299,0.247-0.494c0.034-0.195-0.002-0.519-0.002-0.973V1391h1v3.531c0,0.688,0.096,1.173,0.033,1.457
		c-0.063,0.284-0.114,0.523-0.282,0.719c-0.168,0.196-0.361,0.351-0.642,0.467c-0.281,0.116-0.633,0.174-1.086,0.174
		c-0.547,0-0.953-0.063-1.236-0.189c-0.283-0.126-0.502-0.291-0.666-0.492s-0.114-0.414-0.166-0.635
		C-527.621,1395.703-527.5,1395.219-527.5,1394.578z M-533.5,1391h2.215c0.703,0,1.162,0.291,1.375,0.348
		c0.328,0.086,0.603,0.404,0.824,0.691c0.221,0.287,0.332,0.725,0.332,1.181c0,0.352-0.064,0.712-0.191,0.952
		s-0.29,0.428-0.486,0.564c-0.196,0.136-0.396,0.182-0.6,0.227c-0.276,0.055-0.676,0.037-1.199,0.037h-0.27v2h-2V1391z
		 M-534.734,1392.047c0.26,0.245,0.456,0.596,0.586,1.055l-1.145,0.273c-0.068-0.297-0.209-0.531-0.424-0.703
		c-0.215-0.172-0.476-0.258-0.783-0.258c-0.424,0-0.769,0.152-1.033,0.457c-0.264,0.305-0.396,0.798-0.396,1.48
		c0,0.724,0.13,1.24,0.391,1.547c0.261,0.307,0.599,0.461,1.016,0.461c0.307,0,0.572-0.098,0.793-0.293
		c0.221-0.195,0.38-0.502,0.477-0.922l1.121,0.355c-0.172,0.625-0.458,1.089-0.857,1.393c-0.399,0.304-0.907,0.455-1.521,0.455
		c-0.76,0-1.385-0.26-1.875-0.779c-0.49-0.519-0.734-1.23-0.734-2.131c0-0.953,0.246-1.693,0.738-2.221
		c0.492-0.528,1.139-0.791,1.941-0.791C-535.741,1391.426-535.172,1391.633-534.734,1392.047z"/>
	<path fill="#39B3EF" d="M-530.438,1394.094c0.154-0.06,0.274-0.187,0.361-0.314c0.087-0.127,0.131-0.292,0.131-0.462
		c0-0.208-0.061-0.449-0.184-0.584s-0.277-0.289-0.465-0.323c-0.138-0.026-0.416-0.16-0.832-0.16h-0.073v2h0.148
		C-530.896,1394.25-530.591,1394.154-530.438,1394.094z"/>
	<rect x="-519.5" y="1391" fill="#39B3EF" width="3" height="1"/>
	<rect x="-534.5" y="1406" fill="#39B3EF" width="1" height="3"/>
	<rect x="-528.5" y="1406" fill="#39B3EF" width="1" height="3"/>
	<rect x="-532.5" y="1406" fill="#39B3EF" width="1" height="3"/>
	<rect x="-528.5" y="1379" fill="#39B3EF" width="1" height="3"/>
	<rect x="-530.5" y="1406" fill="#39B3EF" width="1" height="3"/>
	<rect x="-519.5" y="1393" fill="#39B3EF" width="3" height="1"/>
	<rect x="-519.5" y="1397" fill="#39B3EF" width="3" height="1"/>
	<path fill="#39B3EF" d="M-521.5,1379h-5v3h3c2.209,0,4,1.791,4,4v4h3v-6C-516.5,1381.239-518.739,1379-521.5,1379z"/>
	<rect x="-519.5" y="1395" fill="#39B3EF" width="3" height="1"/>
	<rect x="-546.5" y="1395" fill="#39B3EF" width="3" height="1"/>
	<rect x="-546.5" y="1393" fill="#39B3EF" width="3" height="1"/>
	<path fill="#39B3EF" d="M-543.5,1402v-3h-3v5c0,2.761,2.239,5,5,5h6v-3h-4C-541.709,1406-543.5,1404.209-543.5,1402z"/>
	<rect x="-530.5" y="1379" fill="#39B3EF" width="1" height="3"/>
	<path fill="#39B3EF" d="M-519.5,1402c0,2.209-1.791,4-4,4h-3v3h5c2.761,0,5-2.239,5-5v-5h-3V1402z"/>
	<rect x="-546.5" y="1391" fill="#39B3EF" width="3" height="1"/>
	<rect x="-546.5" y="1397" fill="#39B3EF" width="3" height="1"/>
	<rect x="-534.5" y="1379" fill="#39B3EF" width="1" height="3"/>
	<rect x="-532.5" y="1379" fill="#39B3EF" width="1" height="3"/>
	<path fill="#39B3EF" d="M-543.5,1386c0-2.209,1.791-4,4-4h4v-3h-6c-2.761,0-5,2.239-5,5v6h3V1386z"/>
</g>
<g>
	<path fill="#F371A3" d="M-489.5,1379h-20c-2.761,0-5,2.239-5,5v3.643c0-2.564,2.239-4.643,5-4.643h20c2.761,0,5,2.079,5,4.643V1384
		C-484.5,1381.239-486.739,1379-489.5,1379z"/>
	<path fill="#F371A3" d="M-489.5,1384h-20c-2.761,0-5,2.239-5,5v4.05c1.694,0.245,3,1.688,3,3.45s-1.306,3.205-3,3.45v4.05
		c0,2.761,2.239,5,5,5h3v-3h1v3h1v-3h1v3h1v-3h1v3h1v-3h1v3h1v-3h1v3h1v-3h1v3h1v-3h1v3h4c2.761,0,5-2.239,5-5v-4.05
		c-0.165,0.024-0.329,0.05-0.5,0.05c-1.933,0-3.5-1.567-3.5-3.5s1.567-3.5,3.5-3.5c0.171,0,0.335,0.027,0.5,0.05V1389
		C-484.5,1386.239-486.739,1384-489.5,1384z M-503.5,1402h-3v-12h3V1402z M-498.5,1402h-3v-12h3V1402z M-493.5,1402h-3v-12h3V1402z"
		/>
</g>
<g>
	<path fill="#F3A93A" d="M-457.5,1379h-20c-2.761,0-5,2.239-5,5v10c0,2.761,2.239,5,5,5h20c2.761,0,5-2.239,5-5v-10
		C-452.5,1381.239-454.739,1379-457.5,1379z M-463,1395h-9c-2.485,0-4.5-1.791-4.5-4c0-1.441,0.865-2.694,2.152-3.398
		c-0.09-0.354-0.152-0.72-0.152-1.102c0-2.485,2.015-4.5,4.5-4.5c1.806,0,3.353,1.071,4.069,2.606
		c0.363-0.373,0.869-0.606,1.431-0.606c1.105,0,2,0.895,2,2c0,0.374-0.109,0.72-0.288,1.019c2.385,0.101,4.288,1.836,4.288,3.981
		C-458.5,1393.209-460.515,1395-463,1395z"/>
	<path fill="#F3A93A" d="M-457.5,1400h-20c-2.761,0-5-2.239-5-5v9c0,2.761,2.239,5,5,5h20c2.761,0,5-2.239,5-5v-9
		C-452.5,1397.761-454.739,1400-457.5,1400z M-468,1406c-0.828,0-1.5-0.672-1.5-1.5s0.672-1.5,1.5-1.5s1.5,0.672,1.5,1.5
		S-467.172,1406-468,1406z M-463,1406c-0.828,0-1.5-0.672-1.5-1.5s0.672-1.5,1.5-1.5s1.5,0.672,1.5,1.5S-462.172,1406-463,1406z
		 M-458,1406c-0.828,0-1.5-0.672-1.5-1.5s0.672-1.5,1.5-1.5s1.5,0.672,1.5,1.5S-457.172,1406-458,1406z"/>
</g>
<g>
	<path fill="#999999" d="M-538.939,1257c-4.136,0-7.5-3.364-7.5-7.5s3.364-7.5,7.5-7.5v1c-3.584,0-6.5,2.916-6.5,6.5
		s2.916,6.5,6.5,6.5c3.584,0,6.5-2.916,6.5-6.5h1C-531.439,1253.636-534.803,1257-538.939,1257z"/>
	<path fill="#39B3EF" d="M-538.939,1254.998c-1.409,0-2.817-0.536-3.889-1.608c-2.144-2.145-2.144-5.634,0-7.778
		c2.145-2.144,5.634-2.145,7.778,0l-0.707,0.707c-1.755-1.754-4.609-1.754-6.364,0c-1.754,1.754-1.754,4.61,0,6.364
		c1.755,1.754,4.609,1.754,6.364,0l0.707,0.707C-536.122,1254.462-537.53,1254.998-538.939,1254.998z"/>
	<path fill="#999999" d="M-538.939,1252.998c-0.896,0-1.793-0.341-2.475-1.023c-0.661-0.661-1.025-1.54-1.025-2.475
		s0.364-1.814,1.025-2.475c1.364-1.365,3.586-1.365,4.95,0l-0.707,0.707c-0.975-0.975-2.562-0.975-3.536,0
		c-0.975,0.975-0.975,2.561,0,3.536c0.975,0.975,2.562,0.975,3.536,0l0.707,0.707
		C-537.147,1252.658-538.043,1252.998-538.939,1252.998z"/>
</g>
<g>
	<path fill="#999999" d="M-418,1257c-4.136,0-7.5-3.364-7.5-7.5s3.364-7.5,7.5-7.5s7.5,3.364,7.5,7.5S-413.864,1257-418,1257z
		 M-418,1243c-3.584,0-6.5,2.916-6.5,6.5s2.916,6.5,6.5,6.5s6.5-2.916,6.5-6.5S-414.416,1243-418,1243z"/>
	<circle fill="#39B3EF" cx="-418" cy="1247.5" r="2"/>
	<path fill="#39B3EF" d="M-418,1250c-1.379,0-2.5-1.122-2.5-2.5s1.121-2.5,2.5-2.5s2.5,1.122,2.5,2.5S-416.621,1250-418,1250z
		 M-418,1246c-0.827,0-1.5,0.673-1.5,1.5s0.673,1.5,1.5,1.5s1.5-0.673,1.5-1.5S-417.173,1246-418,1246z"/>
	<path fill="#999999" d="M-413.864,1255.5h-1v-1.182c0-1.83-1.488-3.318-3.317-3.318c-1.83,0-3.318,1.488-3.318,3.318v1.182h-1
		v-1.182c0-2.381,1.938-4.318,4.318-4.318s4.317,1.938,4.317,4.318V1255.5z"/>
</g>
<g id="主机">
	<g>
		<path fill="#999999" d="M-524.714,1257h-2.572c-1.221,0-2.214-1.122-2.214-2.5v-10c0-1.378,0.993-2.5,2.214-2.5h2.571
			c1.221,0,2.214,1.122,2.214,2.5v10c0,0.653-0.22,1.271-0.622,1.74C-523.543,1256.73-524.108,1257-524.714,1257z M-527.286,1243
			c-0.669,0-1.214,0.673-1.214,1.5v10c0,0.827,0.544,1.5,1.214,1.5h2.572c0.669,0,1.214-0.673,1.214-1.5l-0.001-10
			c0-0.827-0.544-1.5-1.214-1.5H-527.286z"/>
	</g>
	<g>
		<path fill="#999999" d="M-516.714,1257h-2.571c-1.222,0-2.215-1.122-2.215-2.5v-10c0-1.378,0.993-2.5,2.214-2.5h2.571
			c1.221,0,2.214,1.122,2.214,2.5v10c0.001,0.653-0.22,1.271-0.621,1.74C-515.543,1256.73-516.107,1257-516.714,1257z
			 M-519.286,1243c-0.669,0-1.214,0.673-1.214,1.5v10c0,0.827,0.545,1.5,1.215,1.5h2.571c0.669,0,1.214-0.673,1.214-1.5l-0.001-10
			c0-0.827-0.545-1.5-1.214-1.5H-519.286z"/>
	</g>
	<g>
		<rect x="-527.5" y="1251" fill="#39B3EF" width="3" height="3"/>
	</g>
	<g>
		<rect x="-519.5" y="1251" fill="#39B3EF" width="3" height="3"/>
	</g>
</g>
<g id="服务">
	<g>
		<path fill="#999999" d="M-500,1257h-10c-1.379,0-2.5-1.122-2.5-2.5v-10c0-1.378,1.121-2.5,2.5-2.5h10c1.379,0,2.5,1.122,2.5,2.5
			v10C-497.5,1255.879-498.621,1257-500,1257z M-510,1243c-0.827,0-1.5,0.673-1.5,1.5v10c0,0.827,0.673,1.5,1.5,1.5h10
			c0.827,0,1.5-0.673,1.5-1.5v-10c0-0.827-0.673-1.5-1.5-1.5H-510z"/>
	</g>
	<g>
		<rect x="-509.5" y="1245" fill="#39B3EF" width="4" height="4"/>
	</g>
	<g>
		<rect x="-504.5" y="1245" fill="#39B3EF" width="4" height="4"/>
	</g>
	<g>
		<rect x="-509.5" y="1250" fill="#39B3EF" width="4" height="4"/>
	</g>
	<g>
		<rect x="-504.5" y="1250" fill="#39B3EF" width="4" height="4"/>
	</g>
</g>
<g id="日志">
	<g>
		<g>
			<path fill="#999999" d="M-486,1257h-6c-1.379,0-2.5-1.122-2.5-2.5v-1h1v1c0,0.827,0.673,1.5,1.5,1.5h6c0.827,0,1.5-0.673,1.5-1.5
				v-10c0-0.827-0.673-1.5-1.5-1.5h-6c-0.827,0-1.5,0.673-1.5,1.5v1h-1v-1c0-1.378,1.121-2.5,2.5-2.5h6c1.379,0,2.5,1.122,2.5,2.5
				v10C-483.5,1255.879-484.621,1257-486,1257z"/>
		</g>
		<g>
			<rect x="-494.5" y="1248" fill="#999999" width="1" height="3"/>
		</g>
	</g>
	<g>
		<rect x="-495.5" y="1246" fill="#999999" width="3" height="1"/>
	</g>
	<g>
		<rect x="-495.5" y="1252" fill="#999999" width="3" height="1"/>
	</g>
	<g>
		
			<rect x="-490.681" y="1249.732" transform="matrix(0.7071 -0.7071 0.7071 0.7071 -1026.6539 22.9028)" fill="#39B3EF" width="10" height="2"/>
	</g>
</g>
<g>
	<g>
		<path fill="#999999" d="M-464.5,1257H-477c-1.378,0-2.5-1.186-2.5-2.643V1242h1v12.357c0,0.905,0.673,1.643,1.5,1.643h12.5V1257z"
			/>
	</g>
	<g>
		<polygon fill="#39B3EF" points="-476.841,1253.713 -477.703,1253.207 -474.687,1248.06 -471.023,1250.07 -466.358,1242.875 
			-465.52,1243.419 -470.689,1251.394 -474.315,1249.405 		"/>
	</g>
</g>
<g id="配置">
	<g>
		<path fill="#999999" d="M-456,1257.007c-3.584,0-6.5-2.916-6.5-6.5c0-3.493,2.736-6.342,6.229-6.486l0.521-0.021v6.008h6.25v0.5
			C-449.5,1254.091-452.416,1257.007-456,1257.007z M-456.75,1245.066c-2.702,0.365-4.75,2.662-4.75,5.441
			c0,3.032,2.467,5.5,5.5,5.5c2.864,0,5.225-2.2,5.478-5h-6.228V1245.066z"/>
	</g>
	<g>
		<path fill="#39B3EF" d="M-454.324,1242v6.885h6.885C-447.439,1245.083-450.522,1242-454.324,1242z"/>
	</g>
</g>
<g id="应用仓库">
	<g>
		<polygon fill="#999999" points="-428.494,1246.72 -436.448,1243.102 -444.073,1246.717 -444.5,1245.813 -436.456,1242 
			-428.08,1245.81 		"/>
	</g>
	<g>
		<rect x="-442.5" y="1245.551" fill="#999999" width="1" height="11"/>
	</g>
	<g>
		<rect x="-431.5" y="1245.551" fill="#999999" width="1" height="11"/>
	</g>
	<g>
		<rect x="-440.5" y="1247" fill="#39B3EF" width="3" height="3"/>
	</g>
	<g>
		<g>
			<path fill="#999999" d="M-433.5,1248v1h-1v-1H-433.5 M-432.5,1247h-3v3h3V1247L-432.5,1247z"/>
		</g>
	</g>
	<g>
		<g>
			<path fill="#999999" d="M-438.5,1253v1h-1v-1H-438.5 M-437.5,1252h-3v3h3V1252L-437.5,1252z"/>
		</g>
	</g>
	<g>
		<g>
			<path fill="#999999" d="M-433.5,1253v1h-1v-1H-433.5 M-432.5,1252h-3v3h3V1252L-432.5,1252z"/>
		</g>
	</g>
</g>
<g id="用户">
</g>
<g id="图层_1_1_">
	<g>
		<path fill="#FFFFFF" d="M-519.078,1209.111c0,0-13.437-7.648-15.19-8.604c-1.753-0.956-3.508-0.266-3.508-0.266
			s-6.774,3.666-7.782,5.26c-1.01,1.592-0.881,4.088-0.881,4.088s0,8.632,0,14.847c0,6.084,0.294,6.562,0.294,6.562
			c1.727,7.515,10.857,8.018,10.857,8.018c3.102,0,5.385-1.035,6.946-2.149c-0.748,0.611-1.269,0.929-1.269,0.929
			s3.407-1.997,10.267-5.683c6.905-3.711,6.904-9.765,6.904-13.652C-512.44,1212.777-519.078,1209.111-519.078,1209.111z
			 M-544.01,1207.055c0.013,0.004,0.021,0.007,0.021,0.007C-543.996,1207.058-544.003,1207.058-544.01,1207.055z M-525.721,1234.157
			c-3.159,0.059-5.806-1.437-5.806-1.437c-5.027-2.994-4.912-7.566-4.912-7.566v-13.906c1,0.469,1.779,0.868,2.253,1.105
			c2.127,1.062,11.223,5.789,11.273,13.384C-522.889,1229.362-524.204,1232.165-525.721,1234.157z"/>
		<path fill="#FFFFFF" d="M-500.592,1218.01c-1.047,0-1.77,0.096-2.847,0.224v10.572c0.538,0.08,1.496,0.128,2.437,0.128
			c1.989,0,3.587-0.542,4.544-1.547c0.956-0.989,1.482-2.423,1.482-4.178c0-1.738-0.546-2.982-1.457-3.859
			C-497.328,1218.473-498.694,1218.01-500.592,1218.01z M-500.596,1227.818c-0.516,0-1.228-0.016-1.228-0.08v-8.483
			c0-0.08,0.757-0.144,1.44-0.144c2.793,0,4.16,1.61,4.145,4.146C-496.239,1226.159-497.772,1227.818-500.596,1227.818z"/>
		<path fill="#FFFFFF" d="M-488.363,1224.102c0-1.547-0.622-3.157-2.869-3.157c-0.926,0-1.845,0.271-2.452,0.685l0.285,0.925
			c0.516-0.351,1.149-0.574,1.832-0.574c1.503,0,1.589,1.148,1.589,1.786v0.159c-2.692-0.016-4.347,1.005-4.347,2.87
			c0,1.116,0.795,2.247,2.283,2.247c1.048,0,1.873-0.579,2.283-1.118h0.045l0.107,1.077h1.215c-0.093-0.538,0.029-1.344,0.029-2.014
			V1224.102z M-489.978,1226.239c0,0.144,0.056,0.303,0.011,0.446c-0.213,0.654-0.776,1.292-1.733,1.292
			c-0.683,0-1.325-0.431-1.325-1.34c0-1.499,1.971-1.77,3.047-1.738V1226.239z"/>
		<path fill="#FFFFFF" d="M-485.133,1218.904l-1.615,0.367v1.656h-1.077v1.077h1.077v4.396c0,0.909,0.262,1.594,0.642,2.009
			c0.319,0.383,0.883,0.59,1.505,0.59c0.516,0,0.958-0.08,1.216-0.191l-0.045-1.053c-0.167,0.048-0.388,0.096-0.737,0.096
			c-0.744,0-0.965-0.542-0.965-1.499v-4.348h1.615v-1.077h-1.615L-485.133,1218.904L-485.133,1218.904z"/>
		<path fill="#FFFFFF" d="M-477.056,1224.102c0-1.547-0.515-3.157-2.762-3.157c-0.926,0-1.791,0.271-2.398,0.685l0.312,0.925
			c0.516-0.351,1.324-0.574,2.007-0.574c1.503,0,1.764,1.148,1.764,1.786v0.159c-3.231-0.016-4.509,1.005-4.509,2.87
			c0,1.116,0.714,2.247,2.202,2.247c1.048,0,1.792-0.579,2.202-1.118h0.045l0.107,1.077h1.215c-0.09-0.538-0.184-1.344-0.184-2.014
			v-2.886C-477.055,1224.102-477.056,1224.102-477.056,1224.102z M-478.133,1226.239c0,0.144-0.106,0.303-0.151,0.446
			c-0.213,0.654-0.857,1.292-1.814,1.292c-0.683,0-1.204-0.431-1.204-1.34c0-1.499,1.553-1.77,3.169-1.738V1226.239
			L-478.133,1226.239z"/>
		<path fill="#FFFFFF" d="M-470.389,1219.079c0.85,0,1.564,0.191,2.065,0.447l0.319-1.132c-0.349-0.191-1.154-0.479-2.429-0.479
			c-3.173,0-5.344,2.28-5.344,5.645c0,3.524,2.171,5.438,5.056,5.438c1.245,0,2.217-0.255,2.702-0.51l-0.272-1.101
			c-0.531,0.271-1.351,0.447-2.156,0.447c-2.49,0-3.932-1.691-3.932-4.321C-474.382,1220.69-472.788,1219.079-470.389,1219.079z"/>
		<path fill="#FFFFFF" d="M-464.044,1220.945c-2.141,0-3.446,1.834-3.446,4.162s1.351,3.891,3.613,3.891
			c1.169,0,1.974-0.255,2.444-0.479l-0.228-1.005c-0.501,0.223-1.078,0.398-2.035,0.398c-1.336,0-2.49-0.526-2.52-2.679h5.162
			c0.015,0,0.045-0.366,0.045-0.654C-461.007,1223.161-461.645,1220.945-464.044,1220.945z M-466.2,1224.157
			c0.106-1.077,0.698-2.28,2.05-2.28c1.503,0,1.868,1.203,1.852,2.28H-466.2z"/>
		<path fill="#FFFFFF" d="M-456.018,1221.017c-1.215,0-2.121,0.447-2.485,1.524h-0.031l-0.076-1.615h-1.184
			c0.045,1.077-0.033,1.486-0.033,2.283v5.793h1.615v-4.804c0-0.239-0.062-0.479-0.002-0.654c0.228-0.781,0.781-1.435,1.662-1.435
			c1.26,0,1.571,1.036,1.571,2.28v4.614h1.615v-4.773C-453.366,1221.583-455.001,1221.017-456.018,1221.017z"/>
		<path fill="#FFFFFF" d="M-450.135,1218.904l-1.077,0.367v1.656h-1.615v1.077h1.615v4.396c0,0.909,0.02,1.594,0.4,2.009
			c0.319,0.383,0.762,0.59,1.384,0.59c0.516,0,0.897-0.08,1.155-0.191l-0.075-1.053c-0.167,0.048-0.43,0.096-0.78,0.096
			c-0.744,0-1.007-0.542-1.007-1.499v-4.348h2.154v-1.077h-2.154V1218.904z"/>
		<path fill="#FFFFFF" d="M-444.279,1220.945c-2.141,0-3.446,1.834-3.446,4.162s1.351,3.891,3.613,3.891
			c1.169,0,1.974-0.255,2.444-0.479l-0.228-1.005c-0.501,0.223-1.078,0.398-2.035,0.398c-1.336,0-2.49-0.526-2.52-2.679h5.162
			c0.015,0,0.045-0.366,0.045-0.654C-441.242,1223.161-441.88,1220.945-444.279,1220.945z M-446.435,1224.157
			c0.106-1.077,0.698-2.28,2.05-2.28c1.503,0,1.868,1.203,1.852,2.28H-446.435z"/>
		<path fill="#FFFFFF" d="M-438.753,1222.542h-0.061l-0.045-1.615h-1.169c0.045,1.077,0.124,1.693,0.124,2.602v5.475h1.077v-4.278
			c0-0.239,0.121-0.463,0.151-0.654c0.182-1.053,0.997-1.802,1.939-1.802c0.182,0,0.064,0.016,0.602,0.048v-1.323
			c-0.538-0.032-0.33-0.095-0.481-0.095C-437.513,1220.898-438.42,1221.465-438.753,1222.542z"/>
		<path fill="#FFFFFF" d="M-428.355,1217.915c-2.733,0-4.752,2.232-4.752,5.645c0,3.253,1.898,5.454,4.6,5.454
			c2.611,0,4.752-1.961,4.752-5.661C-423.754,1220.163-425.561,1217.915-428.355,1217.915z M-428.431,1227.882
			c-2.08,0-3.264-2.057-3.264-4.354c0-2.36,1.093-4.481,3.28-4.481c2.201,0,3.264,2.232,3.264,4.369
			C-425.151,1225.856-426.336,1227.882-428.431,1227.882z"/>
		<path fill="#FFFFFF" d="M-419.353,1222.747c-1.412-0.574-2.034-1.068-2.034-2.073c0-0.733,0.531-1.61,1.928-1.61
			c0.926,0,1.609,0.319,1.943,0.51l0.365-1.132c-0.456-0.271-1.215-0.527-2.262-0.527c-1.989,0-3.31,1.244-3.31,2.918
			c0,1.515,1.032,2.423,2.703,3.046c1.382,0.558,1.928,1.132,1.928,2.137c0,1.084-0.789,1.834-2.141,1.834
			c-0.911,0-1.776-0.319-2.369-0.702l-0.334,1.164c0.546,0.383,1.624,0.686,2.611,0.686c2.414,0,3.583-1.435,3.583-3.094
			C-416.742,1224.325-417.622,1223.448-419.353,1222.747z"/>
	</g>
	<polygon fill="#FFFFFF" points="-526.439,1276.508 -525.439,1276.508 -525.439,1276.508 	"/>
	<polygon fill="#FFFFFF" points="-518.5,1261.113 -520.613,1259 -532.5,1270.888 -544.387,1259 -546.5,1261.113 -534.612,1273 
		-546.5,1284.887 -544.387,1287 -532.5,1275.112 -520.613,1287 -518.5,1284.887 -530.388,1273 	"/>
	<polygon fill="#FFFFFF" points="-452.439,1276.508 -451.439,1276.508 -451.439,1276.508 	"/>
	<g>
		<rect x="-451.697" y="1465.087" fill="#3CABC5" width="3.884" height="3.857"/>
		<rect x="-451.379" y="1465.362" fill="#3A4D54" width="0.301" height="3.256"/>
		<rect x="-450.795" y="1465.362" fill="#3A4D54" width="0.327" height="3.256"/>
		<rect x="-450.211" y="1465.362" fill="#3A4D54" width="0.327" height="3.256"/>
		<rect x="-449.627" y="1465.362" fill="#3A4D54" width="0.327" height="3.256"/>
		<rect x="-449.043" y="1465.362" fill="#3A4D54" width="0.327" height="3.256"/>
		<rect x="-448.433" y="1465.362" fill="#3A4D54" width="0.301" height="3.256"/>
		<g>
			<path fill="#FFFFFF" d="M-422.5,1508c0,2.761-2.239,5-5,5h-42c-2.761,0-5-2.239-5-5v-42c0-2.761,2.239-5,5-5h42
				c2.761,0,5,2.239,5,5V1508z"/>
			<g>
				<path id="docker_4_" fill="#3A4D54" d="M-438.727,1505.253c0.91-0.8,1.821-1.546,2.731-2.346
					c0.321-0.267,0.643-0.533,0.964-0.853c-0.268-0.32-0.643-0.533-1.017-0.693c-0.696-0.267-1.392-0.16-2.088,0.213
					c-0.857,0.48-1.232,1.28-1.178,2.24c0,0.373,0.107,0.747,0.321,1.066C-438.888,1505.039-438.834,1505.146-438.727,1505.253
					 M-437.656,1505.999c0.428,0.16,0.964,0.16,1.446,0.053c0.214-0.107,0.857-0.373,1.071-0.32h0.054h0.054
					c0.161,0.053,0.268,0.16,0.321,0.32c0.161,0.32,0.107,0.64-0.214,0.8l-0.107,0.053c-1.178,0.693-2.41,0.587-3.588-0.053
					c-0.535-0.32-0.964-0.747-1.285-1.28l-0.054-0.107c-0.75-1.28-0.643-2.666,0.214-3.893c0.268-0.427,0.696-0.747,1.125-1.013
					l0.161-0.107c1.125-0.64,2.303-0.587,3.427-0.053c0.589,0.32,1.125,0.747,1.446,1.333l0.054,0.107
					c0.268,0.427-0.054,0.8-0.428,1.066c-0.375,0.32-0.75,0.64-1.125,0.96C-436.049,1504.613-436.853,1505.306-437.656,1505.999z
					 M-428.927,1500.133h0.107c0.375,0,0.643,0.267,0.643,0.64c0,0.533-0.482,0.64-0.91,0.64c-0.535,0-1.071,0.32-1.446,0.693
					c-0.482,0.48-0.696,1.066-0.696,1.706v2.986c0,0.32-0.214,0.64-0.589,0.64h-0.107c-0.375,0-0.589-0.267-0.589-0.64v-3.146
					c0-1.226,0.589-2.186,1.553-2.88C-430.32,1500.347-429.623,1500.133-428.927,1500.133z M-444.296,1502.213
					c0.482-0.48,0.964-0.96,1.446-1.44c0.161-0.107,0.643-0.693,0.857-0.693h0.214l0,0c0.268,0.053,0.482,0.213,0.482,0.533v0.107
					c0,0.213-0.268,0.427-0.375,0.587c-0.268,0.32-0.589,0.587-0.857,0.907l-1.499,1.493c0.643,0.64,1.285,1.28,1.928,1.92
					c0.161,0.16,0.375,0.373,0.535,0.533c0.054,0.053,0.161,0.16,0.214,0.213c0.054,0.107,0.107,0.16,0.107,0.267v0.107v0.053
					c-0.054,0.267-0.268,0.48-0.535,0.48h-0.107c-0.214,0-0.428-0.213-0.589-0.373c-0.268-0.267-0.589-0.533-0.857-0.853
					l-0.964-0.906v1.493c0,0.32-0.214,0.64-0.589,0.64h-0.107c-0.375,0-0.589-0.267-0.589-0.64v-8.212
					c0-0.32,0.214-0.587,0.589-0.587h0.107c0.375,0,0.589,0.267,0.589,0.587V1502.213L-444.296,1502.213z M-448.259,1501.413
					c-0.161-0.107-0.535-0.107-0.75-0.107c-1.017-0.053-1.767,0.533-2.195,1.44c-0.161,0.32-0.214,0.64-0.214,1.013
					c0,1.067,0.535,1.813,1.499,2.24c0.321,0.16,0.803,0.213,1.178,0.213c0.321,0,0.803-0.213,1.071-0.32h0.054h0.214l0,0
					c0.268,0.053,0.482,0.213,0.482,0.533v0.107c0,0.747-1.392,0.907-1.874,0.96c-1.821,0.107-3.213-0.906-3.749-2.613
					c-0.107-0.32-0.107-0.587-0.107-0.906v-0.267c0-1.333,0.643-2.4,1.821-3.04c0.535-0.32,1.125-0.48,1.767-0.48h0.268
					c0.643,0,1.285,0.16,1.821,0.533l0.054,0.053l0.054,0.053c0.054,0.107,0.107,0.213,0.107,0.32v0.107
					c0,0.32-0.214,0.48-0.535,0.533l0,0h-0.054C-447.723,1501.68-448.098,1501.466-448.259,1501.413z M-459.505,1503.706
					c0,0.906,0.482,1.6,1.232,2.08c0.375,0.213,0.803,0.32,1.232,0.32c0.91,0,1.606-0.48,2.088-1.226
					c0.214-0.373,0.321-0.8,0.321-1.227c0-0.853-0.428-1.546-1.125-2.026c-0.375-0.267-0.857-0.373-1.285-0.373
					c-1.017,0-1.767,0.533-2.196,1.44C-459.451,1503.066-459.505,1503.386-459.505,1503.706z M-457.202,1500.08h0.161
					c1.446,0,2.517,0.693,3.213,1.92c0.268,0.48,0.428,1.013,0.428,1.6v0.267c0,1.333-0.643,2.4-1.821,3.04
					c-0.535,0.32-1.125,0.48-1.767,0.48h-0.268c-1.339,0-2.41-0.64-3.052-1.813c-0.321-0.533-0.482-1.12-0.482-1.76v-0.267
					c0-1.333,0.643-2.4,1.821-3.04C-458.434,1500.24-457.845,1500.08-457.202,1500.08z M-467.591,1503.706
					c0,0.96,0.482,1.706,1.339,2.133c0.321,0.16,0.696,0.267,1.125,0.267c0.964,0,1.66-0.427,2.142-1.226
					c0.214-0.373,0.321-0.8,0.321-1.227c0-0.853-0.375-1.493-1.071-1.973c-0.428-0.267-0.857-0.427-1.392-0.427
					c-1.017,0-1.767,0.533-2.196,1.44C-467.537,1503.066-467.591,1503.386-467.591,1503.706z M-462.718,1500.986v-2.613
					c0-0.32,0.214-0.64,0.589-0.64h0.107c0.375,0,0.589,0.267,0.589,0.64v5.493c0,1.333-0.643,2.4-1.821,3.04
					c-0.535,0.32-1.125,0.48-1.767,0.48h-0.268c-1.339,0-2.41-0.64-3.052-1.813c-0.321-0.533-0.482-1.12-0.482-1.76v-0.267
					c0-1.333,0.643-2.4,1.821-3.04c0.535-0.32,1.125-0.48,1.767-0.48h0.268C-464.11,1500.08-463.36,1500.4-462.718,1500.986z"/>
				<g>
					<path fill="#1D9FBE" d="M-456.634,1490.669c-1.279,0.078-2.189-0.48-2.058-0.977c0.149-0.602,1.007-1.055,2.032,0
						c0,0,0.403-1.378-0.779-2.032c-0.368-0.201-0.841-0.323-1.322-0.323c-1.025,0.009-2.111,0.532-2.487,1.927
						c-0.026,0.253-0.079,0.427-0.079,0.427c-1.033-1.029-1.883-0.576-2.014,0c-0.123,0.497,0.779,1.055,2.058,0.977
						c2.312-0.122,3.871,0.802,3.871,0.802h4.65C-452.763,1491.471-454.322,1490.547-456.634,1490.669z"/>
					<path fill="#1D9FBE" d="M-461.275,1490.669c-1.279,0.078-2.189-0.48-2.058-0.977c0.149-0.602,1.007-1.055,2.032,0
						c0,0,0.403-1.378-0.779-2.032c-0.368-0.201-0.841-0.323-1.322-0.323c-1.025,0.009-2.119,0.532-2.496,1.927
						c-0.026,0.253-0.079,0.427-0.079,0.427c-1.033-1.029-1.883-0.576-2.014,0c-0.123,0.497,0.779,1.055,2.058,0.977
						c2.312-0.122,3.871,0.802,3.871,0.802h4.659C-457.404,1491.471-458.963,1490.547-461.275,1490.669z"/>
					<path fill="#1D9FBE" d="M-451.992,1490.669c-1.279,0.078-2.189-0.48-2.058-0.977c0.149-0.602,1.007-1.055,2.032,0
						c0,0,0.403-1.378-0.779-2.032c-0.368-0.201-0.841-0.323-1.322-0.323c-1.016,0.009-2.111,0.532-2.487,1.927
						c-0.026,0.253-0.079,0.427-0.079,0.427c-1.033-1.029-1.883-0.576-2.014,0c-0.123,0.497,0.779,1.055,2.058,0.977
						c2.312-0.122,3.871,0.802,3.871,0.802h4.65C-448.121,1491.471-449.68,1490.547-451.992,1490.669z"/>
					<path fill="#299CC0" d="M-462.203,1490.119c-1.279,0.078-2.338,0.174-2.207-0.323c0.14-0.576-0.998-1.265-0.202-0.41
						c-0.315-0.323-1.191-1.177-2.137-1.692c-0.412-0.235-0.858-0.34-1.296-0.34c-1.743,0-3.337,1.622-2.076,3.34
						c0.631,0.549,1.83,0.828,3.415,0.828h4.65C-462.055,1491.523-459.891,1489.997-462.203,1490.119z"/>
					<path fill="#1D9FBE" d="M-439.022,1489.692c0,0-0.053-0.174-0.079-0.427c-0.377-1.395-1.471-1.919-2.496-1.919
						c-0.473,0-0.937,0.113-1.314,0.314c-1.182,0.654-0.779,2.032-0.779,2.032c1.033-1.055,1.883-0.602,2.032,0
						c0.123,0.497-0.779,1.055-2.058,0.977c-2.312-0.122-3.871,0.802-3.871,0.802h4.65c0,0,1.559-0.924,3.871-0.802
						c1.279,0.078,2.189-0.48,2.058-0.977C-437.13,1489.116-437.989,1488.663-439.022,1489.692z"/>
					<path fill="#299CC0" d="M-435.895,1489.491c0,0-0.079-0.253-0.096-0.654c-0.56-2.119-2.216-2.922-3.775-2.922
						c-0.744,0.009-1.471,0.192-2.041,0.497c-1.787,0.977-1.182,3.079-1.182,3.079c1.585-1.578,2.864-0.898,3.065,0
						c0.175,0.75-1.182,1.579-3.144,1.474c-3.521-0.201-5.903,1.23-5.903,1.23h7.067c0,0,2.391-1.43,5.903-1.23
						c1.936,0.096,3.319-0.724,3.144-1.474C-433.032,1488.619-434.31,1487.939-435.895,1489.491z"/>
					<path fill="#1D9FBE" d="M-443.672,1489.692c0,0-0.053-0.174-0.079-0.427c-0.377-1.395-1.471-1.919-2.496-1.919
						c-0.473,0-0.937,0.113-1.314,0.314c-1.182,0.654-0.779,2.032-0.779,2.032c1.033-1.055,1.883-0.602,2.032,0
						c0.123,0.497-0.779,1.055-2.058,0.977c-2.312-0.122-3.871,0.802-3.871,0.802h4.65c0,0,1.559-0.924,3.871-0.802
						c1.279,0.078,2.189-0.48,2.058-0.977C-441.781,1489.116-442.639,1488.663-443.672,1489.692z"/>
					<path fill="#32A7C2" d="M-461.608,1492.16c-1.077,0.052-1.83-0.401-1.734-0.829c0.123-0.497,0.832-0.872,1.681,0
						c0,0,0.324-1.151-0.657-1.701c-0.315-0.174-0.709-0.27-1.121-0.27c-0.858,0-1.76,0.436-2.067,1.596
						c0,0.201-0.053,0.349-0.053,0.349c-0.858-0.872-1.559-0.497-1.681,0.026c-0.096,0.427,0.657,0.872,1.734,0.828
						c1.935-0.096,3.24,0.68,3.24,0.68h3.897C-458.368,1492.84-459.672,1492.064-461.608,1492.16z"/>
					<path fill="#3CABC5" d="M-464.892,1492.16c-1.077,0.052-1.83-0.401-1.734-0.829c0.123-0.497,0.832-0.872,1.681,0
						c0,0,0.324-1.151-0.657-1.701c-0.315-0.174-0.709-0.27-1.121-0.27c-0.849,0-1.76,0.436-2.067,1.596
						c0,0.201-0.053,0.349-0.053,0.349c-0.858-0.872-1.559-0.497-1.681,0.026c-0.096,0.427,0.657,0.872,1.734,0.828
						c1.935-0.096,3.24,0.68,3.24,0.68h3.897C-461.652,1492.84-462.957,1492.064-464.892,1492.16z"/>
					<path fill="#32A7C2" d="M-457.833,1492.273c-1.077,0.052-1.83-0.401-1.734-0.828c0.123-0.497,0.832-0.872,1.681,0
						c0,0,0.324-1.151-0.657-1.701c-0.315-0.174-0.709-0.27-1.121-0.27c-0.008,0-0.017,0-0.025,0c-0.842,0-1.738,0.439-2.042,1.596
						c0,0.201-0.053,0.349-0.053,0.349c-0.876-0.872-1.585-0.497-1.681,0.026c-0.096,0.427,0.657,0.872,1.734,0.828
						c1.935-0.096,3.24,0.68,3.24,0.68h3.897C-454.593,1492.954-455.898,1492.178-457.833,1492.273z"/>
					<path fill="#78C5DB" d="M-467.598,1492.16c-1.077,0.052-1.83-0.401-1.734-0.829c0.123-0.497,0.832-0.872,1.681,0
						c0,0,0.324-1.151-0.657-1.701c-0.324-0.174-0.683-0.253-1.042-0.253c-1.471,0-2.837,1.352-1.769,2.782
						c0.525,0.453,1.559,0.68,2.864,0.68h3.897C-464.358,1492.84-465.663,1492.064-467.598,1492.16z"/>
					<path fill="#299CC0" d="M-441.684,1491.044c0,0-0.053-0.227-0.079-0.523c-0.455-1.744-1.787-2.398-3.021-2.398
						c-0.016,0-0.032,0-0.048,0c-0.561,0-1.111,0.147-1.546,0.393c-1.436,0.802-0.928,2.529-0.928,2.529
						c1.252-1.299,2.286-0.75,2.461,0c0.149,0.628-0.954,1.299-2.513,1.23c-2.811-0.148-4.703,1.003-4.703,1.003h5.657
						c0,0,1.988-0.828,4.773-0.68c1.559,0.096,2.592-0.924,2.435-1.552C-439.398,1490.294-440.432,1489.744-441.684,1491.044z"/>
					<path fill="#3CABC5" d="M-446.3,1491.419c0,0-0.053-0.148-0.053-0.349c-0.307-1.169-1.217-1.605-2.067-1.605
						c-0.412,0-0.814,0.105-1.121,0.279c-0.981,0.549-0.657,1.701-0.657,1.701c0.858-0.872,1.559-0.497,1.681,0
						c0.096,0.427-0.657,0.872-1.734,0.829c-1.935-0.096-3.24,0.68-3.24,0.68h3.897c0,0,1.305-0.776,3.24-0.68
						c1.077,0.052,1.83-0.401,1.734-0.829C-444.741,1490.922-445.45,1490.547-446.3,1491.419z"/>
					<path fill="#238BB5" d="M-466.959,1486.387l0.324,0.602c0.201,0.349,0.429,0.68,0.674,1.003
						c1.182,0.078,2.233,0.096,3.24,0.078c1.935-0.052,3.521-0.279,4.72-0.68c0.175-0.052,0.377,0.026,0.429,0.201
						c0.052,0.174-0.026,0.375-0.201,0.427c-0.149,0.052-0.324,0.096-0.499,0.148c-0.955,0.279-2.032,0.453-3.345,0.549h-0.175
						c-0.499,0.026-1.06,0.052-1.629,0.052c-0.631,0-1.252,0-1.936-0.052c2.365,2.651,6.104,4.256,10.728,4.256
						c8.416,0,15.729-3.183,19.976-10.221l-33.437,0.009C-467.913,1484.058-467.537,1485.288-466.959,1486.387z"/>
					<path fill="#3A4D54" d="M-441.946,1479.001v-4.509h-4.423l-0.026-0.026v-8.966h-5.333v4.535h-8.872v4.43h-4.423v4.509h-3.792
						l-0.053,0.68c-0.035,0.436-0.061,0.863-0.061,1.299v0.017c0,1.788,0.342,3.567,1.086,5.198l0.403,0.802l0.053,0.078
						c2.715,4.631,7.54,6.584,12.769,6.584c10.15,0,18.496-4.509,22.341-14.05c2.592,0.148,5.202-0.602,6.454-3.052l0.324-0.628
						l-0.604-0.349c-1.481-0.852-3.469-0.974-5.151-0.477c-0.228-1.779-1.384-3.331-2.785-4.456l-0.552-0.453l-0.482,0.523
						c-0.928,1.073-1.209,2.878-1.077,4.256c0.079,1.003,0.403,2.032,1.034,2.852c-0.482,0.279-1.034,0.497-1.506,0.68
						c-0.981,0.349-2.058,0.523-3.091,0.523H-441.946"/>
					<path fill="#2193C1" d="M-468.132,1479.75c-0.228,2.433,0.201,4.657,1.182,6.584l0.324,0.602
						c0.202,0.349,0.429,0.68,0.674,1.003c1.182,0.078,2.233,0.096,3.24,0.078c1.936-0.052,3.521-0.279,4.72-0.68
						c0.175-0.052,0.377,0.026,0.429,0.201c0.053,0.174-0.026,0.375-0.201,0.427c-0.149,0.052-0.324,0.096-0.499,0.148
						c-0.954,0.279-1.962,0.454-3.267,0.523h-0.079h-0.149c-0.499,0.026-1.077,0.026-1.638,0.026c-0.631,0-1.235,0-1.909-0.052
						h-0.025c2.365,2.651,6.078,4.23,10.702,4.23c9.826,0,18.163-4.334,21.833-14.076c2.61,0.279,5.123-0.401,6.279-2.625
						c-1.813-0.977-4.169-0.654-5.5,0.026c0.298-2.302-1.436-4.108-2.513-4.98c-1.217,1.43-1.419,5.154,0.517,6.733
						c-1.077,0.951-3.363,1.831-5.701,1.831L-468.132,1479.75L-468.132,1479.75z"/>
					<g>
						<path fill="#209DC6" d="M-461.652,1488.637l0.026,0.026h0.018C-461.625,1488.654-461.643,1488.646-461.652,1488.637z"/>
						<path fill="#209DC6" d="M-434.512,1471.186c-1.235,1.43-1.436,5.154,0.499,6.733c-1.077,0.951-3.363,1.831-5.701,1.831
							h-26.737c-0.123,3.733,1.279,6.532,3.722,8.268c1.936-0.052,3.521-0.279,4.72-0.68c0.175-0.052,0.377,0.026,0.429,0.201
							c0.053,0.174-0.026,0.375-0.202,0.427c-0.149,0.052-0.324,0.096-0.499,0.148c-0.946,0.27-2.023,0.471-3.319,0.549
							c3.337,1.674,8.171,1.666,13.697-0.453c6.235-2.381,12.033-6.933,16.079-12.122c-0.079,0.078-0.123,0.078-0.175,0.078
							C-431.7,1473.863-433.435,1472.058-434.512,1471.186z"/>
					</g>
					<rect x="-459.839" y="1470.872" fill="#299CC0" width="3.845" height="3.802"/>
					<rect x="-459.524" y="1471.073" fill="#3A4D54" width="0.298" height="3.209"/>
					<rect x="-458.946" y="1471.073" fill="#3A4D54" width="0.324" height="3.209"/>
					<rect x="-458.368" y="1471.073" fill="#3A4D54" width="0.324" height="3.209"/>
					<rect x="-457.79" y="1471.073" fill="#3A4D54" width="0.324" height="3.209"/>
					<rect x="-457.212" y="1471.073" fill="#3A4D54" width="0.324" height="3.209"/>
					<rect x="-456.607" y="1471.073" fill="#3A4D54" width="0.298" height="3.209"/>
					<rect x="-459.839" y="1475.285" fill="#3CABC5" width="3.845" height="3.829"/>
					<rect x="-459.524" y="1475.52" fill="#3A4D54" width="0.298" height="3.209"/>
					<rect x="-458.946" y="1475.52" fill="#3A4D54" width="0.324" height="3.209"/>
					<rect x="-458.368" y="1475.52" fill="#3A4D54" width="0.324" height="3.209"/>
					<rect x="-457.79" y="1475.52" fill="#3A4D54" width="0.324" height="3.209"/>
					<rect x="-457.212" y="1475.52" fill="#3A4D54" width="0.324" height="3.209"/>
					<rect x="-456.607" y="1475.52" fill="#3A4D54" width="0.298" height="3.209"/>
					<rect x="-464.262" y="1475.285" fill="#299CC0" width="3.845" height="3.829"/>
					<rect x="-463.92" y="1475.52" fill="#3A4D54" width="0.298" height="3.209"/>
					<rect x="-463.342" y="1475.52" fill="#3A4D54" width="0.324" height="3.209"/>
					<rect x="-462.764" y="1475.52" fill="#3A4D54" width="0.324" height="3.209"/>
					<rect x="-462.186" y="1475.52" fill="#3A4D54" width="0.324" height="3.209"/>
					<rect x="-461.608" y="1475.52" fill="#3A4D54" width="0.324" height="3.209"/>
					<rect x="-461.004" y="1475.52" fill="#3A4D54" width="0.298" height="3.209"/>
					<rect x="-455.39" y="1470.872" fill="#3CABC5" width="3.845" height="3.802"/>
					<rect x="-455.127" y="1471.073" fill="#3A4D54" width="0.298" height="3.209"/>
					<rect x="-454.549" y="1471.073" fill="#3A4D54" width="0.324" height="3.209"/>
					<rect x="-453.971" y="1471.073" fill="#3A4D54" width="0.324" height="3.209"/>
					<rect x="-453.393" y="1471.073" fill="#3A4D54" width="0.324" height="3.209"/>
					<rect x="-452.815" y="1471.073" fill="#3A4D54" width="0.324" height="3.209"/>
					<rect x="-452.211" y="1471.073" fill="#3A4D54" width="0.298" height="3.209"/>
					<rect x="-455.39" y="1475.285" fill="#299CC0" width="3.845" height="3.829"/>
					<rect x="-455.092" y="1475.52" fill="#3A4D54" width="0.298" height="3.209"/>
					<rect x="-454.514" y="1475.52" fill="#3A4D54" width="0.324" height="3.209"/>
					<rect x="-453.936" y="1475.52" fill="#3A4D54" width="0.324" height="3.209"/>
					<rect x="-453.358" y="1475.52" fill="#3A4D54" width="0.324" height="3.209"/>
					<rect x="-452.78" y="1475.52" fill="#3A4D54" width="0.324" height="3.209"/>
					<rect x="-452.176" y="1475.52" fill="#3A4D54" width="0.298" height="3.209"/>
					<rect x="-450.967" y="1470.872" fill="#299CC0" width="3.844" height="3.802"/>
					<rect x="-450.652" y="1471.134" fill="#3A4D54" width="0.298" height="3.209"/>
					<rect x="-450.074" y="1471.134" fill="#3A4D54" width="0.324" height="3.209"/>
					<rect x="-449.496" y="1471.134" fill="#3A4D54" width="0.324" height="3.209"/>
					<rect x="-448.918" y="1471.134" fill="#3A4D54" width="0.324" height="3.209"/>
					<rect x="-448.34" y="1471.134" fill="#3A4D54" width="0.324" height="3.209"/>
					<rect x="-447.736" y="1471.134" fill="#3A4D54" width="0.298" height="3.209"/>
					<rect x="-450.967" y="1475.285" fill="#3CABC5" width="3.844" height="3.829"/>
					<rect x="-450.652" y="1475.52" fill="#3A4D54" width="0.298" height="3.209"/>
					<rect x="-450.074" y="1475.52" fill="#3A4D54" width="0.324" height="3.209"/>
					<rect x="-449.496" y="1475.52" fill="#3A4D54" width="0.324" height="3.209"/>
					<rect x="-448.918" y="1475.52" fill="#3A4D54" width="0.324" height="3.209"/>
					<rect x="-448.34" y="1475.52" fill="#3A4D54" width="0.324" height="3.209"/>
					<rect x="-447.736" y="1475.52" fill="#3A4D54" width="0.298" height="3.209"/>
					<rect x="-446.518" y="1475.285" fill="#299CC0" width="3.845" height="3.829"/>
					<rect x="-446.247" y="1475.52" fill="#3A4D54" width="0.298" height="3.209"/>
					<rect x="-445.669" y="1475.52" fill="#3A4D54" width="0.324" height="3.209"/>
					<rect x="-445.091" y="1475.52" fill="#3A4D54" width="0.324" height="3.209"/>
					<rect x="-444.513" y="1475.52" fill="#3A4D54" width="0.324" height="3.209"/>
					<rect x="-443.935" y="1475.52" fill="#3A4D54" width="0.324" height="3.209"/>
					<rect x="-443.339" y="1475.52" fill="#3A4D54" width="0.298" height="3.209"/>
					<path fill="#D4E3E2" d="M-456.222,1485.279c-0.604,0.009-1.06,0.48-1.06,1.055c0,0.576,0.482,1.055,1.06,1.055
						s1.06-0.48,1.06-1.055S-455.644,1485.279-456.222,1485.279z"/>
					<path fill="#3A4D54" d="M-455.81,1486.239c-0.149,0-0.298-0.122-0.298-0.296c0-0.122,0.053-0.227,0.149-0.279
						c-0.079-0.026-0.175-0.052-0.28-0.052c-0.412,0-0.744,0.323-0.744,0.776c0,0.401,0.324,0.75,0.753,0.75
						c0.403,0,0.753-0.323,0.753-0.75c0-0.122-0.026-0.201-0.053-0.297C-455.583,1486.169-455.679,1486.239-455.81,1486.239z"/>
					<path fill="#BFD8D7" d="M-458.289,1488.166c-0.981,0.27-2.137,0.445-3.512,0.523c-0.499,0.026-1.06,0.052-1.611,0.052
						c-0.657,0-1.331-0.026-2.058-0.052c2.408,2.407,5.377,4.256,10.851,4.282c0.403-0.026,0.806-0.026,1.209-0.026
						C-456.047,1491.689-457.483,1490.015-458.289,1488.166z"/>
					<path fill="#D4E3E2" d="M-461.801,1488.689c0.954,0.497,2.286,1.003,4.501,1.177c-0.35-0.497-0.701-1.099-0.981-1.701
						C-459.27,1488.436-460.443,1488.611-461.801,1488.689z"/>
					<path fill="#279FC0" d="M-449.303,1494.175c-1.349,0.052-2.251-0.349-2.172-0.732c0.158-0.82,0.955-1.256,1.865-0.768
						c-0.105-0.384-0.543-0.881-1.498-1.055c-0.149-0.026-0.315-0.044-0.49-0.044c-0.946,0-2.146,0.436-2.566,1.552
						c-0.026,0.183-0.079,0.314-0.079,0.314c-1.086-0.785-1.988-0.453-2.146,0c-0.131,0.366,0.832,0.785,2.172,0.732
						c2.435-0.087,4.116,0.602,4.116,0.602h4.913C-445.187,1494.776-446.843,1494.061-449.303,1494.175z"/>
					<path fill="#3CABC5" d="M-453.043,1494.053c-1.138,0.061-1.944-0.436-1.83-0.872c0.131-0.541,0.893-0.933,1.813,0
						c0,0,0.35-1.238-0.701-1.805c-0.333-0.174-0.753-0.279-1.191-0.279c-0.928,0.009-1.9,0.471-2.224,1.718
						c-0.018,0.218-0.061,0.366-0.061,0.366c-0.937-0.89-1.681-0.497-1.786,0c-0.105,0.436,0.701,0.933,1.83,0.872
						c2.076-0.131,3.468,0.715,3.468,0.715h4.151C-449.575,1494.768-450.994,1493.939-453.043,1494.053z"/>
					<path fill="#78C5DB" d="M-455.548,1493.948c-1.305,0.078-2.233-0.497-2.111-1.003c0.149-0.628,1.033-1.073,2.084,0
						c0,0,0.403-1.43-0.806-2.076c-0.42-0.227-0.876-0.323-1.322-0.323c-1.787,0-3.451,1.631-2.146,3.375
						c0.657,0.576,1.883,0.855,3.521,0.855h4.773C-451.554,1494.776-453.192,1493.826-455.548,1493.948z"/>
					<path fill="#3CABC5" d="M-438.584,1491.541c0,0-0.053-0.174-0.053-0.401c-0.359-1.334-1.401-1.84-2.373-1.84
						c-0.473,0.009-0.92,0.122-1.27,0.314c-1.13,0.628-0.753,1.927-0.753,1.927c0.981-1.003,1.813-0.576,1.935,0
						c0.123,0.48-0.753,1.003-1.988,0.924c-2.207-0.122-3.722,0.776-3.722,0.776h4.449c0,0,1.506-0.898,3.722-0.776
						c1.235,0.078,2.084-0.453,1.988-0.924C-436.771,1490.939-437.577,1490.538-438.584,1491.541z"/>
					<path fill="#78C5DB" d="M-437.209,1489.3c-0.42,0.009-0.841,0.105-1.235,0.314c-1.13,0.628-0.753,1.927-0.753,1.927
						c0.981-1.003,1.813-0.576,1.936,0c0.123,0.48-0.753,1.003-1.988,0.924c-2.207-0.122-3.722,0.776-3.722,0.776h4.449
						c1.506,0,2.689-0.279,3.293-0.776C-434.004,1490.843-435.545,1489.3-437.209,1489.3z"/>
				</g>
			</g>
		</g>
	</g>
	<g>
		<path fill="#FFFFFF" d="M-476.5,1506.269c0,3.717-3.013,6.731-6.731,6.731h-56.538c-3.718,0-6.731-3.013-6.731-6.731v-56.538
			c0-3.718,3.013-6.731,6.731-6.731h56.538c3.717,0,6.731,3.013,6.731,6.731V1506.269z"/>
		<g>
			<path id="docker_3_" fill="#3A4D54" d="M-498.344,1502.571c1.225-1.077,2.451-2.082,3.676-3.159
				c0.432-0.359,0.865-0.718,1.298-1.149c-0.36-0.431-0.865-0.718-1.369-0.933c-0.937-0.359-1.874-0.215-2.811,0.287
				c-1.153,0.646-1.658,1.723-1.586,3.015c0,0.502,0.144,1.005,0.432,1.436C-498.56,1502.284-498.488,1502.427-498.344,1502.571
				 M-496.902,1503.576c0.577,0.215,1.298,0.215,1.946,0.072c0.288-0.144,1.153-0.503,1.442-0.431h0.072h0.072
				c0.216,0.072,0.361,0.215,0.433,0.431c0.216,0.431,0.144,0.861-0.288,1.077l-0.144,0.072c-1.586,0.933-3.244,0.79-4.83-0.072
				c-0.721-0.431-1.298-1.005-1.73-1.723l-0.072-0.144c-1.009-1.723-0.865-3.589,0.288-5.24c0.361-0.574,0.937-1.005,1.514-1.364
				l0.216-0.144c1.514-0.861,3.1-0.79,4.613-0.072c0.793,0.431,1.514,1.005,1.946,1.795l0.072,0.144
				c0.361,0.574-0.072,1.077-0.577,1.436c-0.505,0.431-1.009,0.861-1.514,1.292C-494.74,1501.709-495.821,1502.643-496.902,1503.576
				z M-485.152,1495.679h0.144c0.505,0,0.865,0.359,0.865,0.861c0,0.718-0.649,0.862-1.225,0.862c-0.721,0-1.442,0.431-1.946,0.933
				c-0.649,0.646-0.937,1.436-0.937,2.297v4.02c0,0.431-0.288,0.861-0.793,0.861h-0.144c-0.505,0-0.793-0.359-0.793-0.861v-4.236
				c0-1.651,0.793-2.943,2.091-3.876C-487.026,1495.967-486.089,1495.679-485.152,1495.679z M-505.841,1498.479
				c0.649-0.646,1.298-1.292,1.946-1.938c0.216-0.144,0.865-0.933,1.153-0.933h0.288l0,0c0.361,0.072,0.649,0.287,0.649,0.718v0.144
				c0,0.287-0.361,0.574-0.505,0.79c-0.361,0.431-0.793,0.79-1.153,1.22l-2.018,2.01c0.865,0.861,1.73,1.723,2.595,2.584
				c0.216,0.215,0.505,0.503,0.721,0.718c0.072,0.072,0.216,0.215,0.288,0.287c0.072,0.144,0.144,0.215,0.144,0.359v0.144v0.072
				c-0.072,0.359-0.361,0.646-0.721,0.646h-0.144c-0.288,0-0.577-0.287-0.793-0.502c-0.361-0.359-0.793-0.718-1.153-1.149
				l-1.298-1.22v2.01c0,0.431-0.288,0.861-0.793,0.861h-0.144c-0.505,0-0.793-0.359-0.793-0.861v-11.055
				c0-0.431,0.288-0.79,0.793-0.79h0.144c0.505,0,0.793,0.359,0.793,0.79L-505.841,1498.479L-505.841,1498.479z M-511.176,1497.402
				c-0.216-0.144-0.721-0.144-1.009-0.144c-1.369-0.072-2.379,0.718-2.955,1.938c-0.216,0.431-0.288,0.861-0.288,1.364
				c0,1.436,0.721,2.441,2.018,3.015c0.432,0.215,1.081,0.287,1.586,0.287c0.432,0,1.081-0.287,1.442-0.431h0.072h0.288l0,0
				c0.361,0.072,0.649,0.287,0.649,0.718v0.143c0,1.005-1.874,1.22-2.523,1.292c-2.451,0.144-4.325-1.22-5.046-3.518
				c-0.144-0.431-0.144-0.79-0.144-1.22v-0.359c0-1.795,0.865-3.23,2.451-4.092c0.721-0.431,1.514-0.646,2.379-0.646h0.361
				c0.865,0,1.73,0.215,2.451,0.718l0.072,0.072l0.072,0.072c0.072,0.144,0.144,0.287,0.144,0.431v0.144
				c0,0.431-0.288,0.646-0.721,0.718l0,0h-0.073C-510.455,1497.761-510.959,1497.474-511.176,1497.402z M-526.314,1500.489
				c0,1.22,0.649,2.154,1.658,2.8c0.505,0.287,1.081,0.431,1.658,0.431c1.225,0,2.162-0.646,2.811-1.651
				c0.288-0.502,0.432-1.077,0.432-1.651c0-1.148-0.577-2.082-1.514-2.728c-0.505-0.359-1.153-0.502-1.73-0.502
				c-1.37,0-2.379,0.718-2.956,1.938C-526.242,1499.627-526.314,1500.058-526.314,1500.489z M-523.214,1495.608h0.216
				c1.946,0,3.388,0.933,4.325,2.584c0.361,0.646,0.577,1.364,0.577,2.154v0.359c0,1.795-0.865,3.23-2.451,4.092
				c-0.721,0.431-1.514,0.646-2.379,0.646h-0.361c-1.802,0-3.244-0.861-4.109-2.441c-0.433-0.718-0.649-1.507-0.649-2.369v-0.359
				c0-1.795,0.865-3.23,2.451-4.092C-524.872,1495.823-524.079,1495.608-523.214,1495.608z M-537.199,1500.489
				c0,1.292,0.649,2.297,1.802,2.871c0.433,0.215,0.937,0.359,1.514,0.359c1.298,0,2.235-0.574,2.883-1.651
				c0.288-0.502,0.432-1.077,0.432-1.651c0-1.148-0.505-2.01-1.442-2.656c-0.577-0.359-1.153-0.574-1.874-0.574
				c-1.37,0-2.379,0.718-2.956,1.938C-537.127,1499.627-537.199,1500.058-537.199,1500.489z M-530.639,1496.828v-3.517
				c0-0.431,0.288-0.861,0.793-0.861h0.144c0.505,0,0.793,0.359,0.793,0.861v7.394c0,1.795-0.865,3.23-2.451,4.092
				c-0.721,0.431-1.514,0.646-2.379,0.646h-0.361c-1.802,0-3.244-0.861-4.109-2.441c-0.432-0.718-0.649-1.507-0.649-2.369v-0.359
				c0-1.795,0.865-3.23,2.451-4.092c0.721-0.431,1.514-0.646,2.379-0.646h0.361
				C-532.514,1495.608-531.504,1496.038-530.639,1496.828z"/>
			<g>
				<path fill="#1D9FBE" d="M-522.449,1482.939c-1.721,0.106-2.947-0.646-2.77-1.315c0.2-0.81,1.356-1.421,2.735,0
					c0,0,0.542-1.855-1.049-2.736c-0.495-0.27-1.132-0.434-1.78-0.434c-1.379,0.012-2.841,0.716-3.348,2.595
					c-0.035,0.34-0.106,0.575-0.106,0.575c-1.391-1.385-2.535-0.775-2.712,0c-0.165,0.669,1.049,1.421,2.77,1.315
					c3.112-0.164,5.211,1.08,5.211,1.08h6.26C-517.238,1484.019-519.337,1482.774-522.449,1482.939z"/>
				<path fill="#1D9FBE" d="M-528.697,1482.939c-1.721,0.106-2.947-0.646-2.77-1.315c0.2-0.81,1.356-1.421,2.735,0
					c0,0,0.542-1.855-1.049-2.736c-0.495-0.27-1.132-0.434-1.78-0.434c-1.379,0.012-2.853,0.716-3.36,2.595
					c-0.035,0.34-0.106,0.575-0.106,0.575c-1.391-1.385-2.535-0.775-2.712,0c-0.165,0.669,1.049,1.421,2.77,1.315
					c3.112-0.164,5.211,1.08,5.211,1.08h6.272C-523.486,1484.019-525.585,1482.774-528.697,1482.939z"/>
				<path fill="#1D9FBE" d="M-516.201,1482.939c-1.721,0.106-2.947-0.646-2.77-1.315c0.2-0.81,1.356-1.421,2.735,0
					c0,0,0.542-1.855-1.049-2.736c-0.495-0.27-1.132-0.434-1.78-0.434c-1.368,0.012-2.841,0.716-3.348,2.595
					c-0.035,0.34-0.106,0.575-0.106,0.575c-1.391-1.385-2.535-0.775-2.712,0c-0.165,0.669,1.049,1.421,2.77,1.315
					c3.112-0.164,5.211,1.08,5.211,1.08h6.26C-510.99,1484.019-513.088,1482.774-516.201,1482.939z"/>
				<path fill="#299CC0" d="M-529.947,1482.199c-1.721,0.106-3.148,0.235-2.971-0.434c0.189-0.775-1.344-1.702-0.271-0.552
					c-0.424-0.434-1.603-1.585-2.876-2.277c-0.554-0.317-1.155-0.458-1.745-0.458c-2.346,0-4.492,2.183-2.794,4.496
					c0.849,0.74,2.464,1.115,4.598,1.115h6.26C-529.747,1484.089-526.835,1482.035-529.947,1482.199z"/>
				<path fill="#1D9FBE" d="M-498.741,1481.624c0,0-0.071-0.235-0.106-0.575c-0.507-1.878-1.981-2.583-3.36-2.583
					c-0.637,0-1.261,0.153-1.768,0.423c-1.592,0.88-1.049,2.736-1.049,2.736c1.391-1.421,2.535-0.81,2.735,0
					c0.165,0.669-1.049,1.421-2.77,1.315c-3.112-0.164-5.211,1.08-5.211,1.08h6.26c0,0,2.099-1.244,5.211-1.08
					c1.721,0.106,2.947-0.646,2.77-1.315C-496.194,1480.849-497.35,1480.239-498.741,1481.624z"/>
				<path fill="#299CC0" d="M-494.532,1481.354c0,0-0.106-0.34-0.13-0.88c-0.755-2.853-2.983-3.933-5.081-3.933
					c-1.002,0.012-1.981,0.258-2.747,0.669c-2.405,1.315-1.592,4.144-1.592,4.144c2.134-2.125,3.855-1.209,4.126,0
					c0.236,1.01-1.592,2.125-4.232,1.984c-4.739-0.27-7.946,1.655-7.946,1.655h9.514c0,0,3.218-1.925,7.946-1.655
					c2.606,0.129,4.468-0.974,4.232-1.984C-490.677,1480.18-492.398,1479.264-494.532,1481.354z"/>
				<path fill="#1D9FBE" d="M-505.001,1481.624c0,0-0.071-0.235-0.106-0.575c-0.507-1.878-1.981-2.583-3.36-2.583
					c-0.636,0-1.261,0.153-1.768,0.423c-1.592,0.88-1.049,2.736-1.049,2.736c1.391-1.421,2.535-0.81,2.735,0
					c0.165,0.669-1.049,1.421-2.77,1.315c-3.112-0.164-5.211,1.08-5.211,1.08h6.26c0,0,2.098-1.244,5.211-1.08
					c1.721,0.106,2.947-0.646,2.77-1.315C-502.455,1480.849-503.61,1480.239-505.001,1481.624z"/>
				<path fill="#32A7C2" d="M-529.145,1484.946c-1.45,0.07-2.464-0.54-2.334-1.115c0.165-0.669,1.12-1.174,2.264,0
					c0,0,0.436-1.55-0.884-2.289c-0.424-0.235-0.955-0.364-1.509-0.364c-1.155,0-2.37,0.587-2.782,2.148
					c0,0.27-0.071,0.47-0.071,0.47c-1.155-1.174-2.098-0.669-2.264,0.035c-0.13,0.575,0.884,1.174,2.334,1.115
					c2.605-0.129,4.362,0.916,4.362,0.916h5.246C-524.783,1485.862-526.54,1484.817-529.145,1484.946z"/>
				<path fill="#3CABC5" d="M-533.566,1484.946c-1.45,0.07-2.464-0.54-2.334-1.115c0.165-0.669,1.12-1.174,2.264,0
					c0,0,0.436-1.55-0.884-2.289c-0.424-0.235-0.955-0.364-1.509-0.364c-1.144,0-2.37,0.587-2.782,2.148
					c0,0.27-0.071,0.47-0.071,0.47c-1.155-1.174-2.098-0.669-2.264,0.035c-0.13,0.575,0.884,1.174,2.334,1.115
					c2.605-0.129,4.362,0.916,4.362,0.916h5.246C-529.204,1485.862-530.961,1484.817-533.566,1484.946z"/>
				<path fill="#32A7C2" d="M-524.064,1485.099c-1.45,0.07-2.464-0.54-2.334-1.115c0.165-0.669,1.12-1.174,2.264,0
					c0,0,0.436-1.55-0.884-2.289c-0.425-0.235-0.955-0.364-1.509-0.364c-0.011,0-0.022,0-0.033,0c-1.134,0-2.34,0.591-2.749,2.148
					c0,0.27-0.071,0.47-0.071,0.47c-1.179-1.174-2.134-0.669-2.264,0.035c-0.13,0.575,0.884,1.174,2.334,1.115
					c2.605-0.129,4.362,0.916,4.362,0.916h5.246C-519.702,1486.015-521.459,1484.97-524.064,1485.099z"/>
				<path fill="#78C5DB" d="M-537.209,1484.946c-1.45,0.07-2.464-0.54-2.334-1.115c0.165-0.669,1.12-1.174,2.264,0
					c0,0,0.436-1.55-0.884-2.289c-0.436-0.235-0.92-0.34-1.403-0.34c-1.981,0-3.82,1.82-2.381,3.745
					c0.707,0.61,2.098,0.916,3.855,0.916h5.246C-532.847,1485.862-534.604,1484.817-537.209,1484.946z"/>
				<path fill="#299CC0" d="M-502.325,1483.444c0,0-0.071-0.305-0.106-0.704c-0.613-2.348-2.405-3.228-4.067-3.228
					c-0.022,0-0.043,0-0.065,0c-0.756,0-1.496,0.198-2.081,0.529c-1.933,1.08-1.25,3.405-1.25,3.405c1.686-1.749,3.077-1.01,3.313,0
					c0.2,0.845-1.285,1.749-3.383,1.655c-3.784-0.2-6.331,1.35-6.331,1.35h7.616c0,0,2.676-1.115,6.425-0.916
					c2.098,0.129,3.49-1.245,3.277-2.09C-499.248,1482.434-500.639,1481.694-502.325,1483.444z"/>
				<path fill="#3CABC5" d="M-508.538,1483.948c0,0-0.071-0.2-0.071-0.47c-0.413-1.573-1.639-2.16-2.782-2.16
					c-0.554,0-1.096,0.141-1.509,0.376c-1.32,0.74-0.884,2.289-0.884,2.289c1.155-1.174,2.098-0.669,2.264,0
					c0.13,0.575-0.884,1.174-2.334,1.115c-2.605-0.129-4.362,0.916-4.362,0.916h5.246c0,0,1.757-1.045,4.362-0.916
					c1.45,0.07,2.464-0.54,2.334-1.115C-506.439,1483.279-507.394,1482.774-508.538,1483.948z"/>
				<path fill="#238BB5" d="M-536.348,1477.174l0.436,0.81c0.271,0.47,0.578,0.916,0.908,1.35c1.592,0.106,3.006,0.129,4.362,0.106
					c2.605-0.07,4.739-0.376,6.354-0.916c0.236-0.07,0.507,0.035,0.578,0.27c0.071,0.235-0.035,0.505-0.271,0.575
					c-0.2,0.07-0.436,0.129-0.672,0.2c-1.285,0.376-2.735,0.61-4.503,0.74h-0.236c-0.672,0.035-1.426,0.07-2.193,0.07
					c-0.849,0-1.686,0-2.606-0.07c3.183,3.569,8.217,5.729,14.442,5.729c11.33,0,21.173-4.285,26.891-13.759l-45.011,0.012
					C-537.633,1474.04-537.127,1475.695-536.348,1477.174z"/>
				<path fill="#3A4D54" d="M-488.284,1461.948c-0.307-2.395-1.863-4.485-3.749-5.999l-0.743-0.61l-0.648,0.704
					c-1.25,1.444-1.627,3.874-1.45,5.729c0.106,1.35,0.543,2.735,1.391,3.839c-0.648,0.376-1.391,0.669-2.028,0.916
					c-1.32,0.47-2.77,0.704-4.161,0.704h-3.006v-6.069h-5.954l-0.035-0.035v-12.069h-7.179v6.105h-11.944v5.964h-5.954v6.069h-5.104
					l-0.071,0.916c-0.047,0.587-0.083,1.162-0.083,1.749v0.023c0,2.407,0.46,4.801,1.462,6.997l0.542,1.08l0.071,0.106
					c3.655,6.234,10.15,8.864,17.189,8.864c13.664,0,24.899-6.069,30.074-18.913c3.49,0.2,7.003-0.81,8.689-4.109l0.436-0.845
					l-0.813-0.47C-483.344,1461.443-486.021,1461.279-488.284,1461.948z"/>
				<path fill="#2193C1" d="M-537.928,1468.241c-0.307,3.275,0.271,6.269,1.592,8.864l0.436,0.81c0.271,0.47,0.578,0.916,0.908,1.35
					c1.592,0.106,3.006,0.129,4.362,0.106c2.606-0.071,4.739-0.376,6.354-0.916c0.236-0.071,0.507,0.035,0.578,0.27
					s-0.035,0.505-0.271,0.575c-0.2,0.071-0.436,0.129-0.672,0.2c-1.285,0.376-2.641,0.61-4.397,0.704h-0.106h-0.2
					c-0.672,0.035-1.45,0.035-2.205,0.035c-0.849,0-1.662,0-2.57-0.07h-0.035c3.183,3.569,8.182,5.694,14.406,5.694
					c13.227,0,24.451-5.835,29.391-18.948c3.513,0.376,6.897-0.54,8.453-3.534c-2.44-1.315-5.612-0.88-7.404,0.035
					c0.401-3.099-1.933-5.529-3.383-6.703c-1.639,1.925-1.91,6.938,0.696,9.063c-1.45,1.28-4.527,2.465-7.675,2.465H-537.928
					L-537.928,1468.241z"/>
				<g>
					<path fill="#209DC6" d="M-529.204,1480.203l0.035,0.035h0.024C-529.169,1480.227-529.192,1480.215-529.204,1480.203z"/>
					<path fill="#209DC6" d="M-492.67,1456.712c-1.662,1.925-1.933,6.938,0.672,9.063c-1.45,1.28-4.527,2.465-7.675,2.465h-35.992
						c-0.165,5.025,1.721,8.793,5.01,11.129c2.606-0.071,4.739-0.376,6.354-0.916c0.236-0.071,0.507,0.035,0.578,0.27
						c0.071,0.235-0.035,0.505-0.271,0.575c-0.2,0.071-0.436,0.129-0.672,0.2c-1.273,0.364-2.723,0.634-4.468,0.74
						c4.492,2.254,10.999,2.242,18.438-0.61c8.394-3.205,16.198-9.333,21.645-16.318c-0.106,0.106-0.165,0.106-0.236,0.106
						C-488.885,1460.316-491.22,1457.886-492.67,1456.712z"/>
				</g>
				<rect x="-526.764" y="1456.289" fill="#299CC0" width="5.175" height="5.119"/>
				<rect x="-526.339" y="1456.559" fill="#3A4D54" width="0.401" height="4.32"/>
				<rect x="-525.561" y="1456.559" fill="#3A4D54" width="0.436" height="4.32"/>
				<rect x="-524.783" y="1456.559" fill="#3A4D54" width="0.436" height="4.32"/>
				<rect x="-524.005" y="1456.559" fill="#3A4D54" width="0.436" height="4.32"/>
				<rect x="-523.227" y="1456.559" fill="#3A4D54" width="0.436" height="4.32"/>
				<rect x="-522.414" y="1456.559" fill="#3A4D54" width="0.401" height="4.32"/>
				<rect x="-526.764" y="1462.23" fill="#3CABC5" width="5.175" height="5.154"/>
				<rect x="-526.339" y="1462.547" fill="#3A4D54" width="0.401" height="4.32"/>
				<rect x="-525.561" y="1462.547" fill="#3A4D54" width="0.436" height="4.32"/>
				<rect x="-524.783" y="1462.547" fill="#3A4D54" width="0.436" height="4.32"/>
				<rect x="-524.005" y="1462.547" fill="#3A4D54" width="0.436" height="4.32"/>
				<rect x="-523.227" y="1462.547" fill="#3A4D54" width="0.436" height="4.32"/>
				<rect x="-522.414" y="1462.547" fill="#3A4D54" width="0.401" height="4.32"/>
				<rect x="-532.717" y="1462.23" fill="#299CC0" width="5.175" height="5.154"/>
				<rect x="-532.258" y="1462.547" fill="#3A4D54" width="0.401" height="4.32"/>
				<rect x="-531.48" y="1462.547" fill="#3A4D54" width="0.436" height="4.32"/>
				<rect x="-530.701" y="1462.547" fill="#3A4D54" width="0.436" height="4.32"/>
				<rect x="-529.923" y="1462.547" fill="#3A4D54" width="0.436" height="4.32"/>
				<rect x="-529.145" y="1462.547" fill="#3A4D54" width="0.436" height="4.32"/>
				<rect x="-528.332" y="1462.547" fill="#3A4D54" width="0.401" height="4.32"/>
				<rect x="-520.775" y="1456.289" fill="#3CABC5" width="5.175" height="5.119"/>
				<rect x="-520.421" y="1456.559" fill="#3A4D54" width="0.401" height="4.32"/>
				<rect x="-519.643" y="1456.559" fill="#3A4D54" width="0.436" height="4.32"/>
				<rect x="-518.865" y="1456.559" fill="#3A4D54" width="0.436" height="4.32"/>
				<rect x="-518.087" y="1456.559" fill="#3A4D54" width="0.436" height="4.32"/>
				<rect x="-517.309" y="1456.559" fill="#3A4D54" width="0.436" height="4.32"/>
				<rect x="-516.496" y="1456.559" fill="#3A4D54" width="0.401" height="4.32"/>
				<rect x="-520.775" y="1462.23" fill="#299CC0" width="5.175" height="5.154"/>
				<rect x="-520.374" y="1462.547" fill="#3A4D54" width="0.401" height="4.32"/>
				<rect x="-519.596" y="1462.547" fill="#3A4D54" width="0.436" height="4.32"/>
				<rect x="-518.818" y="1462.547" fill="#3A4D54" width="0.436" height="4.32"/>
				<rect x="-518.04" y="1462.547" fill="#3A4D54" width="0.436" height="4.32"/>
				<rect x="-517.262" y="1462.547" fill="#3A4D54" width="0.436" height="4.32"/>
				<rect x="-516.448" y="1462.547" fill="#3A4D54" width="0.401" height="4.32"/>
				<rect x="-514.821" y="1456.289" fill="#299CC0" width="5.175" height="5.119"/>
				<rect x="-514.397" y="1456.642" fill="#3A4D54" width="0.401" height="4.32"/>
				<rect x="-513.619" y="1456.642" fill="#3A4D54" width="0.436" height="4.32"/>
				<rect x="-512.841" y="1456.642" fill="#3A4D54" width="0.436" height="4.32"/>
				<rect x="-512.063" y="1456.642" fill="#3A4D54" width="0.436" height="4.32"/>
				<rect x="-511.285" y="1456.642" fill="#3A4D54" width="0.436" height="4.32"/>
				<rect x="-510.471" y="1456.642" fill="#3A4D54" width="0.401" height="4.32"/>
				<rect x="-514.821" y="1462.23" fill="#3CABC5" width="5.175" height="5.154"/>
				<rect x="-514.397" y="1462.547" fill="#3A4D54" width="0.401" height="4.32"/>
				<rect x="-513.619" y="1462.547" fill="#3A4D54" width="0.436" height="4.32"/>
				<rect x="-512.841" y="1462.547" fill="#3A4D54" width="0.436" height="4.32"/>
				<rect x="-512.063" y="1462.547" fill="#3A4D54" width="0.436" height="4.32"/>
				<rect x="-511.285" y="1462.547" fill="#3A4D54" width="0.436" height="4.32"/>
				<rect x="-510.471" y="1462.547" fill="#3A4D54" width="0.401" height="4.32"/>
				<rect x="-508.833" y="1462.23" fill="#299CC0" width="5.175" height="5.154"/>
				<rect x="-508.467" y="1462.547" fill="#3A4D54" width="0.401" height="4.32"/>
				<rect x="-507.689" y="1462.547" fill="#3A4D54" width="0.436" height="4.32"/>
				<rect x="-506.911" y="1462.547" fill="#3A4D54" width="0.436" height="4.32"/>
				<rect x="-506.133" y="1462.547" fill="#3A4D54" width="0.436" height="4.32"/>
				<rect x="-505.355" y="1462.547" fill="#3A4D54" width="0.436" height="4.32"/>
				<rect x="-504.553" y="1462.547" fill="#3A4D54" width="0.401" height="4.32"/>
				<path fill="#D4E3E2" d="M-521.895,1475.684c-0.814,0.012-1.427,0.646-1.427,1.421c0,0.775,0.648,1.421,1.427,1.421
					c0.778,0,1.426-0.646,1.426-1.421C-520.468,1476.329-521.117,1475.684-521.895,1475.684z"/>
				<path fill="#3A4D54" d="M-521.341,1476.975c-0.2,0-0.401-0.164-0.401-0.399c0-0.164,0.071-0.305,0.2-0.376
					c-0.106-0.035-0.236-0.071-0.377-0.071c-0.554,0-1.002,0.434-1.002,1.045c0,0.54,0.436,1.01,1.014,1.01
					c0.542,0,1.014-0.434,1.014-1.01c0-0.164-0.035-0.27-0.071-0.399C-521.034,1476.881-521.164,1476.975-521.341,1476.975z"/>
				<path fill="#BFD8D7" d="M-524.677,1479.569c-1.32,0.364-2.876,0.599-4.727,0.704c-0.672,0.035-1.427,0.07-2.169,0.07
					c-0.884,0-1.792-0.035-2.77-0.07c3.242,3.24,7.239,5.729,14.607,5.764c0.542-0.035,1.085-0.035,1.627-0.035
					C-521.659,1484.312-523.593,1482.058-524.677,1479.569z"/>
				<path fill="#D4E3E2" d="M-529.405,1480.274c1.285,0.669,3.077,1.35,6.06,1.585c-0.472-0.669-0.943-1.479-1.32-2.289
					C-525.998,1479.933-527.577,1480.168-529.405,1480.274z"/>
				<path fill="#279FC0" d="M-512.581,1487.658c-1.816,0.071-3.03-0.47-2.924-0.986c0.212-1.104,1.285-1.691,2.511-1.033
					c-0.141-0.516-0.731-1.186-2.016-1.421c-0.2-0.035-0.424-0.059-0.66-0.059c-1.273,0-2.888,0.587-3.454,2.09
					c-0.035,0.247-0.106,0.423-0.106,0.423c-1.462-1.057-2.676-0.61-2.888,0c-0.177,0.493,1.12,1.057,2.924,0.986
					c3.277-0.117,5.541,0.81,5.541,0.81h6.614C-507.041,1488.468-509.269,1487.506-512.581,1487.658z"/>
				<path fill="#3CABC5" d="M-517.616,1487.494c-1.533,0.082-2.617-0.587-2.464-1.174c0.177-0.728,1.202-1.256,2.44,0
					c0,0,0.472-1.667-0.943-2.43c-0.448-0.235-1.014-0.376-1.603-0.376c-1.25,0.012-2.558,0.634-2.994,2.313
					c-0.024,0.293-0.083,0.493-0.083,0.493c-1.261-1.197-2.264-0.669-2.405,0c-0.141,0.587,0.943,1.256,2.464,1.174
					c2.794-0.176,4.669,0.963,4.669,0.963h5.588C-512.947,1488.456-514.857,1487.341-517.616,1487.494z"/>
				<path fill="#78C5DB" d="M-520.987,1487.353c-1.756,0.106-3.006-0.669-2.841-1.35c0.2-0.845,1.391-1.444,2.806,0
					c0,0,0.542-1.925-1.085-2.794c-0.566-0.305-1.179-0.434-1.78-0.434c-2.405,0-4.645,2.195-2.888,4.543
					c0.884,0.775,2.535,1.151,4.739,1.151h6.425C-515.611,1488.468-517.816,1487.189-520.987,1487.353z"/>
				<path fill="#3CABC5" d="M-498.152,1484.113c0,0-0.071-0.235-0.071-0.54c-0.483-1.796-1.886-2.477-3.195-2.477
					c-0.636,0.012-1.238,0.164-1.709,0.423c-1.521,0.845-1.014,2.594-1.014,2.594c1.32-1.35,2.44-0.775,2.605,0
					c0.165,0.646-1.014,1.35-2.676,1.245c-2.971-0.164-5.01,1.045-5.01,1.045h5.989c0,0,2.028-1.209,5.01-1.045
					c1.662,0.106,2.806-0.61,2.676-1.245C-495.711,1483.303-496.796,1482.763-498.152,1484.113z"/>
				<path fill="#78C5DB" d="M-496.301,1481.096c-0.566,0.012-1.132,0.141-1.662,0.423c-1.521,0.845-1.014,2.594-1.014,2.594
					c1.32-1.35,2.44-0.775,2.606,0c0.165,0.646-1.014,1.35-2.676,1.244c-2.971-0.164-5.01,1.045-5.01,1.045h5.989
					c2.028,0,3.619-0.376,4.433-1.045C-491.986,1483.174-494.061,1481.096-496.301,1481.096z"/>
			</g>
		</g>
	</g>
	<g>
		<g transform="scale(0.1953125, 0.1953125)">
			<path fill="#FFFFFF" d="M-2798.087,6753.297v81.92h81.92v-54.613h-5.851v-20.48h-39.497l-1.463-6.827H-2798.087z
				 M-2757.127,6780.604l-2.926-13.653h32.183v13.653H-2757.127z"/>
		</g>
	</g>
	<g>
		<polygon fill="#FFFFFF" points="-538.5,1337 -538.5,1341 -534.5,1341 		"/>
		<polygon fill="#FFFFFF" points="-539.5,1337 -546.5,1337 -546.5,1353 -534.5,1353 -534.5,1342 -539.5,1342 		"/>
	</g>
	<g>
		
			<linearGradient id="SVGID_1_" gradientUnits="userSpaceOnUse" x1="-1017" y1="-696" x2="-987" y2="-696" gradientTransform="matrix(1 0 0 -1 470.5 716)">
			<stop  offset="0" style="stop-color:#3A7DB8"/>
			<stop  offset="1" style="stop-color:#3A7BB6"/>
		</linearGradient>
		<rect x="-546.5" y="1411" fill="url(#SVGID_1_)" width="30" height="2"/>
		
			<linearGradient id="SVGID_2_" gradientUnits="userSpaceOnUse" x1="-1017" y1="-699" x2="-987" y2="-699" gradientTransform="matrix(1 0 0 -1 470.5 716)">
			<stop  offset="0" style="stop-color:#3A7DB8"/>
			<stop  offset="1" style="stop-color:#3A7BB6"/>
		</linearGradient>
		<rect x="-546.5" y="1414" fill="url(#SVGID_2_)" width="30" height="2"/>
		<polygon fill="#87B928" points="-546.5,1417 -546.5,1419 -534.5,1419 -534.5,1441 -532.5,1441 -532.5,1419 -532.5,1417 
			-534.5,1417 		"/>
		
			<linearGradient id="SVGID_3_" gradientUnits="userSpaceOnUse" x1="-1017" y1="-714.5" x2="-1006" y2="-714.5" gradientTransform="matrix(1 0 0 -1 470.5 716)">
			<stop  offset="0" style="stop-color:#3A7DB8"/>
			<stop  offset="1" style="stop-color:#3A7BB6"/>
		</linearGradient>
		<polygon fill="url(#SVGID_3_)" points="-546.5,1422 -537.5,1422 -537.5,1441 -535.5,1441 -535.5,1422 -535.5,1422 -535.5,1420 
			-546.5,1420 		"/>
		<polygon fill="#87B928" points="-530.5,1417 -530.5,1419 -530.5,1441 -528.5,1441 -528.5,1419 -516.5,1419 -516.5,1417 
			-528.5,1417 		"/>
		
			<linearGradient id="SVGID_4_" gradientUnits="userSpaceOnUse" x1="-998" y1="-714.5" x2="-987" y2="-714.5" gradientTransform="matrix(1 0 0 -1 470.5 716)">
			<stop  offset="0" style="stop-color:#3A7DB8"/>
			<stop  offset="1" style="stop-color:#3A7BB6"/>
		</linearGradient>
		<polygon fill="url(#SVGID_4_)" points="-527.5,1422 -527.5,1422 -527.5,1441 -525.5,1441 -525.5,1422 -516.5,1422 -516.5,1420 
			-527.5,1420 		"/>
		<path fill="#FFFFFF" d="M-505.467,1419.818l-6.033,16h2.732l1.749-5h6.091l1.748,5h2.709l-5.963-16H-505.467z M-506.266,1428.818
			c0.193,0,0.386-1.054,0.579-1.583c0.193-0.529,0.384-1.026,0.573-1.547c0.189-0.521,0.378-1.028,0.567-1.55
			c0.189-0.521,0.38-1.1,0.573-1.64l2.27,6.32H-506.266L-506.266,1428.818z"/>
		<path fill="#FFFFFF" d="M-484.875,1428.269c-0.444-0.355-0.949-0.66-1.517-0.915c-0.567-0.254-1.146-0.486-1.737-0.695
			c-0.591-0.208-1.169-0.411-1.737-0.607c-0.567-0.197-1.073-0.419-1.517-0.666s-0.801-0.535-1.071-0.863
			c-0.271-0.328-0.405-0.728-0.405-1.198c0-0.417,0.09-0.772,0.272-1.065c0.181-0.293,0.418-0.528,0.712-0.706
			s0.627-0.307,1.002-0.388c0.374-0.081,0.754-0.122,1.14-0.122c0.425,0,0.826,0.07,1.205,0.208
			c0.378,0.139,0.714,0.344,1.007,0.614c0.293,0.271,0.534,0.378,0.724,0.78c0.189,0.401,0.303,1.173,0.341,1.173h2.628
			c-0.031,0-0.092-0.555-0.185-0.965c-0.093-0.41-0.236-0.695-0.428-1.084c-0.193-0.39-0.438-0.703-0.735-1.055
			c-0.297-0.351-0.66-0.627-1.088-0.886c-0.429-0.259-0.929-0.451-1.5-0.605c-0.571-0.154-1.228-0.224-1.969-0.224
			c-0.841,0-1.611,0.098-2.31,0.287c-0.698,0.189-1.301,0.467-1.806,0.829c-0.505,0.363-0.897,0.813-1.175,1.35
			c-0.278,0.537-0.417,1.157-0.417,1.859c0,0.71,0.135,1.32,0.405,1.83c0.271,0.509,0.627,0.948,1.071,1.314
			c0.444,0.367,0.95,0.68,1.517,0.938c0.567,0.259,1.148,0.494,1.742,0.707c0.595,0.212,1.175,0.415,1.743,0.608
			s1.073,0.407,1.517,0.643c0.444,0.236,0.801,0.505,1.071,0.811c0.271,0.305,0.405,0.677,0.405,1.117
			c0,0.533-0.098,0.984-0.295,1.354c-0.197,0.371-0.459,0.672-0.788,0.903c-0.329,0.231-0.706,0.399-1.135,0.504
			c-0.428,0.104-0.878,0.156-1.349,0.156c-0.532,0-1.019-0.097-1.458-0.29c-0.44-0.193-0.824-0.463-1.152-0.811
			s-0.59-0.508-0.787-0.983c-0.196-0.475-0.314-1.308-0.353-1.308h-2.628c0.016,0,0.11,0.931,0.284,1.464
			c0.174,0.532,0.407,0.896,0.701,1.339c0.293,0.444,0.641,0.775,1.042,1.119s0.835,0.604,1.303,0.843
			c0.467,0.239,0.959,0.405,1.476,0.528c0.517,0.123,1.042,0.178,1.575,0.178c0.888,0,1.708-0.11,2.461-0.323
			c0.752-0.212,1.401-0.529,1.945-0.945c0.544-0.417,0.968-0.937,1.273-1.559c0.305-0.621,0.458-1.341,0.458-2.16
			c0-0.687-0.135-1.276-0.405-1.766C-484.074,1429.047-484.431,1428.624-484.875,1428.269z"/>
		<path fill="#FFFFFF" d="M-470.232,1431.452c-0.247,0.525-0.562,0.998-0.944,1.407c-0.382,0.409-0.828,0.742-1.337,0.993
			c-0.509,0.25-1.077,0.378-1.702,0.378c-0.61,0-1.21-0.136-1.8-0.41c-0.591-0.274-1.12-0.692-1.586-1.256
			c-0.467-0.563-0.844-1.271-1.129-2.124c-0.286-0.853-0.429-1.858-0.429-3.016c0-0.857,0.12-1.673,0.359-2.449
			c0.239-0.776,0.577-1.455,1.013-2.038c0.436-0.583,0.956-1.048,1.558-1.395s1.266-0.521,1.992-0.521
			c1.142,0,2.082,0.428,2.819,1.007s1.314,1.791,1.731,2.791h2.675c-0.231-1-0.548-1.695-0.949-2.374
			c-0.402-0.679-0.899-1.333-1.494-1.823c-0.594-0.49-1.287-0.909-2.078-1.187c-0.792-0.278-1.692-0.434-2.704-0.434
			c-0.795,0-1.531,0.1-2.206,0.316c-0.675,0.216-1.293,0.513-1.853,0.899c-0.56,0.386-1.054,0.839-1.482,1.364
			c-0.429,0.525-0.79,1.099-1.083,1.725c-0.293,0.625-0.515,1.285-0.666,1.979c-0.15,0.694-0.226,1.401-0.226,2.118
			c0,1.39,0.177,2.634,0.532,3.734c0.355,1.1,0.859,2.032,1.511,2.796c0.652,0.764,1.443,1.347,2.374,1.748
			c0.93,0.401,1.97,0.603,3.121,0.603c0.996,0,1.897-0.168,2.704-0.504c0.807-0.336,1.509-0.793,2.107-1.372
			c0.598-0.579,1.092-1.273,1.482-2.057c0.39-0.783,0.669-1.531,0.839-2.531h-2.617
			C-469.808,1430.818-469.986,1430.927-470.232,1431.452z"/>
	</g>
	<g>
		<g transform="scale(0.1953125, 0.1953125)">
			<path fill="#FFFFFF" d="M-2666.887,7004.178h-57.6c-1.06,0-1.92-1.144-1.92-2.56c0-1.414,0.86-2.56,1.92-2.56h57.6
				c1.06,0,1.92,1.146,1.92,2.56C-2664.968,7003.034-2665.828,7004.178-2666.887,7004.178z M-2693.318,6994.155
				c-0.744,0.744-1.947,0.744-2.689,0c-0.126-0.125-2.927-3.005-3.01-3.153l-21.712-21.712c-0.744-0.744-0.744-1.947,0-2.691
				c0.742-0.742,1.945-0.742,2.689,0l21.495,21.497v-48.576c0-1.05,0.852-1.902,1.902-1.902s1.902,0.852,1.902,1.902v48.68
				l21.495-21.497c0.744-0.744,1.947-0.744,2.689,0c0.744,0.744,0.744,1.945,0,2.689L-2693.318,6994.155z"/>
		</g>
	</g>
	<g>
		<g>
			<g transform="scale(0.1953125, 0.1953125)">
				<path fill="#39B3EF" d="M-2739.133,7004.178h-57.052c-1.05,0-1.902-1.144-1.902-2.56c0-1.414,0.852-2.56,1.902-2.56h57.052
					c1.05,0,1.902,1.146,1.902,2.56C-2737.231,7003.034-2738.083,7004.178-2739.133,7004.178z M-2766.333,6994.155
					c-0.744,0.744-1.947,0.744-2.689,0c-0.126-0.125-2.927-3.005-3.01-3.153l-21.713-21.712c-0.744-0.744-0.744-1.947,0-2.691
					c0.742-0.742,1.945-0.742,2.689,0l21.495,21.497v-48.576c0-1.05,0.852-1.902,1.902-1.902c1.05,0,1.902,0.852,1.902,1.902v48.68
					l21.495-21.497c0.744-0.744,1.947-0.744,2.689,0c0.744,0.744,0.744,1.945,0,2.689L-2766.333,6994.155z"/>
			</g>
		</g>
	</g>
	<polygon fill="#FFFFFF" points="-516.5,1303.392 -540.698,1303.392 -532.448,1295.143 -534.591,1293 -546.5,1304.908 
		-534.591,1316.816 -532.448,1314.673 -540.698,1306.423 -516.5,1306.423 	"/>
	<polygon fill="#39B3EF" points="-539.5,1373 -542.5,1373 -542.5,1370 -543.5,1370 -543.5,1373 -546.5,1373 -546.5,1374 
		-543.5,1374 -543.5,1377 -542.5,1377 -542.5,1374 -539.5,1374 	"/>
	<polygon fill="#FFFFFF" points="-530.5,1373 -533.5,1373 -533.5,1370 -534.5,1370 -534.5,1373 -537.5,1373 -537.5,1374 
		-534.5,1374 -534.5,1377 -533.5,1377 -533.5,1374 -530.5,1374 	"/>
</g>
<g>
	<path fill="#999999" d="M-534.363,1528.248l-12.137-13.24h24.273L-534.363,1528.248z M-544.227,1516.008l9.863,10.76l9.863-10.76
		H-544.227z"/>
</g>
<g>
	<path fill="#999999" d="M-520.5,1539.273V1515l13.24,12.137L-520.5,1539.273z M-519.5,1517.273V1537l10.76-9.863L-519.5,1517.273z"
		/>
</g>
<g>
	<path fill="#39B3EF" d="M-538.5,1552.5c0,1.381-0.895,2.5-2,2.5l0,0c-1.105,0-2-1.119-2-2.5v-5c0-1.381,0.895-2.5,2-2.5l0,0
		c1.105,0,2,1.119,2,2.5V1552.5z"/>
	<g>
		<path fill="#999999" d="M-544.5,1549v-4c0-1.103,0.897-2,2-2h4c1.103,0,2,0.897,2,2v4h2v-4c0-2.206-1.794-4-4-4h-4
			c-2.206,0-4,1.794-4,4v4H-544.5z"/>
		<path fill="#999999" d="M-536.5,1551v4c0,1.103-0.897,2-2,2h-4c-1.103,0-2-0.897-2-2v-4h-2v4c0,2.206,1.794,4,4,4h4
			c2.206,0,4-1.794,4-4v-4H-536.5z"/>
	</g>
</g>
<g>
	<circle fill="#F3A93A" cx="-539.5" cy="1568" r="7"/>
	<g>
		<path fill="#FFFFFF" d="M-540.484,1570.934h1.793v1.77h-1.793V1570.934z M-540.414,1563.059h1.828l-0.258,6.926h-1.523
			L-540.414,1563.059z"/>
	</g>
</g>
<polygon fill="#999999" points="-538.5,1577 -542.5,1581 -546.5,1577 "/>
<path fill="#22A3A9" d="M-423.5,1379h-24c-1.657,0-3,1.194-3,2.667v2.667c0,1.473,1.343,2.667,3,2.667h24c1.657,0,3-1.194,3-2.667
	v-2.667C-420.5,1380.194-421.843,1379-423.5,1379z M-427,1384c-0.828,0-1.5-0.672-1.5-1.5s0.672-1.5,1.5-1.5s1.5,0.672,1.5,1.5
	S-426.172,1384-427,1384z"/>
<path fill="#22A3A9" d="M-423.5,1390h-24c-1.657,0-3,1.194-3,2.667v2.667c0,1.473,1.343,2.667,3,2.667h24c1.657,0,3-1.194,3-2.667
	v-2.667C-420.5,1391.194-421.843,1390-423.5,1390z M-427,1396c-0.828,0-1.5-0.672-1.5-1.5s0.672-1.5,1.5-1.5s1.5,0.672,1.5,1.5
	S-426.172,1396-427,1396z"/>
<path fill="#22A3A9" d="M-423.5,1401h-24c-1.657,0-3,1.194-3,2.667v2.667c0,1.473,1.343,2.667,3,2.667h24c1.657,0,3-1.194,3-2.667
	v-2.667C-420.5,1402.194-421.843,1401-423.5,1401z M-427,1406c-0.828,0-1.5-0.672-1.5-1.5s0.672-1.5,1.5-1.5s1.5,0.672,1.5,1.5
	S-426.172,1406-427,1406z"/>
<g>
	<path fill="none" d="M-400.49,1251.75l2.486-1.322l-2.452-1.312c-0.289-0.155-0.764-0.155-1.055,0l-2.486,1.322l2.452,1.312
		C-401.252,1251.907-400.781,1251.904-400.49,1251.75z"/>
	<path fill="none" d="M-401.744,1252.841l-3.376-1.806l-1.161,0.617c-0.291,0.155-0.292,0.408-0.003,0.563l4.738,2.536
		c0.294,0.157,0.764,0.155,1.055,0l4.769-2.535c0.291-0.155,0.297-0.406,0.003-0.563l-1.172-0.627l-3.416,1.816
		C-400.702,1253.051-401.344,1253.055-401.744,1252.841z"/>
	<path fill="none" d="M-400.258,1248.158l3.251,1.74l1.286-0.684c0.291-0.155,0.297-0.406,0.003-0.563l-4.738-2.536
		c-0.289-0.155-0.764-0.155-1.055,0l-4.769,2.535c-0.291,0.155-0.292,0.408-0.003,0.563l1.296,0.693l3.291-1.75
		C-401.301,1247.947-400.652,1247.947-400.258,1248.158z"/>
	<path fill="#999999" d="M-393.797,1251.616l-2.095-1.121l2.091-1.111c0.397-0.211,0.405-0.553,0.005-0.768l-6.461-3.457
		c-0.394-0.211-1.042-0.211-1.439,0l-6.504,3.457c-0.397,0.211-0.399,0.557-0.005,0.767l2.095,1.121l-2.091,1.111
		c-0.397,0.211-0.399,0.557-0.005,0.767l6.461,3.458c0.401,0.214,1.042,0.211,1.439,0l6.504-3.457
		C-393.405,1252.172-393.396,1251.83-393.797,1251.616z M-406.284,1249.214c-0.289-0.155-0.287-0.408,0.003-0.563l4.769-2.535
		c0.291-0.155,0.766-0.155,1.055,0l4.738,2.536c0.294,0.157,0.288,0.408-0.003,0.563l-1.286,0.684l-0.997,0.53l-2.486,1.322
		c-0.291,0.155-0.762,0.157-1.055,0l-2.452-1.312l-0.991-0.53L-406.284,1249.214z M-395.721,1252.214l-4.769,2.535
		c-0.291,0.155-0.762,0.157-1.055,0l-4.738-2.536c-0.289-0.155-0.287-0.408,0.003-0.563l1.161-0.617l3.376,1.806
		c0.401,0.214,1.042,0.211,1.439,0l3.416-1.816l1.172,0.627C-395.424,1251.809-395.43,1252.06-395.721,1252.214z"/>
</g>
<g>
	<path fill="#39B3EF" d="M-401.697,1242.158c0.397-0.211,1.045-0.211,1.439,0l6.462,3.457c0.401,0.214,0.392,0.557-0.005,0.768
		l-6.504,3.457c-0.397,0.211-1.039,0.214-1.439,0l-6.461-3.458c-0.394-0.211-0.392-0.557,0.005-0.767L-401.697,1242.158z"/>
</g>
</svg>
