<?xml version="1.0" encoding="utf-8"?>
<!-- Generator: Adobe Illustrator 17.0.0, SVG Export Plug-In . SVG Version: 6.00 Build 0)  -->
<!DOCTYPE svg PUBLIC "-//W3C//DTD SVG 1.1//EN" "http://www.w3.org/Graphics/SVG/1.1/DTD/svg11.dtd">
<svg version="1.1" xmlns="http://www.w3.org/2000/svg" xmlns:xlink="http://www.w3.org/1999/xlink" x="0px" y="0px" width="1306px"
	 height="634px" viewBox="0 0 1306 634" enable-background="new 0 0 1306 634" xml:space="preserve">
<g id="图层_3">
	
		<radialGradient id="SVGID_1_" cx="653" cy="340" r="523.884" gradientTransform="matrix(1 0 0 0.9857 0 9.8571)" gradientUnits="userSpaceOnUse">
		<stop  offset="0" style="stop-color:#007CFF"/>
		<stop  offset="1" style="stop-color:#01305C"/>
	</radialGradient>
	<rect display="none" fill="url(#SVGID_1_)" width="1306" height="690"/>
	
		<radialGradient id="SVGID_2_" cx="652" cy="346.2491" r="522.1409" gradientTransform="matrix(1 0 0 1.0036 0 -2.5036)" gradientUnits="userSpaceOnUse">
		<stop  offset="0" style="stop-color:#007CFF"/>
		<stop  offset="1" style="stop-color:#01305C"/>
	</radialGradient>
	<rect x="-1" y="-1" display="none" fill="url(#SVGID_2_)" width="1306" height="692"/>
	<g id="网格">
		<g opacity="0.2">
			
				<line opacity="0.3" fill="none" stroke="#010F14" stroke-width="0.75" stroke-miterlimit="10" x1="3280.644" y1="930.811" x2="1253.962" y2="-239.295"/>
			
				<line opacity="0.3" fill="none" stroke="#010F14" stroke-width="0.75" stroke-miterlimit="10" x1="3216.382" y1="930.811" x2="1189.699" y2="-239.295"/>
			
				<line opacity="0.3" fill="none" stroke="#010F14" stroke-width="0.75" stroke-miterlimit="10" x1="3152.119" y1="930.811" x2="1125.437" y2="-239.295"/>
			
				<line opacity="0.3" fill="none" stroke="#010F14" stroke-width="0.75" stroke-miterlimit="10" x1="3087.857" y1="930.811" x2="1061.174" y2="-239.295"/>
			
				<line opacity="0.3" fill="none" stroke="#010F14" stroke-width="0.75" stroke-miterlimit="10" x1="3023.594" y1="930.811" x2="996.912" y2="-239.295"/>
			
				<line opacity="0.3" fill="none" stroke="#010F14" stroke-width="0.75" stroke-miterlimit="10" x1="2959.332" y1="930.811" x2="932.65" y2="-239.295"/>
			
				<line opacity="0.3" fill="none" stroke="#010F14" stroke-width="0.75" stroke-miterlimit="10" x1="2895.07" y1="930.811" x2="868.387" y2="-239.295"/>
			
				<line opacity="0.3" fill="none" stroke="#010F14" stroke-width="0.75" stroke-miterlimit="10" x1="2830.807" y1="930.811" x2="804.125" y2="-239.295"/>
			
				<line opacity="0.3" fill="none" stroke="#010F14" stroke-width="0.75" stroke-miterlimit="10" x1="2766.545" y1="930.811" x2="739.863" y2="-239.295"/>
			
				<line opacity="0.3" fill="none" stroke="#010F14" stroke-width="0.75" stroke-miterlimit="10" x1="2702.282" y1="930.811" x2="675.6" y2="-239.295"/>
			
				<line opacity="0.3" fill="none" stroke="#010F14" stroke-width="0.75" stroke-miterlimit="10" x1="2638.02" y1="930.811" x2="611.338" y2="-239.295"/>
			
				<line opacity="0.3" fill="none" stroke="#010F14" stroke-width="0.75" stroke-miterlimit="10" x1="2573.758" y1="930.811" x2="547.075" y2="-239.295"/>
			
				<line opacity="0.3" fill="none" stroke="#010F14" stroke-width="0.75" stroke-miterlimit="10" x1="2509.495" y1="930.811" x2="482.813" y2="-239.295"/>
			
				<line opacity="0.3" fill="none" stroke="#010F14" stroke-width="0.75" stroke-miterlimit="10" x1="2445.233" y1="930.811" x2="418.551" y2="-239.295"/>
			
				<line opacity="0.3" fill="none" stroke="#010F14" stroke-width="0.75" stroke-miterlimit="10" x1="2380.971" y1="930.811" x2="354.288" y2="-239.295"/>
			
				<line opacity="0.3" fill="none" stroke="#010F14" stroke-width="0.75" stroke-miterlimit="10" x1="2316.708" y1="930.811" x2="290.026" y2="-239.295"/>
			
				<line opacity="0.3" fill="none" stroke="#010F14" stroke-width="0.75" stroke-miterlimit="10" x1="2252.446" y1="930.811" x2="225.764" y2="-239.295"/>
			
				<line opacity="0.3" fill="none" stroke="#010F14" stroke-width="0.75" stroke-miterlimit="10" x1="2188.184" y1="930.811" x2="161.501" y2="-239.295"/>
			
				<line opacity="0.3" fill="none" stroke="#010F14" stroke-width="0.75" stroke-miterlimit="10" x1="2123.921" y1="930.811" x2="97.239" y2="-239.295"/>
			
				<line opacity="0.3" fill="none" stroke="#010F14" stroke-width="0.75" stroke-miterlimit="10" x1="2059.659" y1="930.811" x2="32.976" y2="-239.295"/>
			
				<line opacity="0.3" fill="none" stroke="#010F14" stroke-width="0.75" stroke-miterlimit="10" x1="1995.396" y1="930.811" x2="-31.286" y2="-239.295"/>
			
				<line opacity="0.3" fill="none" stroke="#010F14" stroke-width="0.75" stroke-miterlimit="10" x1="1931.134" y1="930.811" x2="-95.548" y2="-239.295"/>
			
				<line opacity="0.3" fill="none" stroke="#010F14" stroke-width="0.75" stroke-miterlimit="10" x1="1866.872" y1="930.811" x2="-159.811" y2="-239.295"/>
			
				<line opacity="0.3" fill="none" stroke="#010F14" stroke-width="0.75" stroke-miterlimit="10" x1="1802.609" y1="930.811" x2="-224.073" y2="-239.295"/>
			
				<line opacity="0.3" fill="none" stroke="#010F14" stroke-width="0.75" stroke-miterlimit="10" x1="1738.347" y1="930.811" x2="-288.335" y2="-239.295"/>
			
				<line opacity="0.3" fill="none" stroke="#010F14" stroke-width="0.75" stroke-miterlimit="10" x1="1674.084" y1="930.811" x2="-352.598" y2="-239.295"/>
			
				<line opacity="0.3" fill="none" stroke="#010F14" stroke-width="0.75" stroke-miterlimit="10" x1="1609.822" y1="930.811" x2="-416.86" y2="-239.295"/>
			
				<line opacity="0.3" fill="none" stroke="#010F14" stroke-width="0.75" stroke-miterlimit="10" x1="1545.56" y1="930.811" x2="-481.123" y2="-239.295"/>
			
				<line opacity="0.3" fill="none" stroke="#010F14" stroke-width="0.75" stroke-miterlimit="10" x1="1481.297" y1="930.811" x2="-545.385" y2="-239.295"/>
			
				<line opacity="0.3" fill="none" stroke="#010F14" stroke-width="0.75" stroke-miterlimit="10" x1="1417.035" y1="930.811" x2="-609.647" y2="-239.295"/>
			
				<line opacity="0.3" fill="none" stroke="#010F14" stroke-width="0.75" stroke-miterlimit="10" x1="1352.773" y1="930.811" x2="-673.91" y2="-239.295"/>
			
				<line opacity="0.3" fill="none" stroke="#010F14" stroke-width="0.75" stroke-miterlimit="10" x1="1288.51" y1="930.811" x2="-738.172" y2="-239.295"/>
			
				<line opacity="0.3" fill="none" stroke="#010F14" stroke-width="0.75" stroke-miterlimit="10" x1="1224.248" y1="930.811" x2="-802.435" y2="-239.295"/>
			
				<line opacity="0.3" fill="none" stroke="#010F14" stroke-width="0.75" stroke-miterlimit="10" x1="1159.985" y1="930.811" x2="-866.697" y2="-239.295"/>
			
				<line opacity="0.3" fill="none" stroke="#010F14" stroke-width="0.75" stroke-miterlimit="10" x1="1095.723" y1="930.811" x2="-930.959" y2="-239.295"/>
			
				<line opacity="0.3" fill="none" stroke="#010F14" stroke-width="0.75" stroke-miterlimit="10" x1="1031.461" y1="930.811" x2="-995.222" y2="-239.295"/>
			
				<line opacity="0.3" fill="none" stroke="#010F14" stroke-width="0.75" stroke-miterlimit="10" x1="967.198" y1="930.811" x2="-1059.484" y2="-239.295"/>
			
				<line opacity="0.3" fill="none" stroke="#010F14" stroke-width="0.75" stroke-miterlimit="10" x1="902.936" y1="930.811" x2="-1123.746" y2="-239.295"/>
			
				<line opacity="0.3" fill="none" stroke="#010F14" stroke-width="0.75" stroke-miterlimit="10" x1="838.674" y1="930.811" x2="-1188.009" y2="-239.295"/>
			
				<line opacity="0.3" fill="none" stroke="#010F14" stroke-width="0.75" stroke-miterlimit="10" x1="774.411" y1="930.811" x2="-1252.271" y2="-239.295"/>
			
				<line opacity="0.3" fill="none" stroke="#010F14" stroke-width="0.75" stroke-miterlimit="10" x1="710.149" y1="930.811" x2="-1316.533" y2="-239.295"/>
			
				<line opacity="0.3" fill="none" stroke="#010F14" stroke-width="0.75" stroke-miterlimit="10" x1="645.886" y1="930.811" x2="-1380.796" y2="-239.295"/>
			
				<line opacity="0.3" fill="none" stroke="#010F14" stroke-width="0.75" stroke-miterlimit="10" x1="581.624" y1="930.811" x2="-1445.058" y2="-239.295"/>
			
				<line opacity="0.3" fill="none" stroke="#010F14" stroke-width="0.75" stroke-miterlimit="10" x1="517.362" y1="930.811" x2="-1509.321" y2="-239.295"/>
			
				<line opacity="0.3" fill="none" stroke="#010F14" stroke-width="0.75" stroke-miterlimit="10" x1="453.099" y1="930.811" x2="-1573.583" y2="-239.295"/>
			
				<line opacity="0.3" fill="none" stroke="#010F14" stroke-width="0.75" stroke-miterlimit="10" x1="388.837" y1="930.811" x2="-1637.845" y2="-239.295"/>
			
				<line opacity="0.3" fill="none" stroke="#010F14" stroke-width="0.75" stroke-miterlimit="10" x1="324.575" y1="930.811" x2="-1702.108" y2="-239.295"/>
			
				<line opacity="0.3" fill="none" stroke="#010F14" stroke-width="0.75" stroke-miterlimit="10" x1="260.312" y1="930.811" x2="-1766.37" y2="-239.295"/>
			
				<line opacity="0.3" fill="none" stroke="#010F14" stroke-width="0.75" stroke-miterlimit="10" x1="196.05" y1="930.811" x2="-1830.633" y2="-239.295"/>
			
				<line opacity="0.3" fill="none" stroke="#010F14" stroke-width="0.75" stroke-miterlimit="10" x1="131.787" y1="930.811" x2="-1894.895" y2="-239.295"/>
			
				<line opacity="0.3" fill="none" stroke="#010F14" stroke-width="0.75" stroke-miterlimit="10" x1="67.525" y1="930.811" x2="-1959.157" y2="-239.295"/>
			
				<line opacity="0.3" fill="none" stroke="#010F14" stroke-width="0.75" stroke-miterlimit="10" x1="3.263" y1="930.811" x2="-2023.42" y2="-239.295"/>
		</g>
		<g opacity="0.2">
			
				<line opacity="0.3" fill="none" stroke="#010F14" stroke-width="0.75" stroke-miterlimit="10" x1="-2023.42" y1="930.811" x2="3.263" y2="-239.295"/>
			
				<line opacity="0.3" fill="none" stroke="#010F14" stroke-width="0.75" stroke-miterlimit="10" x1="-1959.157" y1="930.811" x2="67.525" y2="-239.295"/>
			
				<line opacity="0.3" fill="none" stroke="#010F14" stroke-width="0.75" stroke-miterlimit="10" x1="-1894.895" y1="930.811" x2="131.787" y2="-239.295"/>
			
				<line opacity="0.3" fill="none" stroke="#010F14" stroke-width="0.75" stroke-miterlimit="10" x1="-1830.633" y1="930.811" x2="196.05" y2="-239.295"/>
			
				<line opacity="0.3" fill="none" stroke="#010F14" stroke-width="0.75" stroke-miterlimit="10" x1="-1766.37" y1="930.811" x2="260.312" y2="-239.295"/>
			
				<line opacity="0.3" fill="none" stroke="#010F14" stroke-width="0.75" stroke-miterlimit="10" x1="-1702.108" y1="930.811" x2="324.575" y2="-239.295"/>
			
				<line opacity="0.3" fill="none" stroke="#010F14" stroke-width="0.75" stroke-miterlimit="10" x1="-1637.845" y1="930.811" x2="388.837" y2="-239.295"/>
			
				<line opacity="0.3" fill="none" stroke="#010F14" stroke-width="0.75" stroke-miterlimit="10" x1="-1573.583" y1="930.811" x2="453.099" y2="-239.295"/>
			
				<line opacity="0.3" fill="none" stroke="#010F14" stroke-width="0.75" stroke-miterlimit="10" x1="-1509.321" y1="930.811" x2="517.362" y2="-239.295"/>
			
				<line opacity="0.3" fill="none" stroke="#010F14" stroke-width="0.75" stroke-miterlimit="10" x1="-1445.058" y1="930.811" x2="581.624" y2="-239.295"/>
			
				<line opacity="0.3" fill="none" stroke="#010F14" stroke-width="0.75" stroke-miterlimit="10" x1="-1380.796" y1="930.811" x2="645.886" y2="-239.295"/>
			
				<line opacity="0.3" fill="none" stroke="#010F14" stroke-width="0.75" stroke-miterlimit="10" x1="-1316.533" y1="930.811" x2="710.149" y2="-239.295"/>
			
				<line opacity="0.3" fill="none" stroke="#010F14" stroke-width="0.75" stroke-miterlimit="10" x1="-1252.271" y1="930.811" x2="774.411" y2="-239.295"/>
			
				<line opacity="0.3" fill="none" stroke="#010F14" stroke-width="0.75" stroke-miterlimit="10" x1="-1188.009" y1="930.811" x2="838.674" y2="-239.295"/>
			
				<line opacity="0.3" fill="none" stroke="#010F14" stroke-width="0.75" stroke-miterlimit="10" x1="-1123.746" y1="930.811" x2="902.936" y2="-239.295"/>
			
				<line opacity="0.3" fill="none" stroke="#010F14" stroke-width="0.75" stroke-miterlimit="10" x1="-1059.484" y1="930.811" x2="967.198" y2="-239.295"/>
			
				<line opacity="0.3" fill="none" stroke="#010F14" stroke-width="0.75" stroke-miterlimit="10" x1="-995.222" y1="930.811" x2="1031.461" y2="-239.295"/>
			
				<line opacity="0.3" fill="none" stroke="#010F14" stroke-width="0.75" stroke-miterlimit="10" x1="-930.959" y1="930.811" x2="1095.723" y2="-239.295"/>
			
				<line opacity="0.3" fill="none" stroke="#010F14" stroke-width="0.75" stroke-miterlimit="10" x1="-866.697" y1="930.811" x2="1159.985" y2="-239.295"/>
			
				<line opacity="0.3" fill="none" stroke="#010F14" stroke-width="0.75" stroke-miterlimit="10" x1="-802.435" y1="930.811" x2="1224.248" y2="-239.295"/>
			
				<line opacity="0.3" fill="none" stroke="#010F14" stroke-width="0.75" stroke-miterlimit="10" x1="-738.172" y1="930.811" x2="1288.51" y2="-239.295"/>
			
				<line opacity="0.3" fill="none" stroke="#010F14" stroke-width="0.75" stroke-miterlimit="10" x1="-673.91" y1="930.811" x2="1352.773" y2="-239.295"/>
			
				<line opacity="0.3" fill="none" stroke="#010F14" stroke-width="0.75" stroke-miterlimit="10" x1="-609.647" y1="930.811" x2="1417.035" y2="-239.295"/>
			
				<line opacity="0.3" fill="none" stroke="#010F14" stroke-width="0.75" stroke-miterlimit="10" x1="-545.385" y1="930.811" x2="1481.297" y2="-239.295"/>
			
				<line opacity="0.3" fill="none" stroke="#010F14" stroke-width="0.75" stroke-miterlimit="10" x1="-481.123" y1="930.811" x2="1545.56" y2="-239.295"/>
			
				<line opacity="0.3" fill="none" stroke="#010F14" stroke-width="0.75" stroke-miterlimit="10" x1="-416.86" y1="930.811" x2="1609.822" y2="-239.295"/>
			
				<line opacity="0.3" fill="none" stroke="#010F14" stroke-width="0.75" stroke-miterlimit="10" x1="-352.598" y1="930.811" x2="1674.084" y2="-239.295"/>
			
				<line opacity="0.3" fill="none" stroke="#010F14" stroke-width="0.75" stroke-miterlimit="10" x1="-288.335" y1="930.811" x2="1738.347" y2="-239.295"/>
			
				<line opacity="0.3" fill="none" stroke="#010F14" stroke-width="0.75" stroke-miterlimit="10" x1="-224.073" y1="930.811" x2="1802.609" y2="-239.295"/>
			
				<line opacity="0.3" fill="none" stroke="#010F14" stroke-width="0.75" stroke-miterlimit="10" x1="-159.811" y1="930.811" x2="1866.872" y2="-239.295"/>
			
				<line opacity="0.3" fill="none" stroke="#010F14" stroke-width="0.75" stroke-miterlimit="10" x1="-95.548" y1="930.811" x2="1931.134" y2="-239.295"/>
			
				<line opacity="0.3" fill="none" stroke="#010F14" stroke-width="0.75" stroke-miterlimit="10" x1="-31.286" y1="930.811" x2="1995.396" y2="-239.295"/>
			
				<line opacity="0.3" fill="none" stroke="#010F14" stroke-width="0.75" stroke-miterlimit="10" x1="32.976" y1="930.811" x2="2059.659" y2="-239.295"/>
			
				<line opacity="0.3" fill="none" stroke="#010F14" stroke-width="0.75" stroke-miterlimit="10" x1="97.239" y1="930.811" x2="2123.921" y2="-239.295"/>
			
				<line opacity="0.3" fill="none" stroke="#010F14" stroke-width="0.75" stroke-miterlimit="10" x1="161.501" y1="930.811" x2="2188.184" y2="-239.295"/>
			
				<line opacity="0.3" fill="none" stroke="#010F14" stroke-width="0.75" stroke-miterlimit="10" x1="225.764" y1="930.811" x2="2252.446" y2="-239.295"/>
			
				<line opacity="0.3" fill="none" stroke="#010F14" stroke-width="0.75" stroke-miterlimit="10" x1="290.026" y1="930.811" x2="2316.708" y2="-239.295"/>
			
				<line opacity="0.3" fill="none" stroke="#010F14" stroke-width="0.75" stroke-miterlimit="10" x1="354.288" y1="930.811" x2="2380.971" y2="-239.295"/>
			
				<line opacity="0.3" fill="none" stroke="#010F14" stroke-width="0.75" stroke-miterlimit="10" x1="418.551" y1="930.811" x2="2445.233" y2="-239.295"/>
			
				<line opacity="0.3" fill="none" stroke="#010F14" stroke-width="0.75" stroke-miterlimit="10" x1="482.813" y1="930.811" x2="2509.495" y2="-239.295"/>
			
				<line opacity="0.3" fill="none" stroke="#010F14" stroke-width="0.75" stroke-miterlimit="10" x1="547.075" y1="930.811" x2="2573.758" y2="-239.295"/>
			
				<line opacity="0.3" fill="none" stroke="#010F14" stroke-width="0.75" stroke-miterlimit="10" x1="611.338" y1="930.811" x2="2638.02" y2="-239.295"/>
			
				<line opacity="0.3" fill="none" stroke="#010F14" stroke-width="0.75" stroke-miterlimit="10" x1="675.6" y1="930.811" x2="2702.282" y2="-239.295"/>
			
				<line opacity="0.3" fill="none" stroke="#010F14" stroke-width="0.75" stroke-miterlimit="10" x1="739.863" y1="930.811" x2="2766.545" y2="-239.295"/>
			
				<line opacity="0.3" fill="none" stroke="#010F14" stroke-width="0.75" stroke-miterlimit="10" x1="804.125" y1="930.811" x2="2830.807" y2="-239.295"/>
			
				<line opacity="0.3" fill="none" stroke="#010F14" stroke-width="0.75" stroke-miterlimit="10" x1="868.387" y1="930.811" x2="2895.07" y2="-239.295"/>
			
				<line opacity="0.3" fill="none" stroke="#010F14" stroke-width="0.75" stroke-miterlimit="10" x1="932.65" y1="930.811" x2="2959.332" y2="-239.295"/>
			
				<line opacity="0.3" fill="none" stroke="#010F14" stroke-width="0.75" stroke-miterlimit="10" x1="996.912" y1="930.811" x2="3023.594" y2="-239.295"/>
			
				<line opacity="0.3" fill="none" stroke="#010F14" stroke-width="0.75" stroke-miterlimit="10" x1="1061.174" y1="930.811" x2="3087.857" y2="-239.295"/>
			
				<line opacity="0.3" fill="none" stroke="#010F14" stroke-width="0.75" stroke-miterlimit="10" x1="1125.437" y1="930.811" x2="3152.119" y2="-239.295"/>
			
				<line opacity="0.3" fill="none" stroke="#010F14" stroke-width="0.75" stroke-miterlimit="10" x1="1189.699" y1="930.811" x2="3216.382" y2="-239.295"/>
			
				<line opacity="0.3" fill="none" stroke="#010F14" stroke-width="0.75" stroke-miterlimit="10" x1="1253.962" y1="930.811" x2="3280.644" y2="-239.295"/>
		</g>
		<line opacity="0.05" fill="none" stroke="#010F14" stroke-miterlimit="10" x1="20.5" y1="-322" x2="20.5" y2="973"/>
		<line opacity="0.05" fill="none" stroke="#010F14" stroke-miterlimit="10" x1="51.5" y1="-322" x2="51.5" y2="973"/>
		<line opacity="0.05" fill="none" stroke="#010F14" stroke-miterlimit="10" x1="83.5" y1="-322" x2="83.5" y2="973"/>
		<line opacity="0.05" fill="none" stroke="#010F14" stroke-miterlimit="10" x1="115.5" y1="-322" x2="115.5" y2="973"/>
		<line opacity="0.05" fill="none" stroke="#010F14" stroke-miterlimit="10" x1="148.5" y1="-322" x2="148.5" y2="973"/>
		<line opacity="0.05" fill="none" stroke="#010F14" stroke-miterlimit="10" x1="180.5" y1="-322" x2="180.5" y2="973"/>
		<line opacity="0.05" fill="none" stroke="#010F14" stroke-miterlimit="10" x1="212.5" y1="-322" x2="212.5" y2="973"/>
		<line opacity="0.05" fill="none" stroke="#010F14" stroke-miterlimit="10" x1="244.5" y1="-322" x2="244.5" y2="973"/>
		<line opacity="0.05" fill="none" stroke="#010F14" stroke-miterlimit="10" x1="274.5" y1="-322" x2="274.5" y2="973"/>
		<line opacity="0.05" fill="none" stroke="#010F14" stroke-miterlimit="10" x1="306.5" y1="-322" x2="306.5" y2="973"/>
		<line opacity="0.05" fill="none" stroke="#010F14" stroke-miterlimit="10" x1="339.5" y1="-322" x2="339.5" y2="973"/>
		<line opacity="0.05" fill="none" stroke="#010F14" stroke-miterlimit="10" x1="371.5" y1="-322" x2="371.5" y2="973"/>
		<line opacity="0.05" fill="none" stroke="#010F14" stroke-miterlimit="10" x1="403.5" y1="-322" x2="403.5" y2="973"/>
		<line opacity="0.05" fill="none" stroke="#010F14" stroke-miterlimit="10" x1="435.5" y1="-322" x2="435.5" y2="973"/>
		<line opacity="0.05" fill="none" stroke="#010F14" stroke-miterlimit="10" x1="466.5" y1="-322" x2="466.5" y2="973"/>
		<line opacity="0.05" fill="none" stroke="#010F14" stroke-miterlimit="10" x1="499.5" y1="-322" x2="499.5" y2="973"/>
		<line opacity="0.05" fill="none" stroke="#010F14" stroke-miterlimit="10" x1="533.5" y1="-322" x2="533.5" y2="973"/>
		<line opacity="0.05" fill="none" stroke="#010F14" stroke-miterlimit="10" x1="566.5" y1="-322" x2="566.5" y2="973"/>
		<line opacity="0.05" fill="none" stroke="#010F14" stroke-miterlimit="10" x1="598.5" y1="-322" x2="598.5" y2="973"/>
		<line opacity="0.05" fill="none" stroke="#010F14" stroke-miterlimit="10" x1="630.5" y1="-322" x2="630.5" y2="973"/>
		<line opacity="0.05" fill="none" stroke="#010F14" stroke-miterlimit="10" x1="662.5" y1="-322" x2="662.5" y2="973"/>
		<line opacity="0.05" fill="none" stroke="#010F14" stroke-miterlimit="10" x1="695.5" y1="-322" x2="695.5" y2="973"/>
		<line opacity="0.05" fill="none" stroke="#010F14" stroke-miterlimit="10" x1="726.5" y1="-322" x2="726.5" y2="973"/>
		<line opacity="0.05" fill="none" stroke="#010F14" stroke-miterlimit="10" x1="758.5" y1="-322" x2="758.5" y2="973"/>
		<line opacity="0.05" fill="none" stroke="#010F14" stroke-miterlimit="10" x1="788.5" y1="-322" x2="788.5" y2="973"/>
		<line opacity="0.05" fill="none" stroke="#010F14" stroke-miterlimit="10" x1="820.5" y1="-322" x2="820.5" y2="973"/>
		<line opacity="0.05" fill="none" stroke="#010F14" stroke-miterlimit="10" x1="852.5" y1="-322" x2="852.5" y2="973"/>
		<line opacity="0.05" fill="none" stroke="#010F14" stroke-miterlimit="10" x1="885.5" y1="-322" x2="885.5" y2="973"/>
		<line opacity="0.05" fill="none" stroke="#010F14" stroke-miterlimit="10" x1="917.5" y1="-322" x2="917.5" y2="973"/>
		<line opacity="0.05" fill="none" stroke="#010F14" stroke-miterlimit="10" x1="949.5" y1="-322" x2="949.5" y2="973"/>
		<line opacity="0.05" fill="none" stroke="#010F14" stroke-miterlimit="10" x1="981.5" y1="-322" x2="981.5" y2="973"/>
		<line opacity="0.05" fill="none" stroke="#010F14" stroke-miterlimit="10" x1="1014.5" y1="-322" x2="1014.5" y2="973"/>
		<line opacity="0.05" fill="none" stroke="#010F14" stroke-miterlimit="10" x1="1047.5" y1="-322" x2="1047.5" y2="973"/>
		<line opacity="0.05" fill="none" stroke="#010F14" stroke-miterlimit="10" x1="1079.5" y1="-322" x2="1079.5" y2="973"/>
		<line opacity="0.05" fill="none" stroke="#010F14" stroke-miterlimit="10" x1="1111.5" y1="-322" x2="1111.5" y2="973"/>
		<line opacity="0.05" fill="none" stroke="#010F14" stroke-miterlimit="10" x1="1144.5" y1="-322" x2="1144.5" y2="973"/>
		<line opacity="0.05" fill="none" stroke="#010F14" stroke-miterlimit="10" x1="1176.5" y1="-322" x2="1176.5" y2="973"/>
		<line opacity="0.05" fill="none" stroke="#010F14" stroke-miterlimit="10" x1="1208.5" y1="-322" x2="1208.5" y2="973"/>
		<line opacity="0.05" fill="none" stroke="#010F14" stroke-miterlimit="10" x1="1240.5" y1="-322" x2="1240.5" y2="973"/>
		<line opacity="0.05" fill="none" stroke="#010F14" stroke-miterlimit="10" x1="1273.5" y1="-322" x2="1273.5" y2="973"/>
		<line opacity="0.05" fill="none" stroke="#010F14" stroke-miterlimit="10" x1="1303.5" y1="-322" x2="1303.5" y2="973"/>
	</g>
</g>
<g id="图层_9">
	<rect x="-2" y="634" fill="#FFFFFF" width="1314" height="814"/>
	<g id="图层_10">
	</g>
	<g id="图层_4">
	</g>
</g>
<g id="图层_8">
</g>
<g id="图层_12">
</g>
<g id="图层_11">
</g>
<g id="图层_2">
</g>
<g id="图层_1">
	<g>
		<g id="窗户_2_">
			<polygon display="none" opacity="0.7" fill="#001523" points="754.485,387.787 754.485,382.742 789.023,402.682 789.023,407.728 
							"/>
			<polygon display="none" opacity="0.7" fill="#001523" points="754.485,395.138 754.485,390.093 789.023,410.033 789.023,415.078 
							"/>
			<polygon display="none" opacity="0.7" fill="#001523" points="754.485,357.598 754.485,352.553 789.023,372.493 789.023,377.538 
							"/>
			<polygon display="none" opacity="0.7" fill="#001523" points="754.485,364.948 754.485,359.903 789.023,379.843 789.023,384.888 
							"/>
			<polygon display="none" opacity="0.7" fill="#001523" points="754.485,320.144 754.485,315.099 789.023,335.039 789.023,340.084 
							"/>
			<polygon display="none" opacity="0.7" fill="#001523" points="754.485,327.495 754.485,322.45 789.023,342.39 789.023,347.435 
							"/>
			<polygon display="none" opacity="0.7" fill="#001523" points="754.485,289.955 754.485,284.91 789.023,304.85 789.023,309.895 
							"/>
			<polygon display="none" opacity="0.7" fill="#001523" points="754.485,297.305 754.485,292.26 789.023,312.2 789.023,317.245 			
				"/>
		</g>
	</g>
</g>
<g id="图层_5">
</g>
<g id="图层_6">
</g>
<g id="图层_7">
</g>
</svg>
